<svg xmlns="http://www.w3.org/2000/svg" viewBox="0 0 420 280" role="img">
  <defs>
    <filter id="grain"><feTurbulence type="fractalNoise" baseFrequency="0.85" numOctaves="2" stitchTiles="stitch"/><feColorMatrix type="saturate" values="0.12"/><feComponentTransfer><feFuncA type="table" tableValues="0 0.08"/></feComponentTransfer></filter>
    <radialGradient id="bg" cx="48%" cy="45%" r="75%"><stop offset="0" stop-color="#fbf2f1"/><stop offset="0.7" stop-color="#eadbd7"/><stop offset="1" stop-color="#ddcbc6"/></radialGradient>
    <linearGradient id="pearlite" x1="0" y1="0" x2="1" y2="1"><stop offset="0" stop-color="#7b6b63"/><stop offset="1" stop-color="#b6aaa3"/></linearGradient>
    
  </defs>
  <rect width="420" height="280" fill="url(#bg)"/>
  <rect width="420" height="280" filter="url(#grain)" opacity=".55"/>
<path d="M35.9,193.1 L99.4,191.5" stroke="#4e4a48" stroke-width="0.9" opacity="0.28"/>
<path d="M324.6,226.2 L381.3,226.6" stroke="#4e4a48" stroke-width="1.0" opacity="0.28"/>
<path d="M-38.5,103.9 L14.0,73.4" stroke="#4e4a48" stroke-width="1.6" opacity="0.28"/>
<path d="M66.8,65.2 L91.8,82.5" stroke="#4e4a48" stroke-width="1.5" opacity="0.28"/>
<path d="M362.5,172.4 L391.8,166.2" stroke="#4e4a48" stroke-width="1.2" opacity="0.28"/>
<path d="M13.3,266.5 L57.6,246.6" stroke="#4e4a48" stroke-width="1.6" opacity="0.28"/>
<path d="M17.4,259.8 L70.7,263.2" stroke="#4e4a48" stroke-width="1.1" opacity="0.28"/>
<path d="M183.0,52.3 L210.1,65.3" stroke="#4e4a48" stroke-width="1.0" opacity="0.28"/>
<path d="M318.9,58.4 L391.8,96.5" stroke="#4e4a48" stroke-width="1.5" opacity="0.28"/>
<path d="M310.9,162.6 L372.6,132.0" stroke="#4e4a48" stroke-width="1.2" opacity="0.28"/>
<path d="M340.4,56.3 L411.4,92.6" stroke="#4e4a48" stroke-width="1.2" opacity="0.28"/>
<path d="M128.0,126.4 L168.8,154.6" stroke="#4e4a48" stroke-width="1.1" opacity="0.28"/>
<path d="M-27.7,26.1 L28.6,64.7" stroke="#4e4a48" stroke-width="1.2" opacity="0.28"/>
<path d="M186.1,154.1 L252.0,130.8" stroke="#4e4a48" stroke-width="1.4" opacity="0.28"/>
<path d="M216.0,174.3 L251.0,159.4" stroke="#4e4a48" stroke-width="1.1" opacity="0.28"/>
<path d="M386.5,97.1 L446.2,82.7" stroke="#4e4a48" stroke-width="0.8" opacity="0.28"/>
<path d="M-9.8,227.8 L60.9,216.9" stroke="#4e4a48" stroke-width="1.5" opacity="0.28"/>
<path d="M270.9,251.6 L352.1,242.4" stroke="#4e4a48" stroke-width="1.8" opacity="0.28"/>
<path d="M402.3,165.3 L479.7,164.5" stroke="#4e4a48" stroke-width="1.1" opacity="0.28"/>
<path d="M73.7,245.3 L105.8,226.7" stroke="#4e4a48" stroke-width="1.6" opacity="0.28"/>
<path d="M316.0,135.3 L379.9,96.3" stroke="#4e4a48" stroke-width="1.0" opacity="0.28"/>
<path d="M93.3,117.5 L125.8,98.6" stroke="#4e4a48" stroke-width="1.1" opacity="0.28"/>
<path d="M373.6,275.4 L443.4,273.6" stroke="#4e4a48" stroke-width="1.0" opacity="0.28"/>
<path d="M401.1,147.2 L458.8,109.7" stroke="#4e4a48" stroke-width="0.9" opacity="0.28"/>
<path d="M345.6,222.7 L422.4,232.2" stroke="#4e4a48" stroke-width="1.2" opacity="0.28"/>
<path d="M227.3,237.8 L272.5,239.7" stroke="#4e4a48" stroke-width="1.0" opacity="0.28"/>
<path d="M313.4,2.9 L369.8,37.8" stroke="#4e4a48" stroke-width="0.7" opacity="0.28"/>
<path d="M233.1,180.3 L308.4,188.1" stroke="#4e4a48" stroke-width="1.0" opacity="0.28"/>
<path d="M146.6,268.4 L217.5,234.4" stroke="#4e4a48" stroke-width="0.8" opacity="0.28"/>
<path d="M3.2,7.1 L51.2,-15.4" stroke="#4e4a48" stroke-width="1.7" opacity="0.28"/>
<path d="M261.4,35.4 L318.3,23.0" stroke="#4e4a48" stroke-width="1.2" opacity="0.28"/>
<path d="M61.0,46.5 L98.9,40.8" stroke="#4e4a48" stroke-width="1.5" opacity="0.28"/>
<path d="M213.0,12.9 L273.9,42.8" stroke="#4e4a48" stroke-width="1.6" opacity="0.28"/>
<path d="M323.7,2.2 L370.2,-25.3" stroke="#4e4a48" stroke-width="1.5" opacity="0.28"/>
<path d="M40.6,199.2 L81.6,209.3" stroke="#4e4a48" stroke-width="1.0" opacity="0.28"/>
<path d="M-20.7,108.9 L19.3,130.2" stroke="#4e4a48" stroke-width="1.0" opacity="0.28"/>
<path d="M191.4,153.8 L263.0,115.6" stroke="#4e4a48" stroke-width="1.4" opacity="0.28"/>
<path d="M193.8,205.7 L273.7,186.8" stroke="#4e4a48" stroke-width="1.5" opacity="0.28"/>
<path d="M201.9,157.0 L231.1,168.8" stroke="#4e4a48" stroke-width="1.8" opacity="0.28"/>
<path d="M123.4,89.1 L197.6,50.5" stroke="#4e4a48" stroke-width="0.8" opacity="0.28"/>
<path d="M-6.3,228.0 L64.1,223.5" stroke="#4e4a48" stroke-width="1.4" opacity="0.28"/>
<path d="M-30.9,180.5 L21.9,181.6" stroke="#4e4a48" stroke-width="1.1" opacity="0.28"/>
<path d="M144.7,63.1 L175.3,60.7" stroke="#4e4a48" stroke-width="1.0" opacity="0.28"/>
<path d="M283.9,228.8 L352.4,225.2" stroke="#4e4a48" stroke-width="1.0" opacity="0.28"/>
<path d="M137.3,136.3 L190.8,170.3" stroke="#4e4a48" stroke-width="0.8" opacity="0.28"/>
<path d="M180.7,137.7 L241.2,169.0" stroke="#4e4a48" stroke-width="1.6" opacity="0.28"/>
<path d="M248.3,212.4 L307.6,240.2" stroke="#4e4a48" stroke-width="1.5" opacity="0.28"/>
<path d="M274.2,68.7 L352.7,57.7" stroke="#4e4a48" stroke-width="1.4" opacity="0.28"/>
<path d="M339.4,269.8 L408.1,222.5" stroke="#4e4a48" stroke-width="1.0" opacity="0.28"/>
<path d="M103.4,109.5 L139.5,111.9" stroke="#4e4a48" stroke-width="0.8" opacity="0.28"/>
<path d="M99.2,264.2 L168.7,261.0" stroke="#4e4a48" stroke-width="0.8" opacity="0.28"/>
<path d="M399.8,197.1 L438.5,189.2" stroke="#4e4a48" stroke-width="1.4" opacity="0.28"/>
<path d="M273.6,73.0 L352.9,55.5" stroke="#4e4a48" stroke-width="1.0" opacity="0.28"/>
<path d="M348.9,43.0 L410.6,19.2" stroke="#4e4a48" stroke-width="1.4" opacity="0.28"/>
<path d="M87.6,106.1 L168.2,102.9" stroke="#4e4a48" stroke-width="1.2" opacity="0.28"/>
<path d="M243.9,78.6 L281.3,73.3" stroke="#4e4a48" stroke-width="1.0" opacity="0.28"/>
<path d="M46.7,269.0 L74.5,280.1" stroke="#4e4a48" stroke-width="1.7" opacity="0.28"/>
<path d="M284.1,5.3 L331.5,-24.6" stroke="#4e4a48" stroke-width="1.4" opacity="0.28"/>
<path d="M282.2,67.3 L310.6,68.8" stroke="#4e4a48" stroke-width="0.8" opacity="0.28"/>
<path d="M102.1,127.1 L179.2,114.8" stroke="#4e4a48" stroke-width="0.8" opacity="0.28"/>
<path d="M324.2,230.3 L373.3,200.1" stroke="#4e4a48" stroke-width="0.9" opacity="0.28"/>
<path d="M145.4,154.5 L183.2,169.2" stroke="#4e4a48" stroke-width="1.6" opacity="0.28"/>
<path d="M385.6,247.4 L414.4,250.3" stroke="#4e4a48" stroke-width="0.8" opacity="0.28"/>
<path d="M373.9,209.1 L439.3,182.9" stroke="#4e4a48" stroke-width="0.8" opacity="0.28"/>
<path d="M335.0,169.8 L397.7,167.6" stroke="#4e4a48" stroke-width="1.6" opacity="0.28"/>
<path d="M115.5,75.5 L161.8,63.9" stroke="#4e4a48" stroke-width="1.4" opacity="0.28"/>
<path d="M369.5,19.9 L401.3,20.3" stroke="#4e4a48" stroke-width="1.4" opacity="0.28"/>
<path d="M47.3,75.6 L73.7,58.8" stroke="#4e4a48" stroke-width="1.2" opacity="0.28"/>
<path d="M273.1,182.9 L305.8,165.7" stroke="#4e4a48" stroke-width="1.7" opacity="0.28"/>
<path d="M207.7,114.4 L271.9,132.7" stroke="#4e4a48" stroke-width="1.3" opacity="0.28"/>
<path d="M-4.0,231.6 L29.9,210.4" stroke="#4e4a48" stroke-width="1.1" opacity="0.28"/>
<path d="M205.0,175.9 L241.5,185.5" stroke="#4e4a48" stroke-width="1.2" opacity="0.28"/>
<path d="M34.5,238.3 L98.9,273.1" stroke="#4e4a48" stroke-width="1.4" opacity="0.28"/>
<path d="M60.0,217.7 L138.5,220.9" stroke="#4e4a48" stroke-width="1.7" opacity="0.28"/>
<path d="M406.3,109.2 L475.8,150.3" stroke="#4e4a48" stroke-width="1.6" opacity="0.28"/>
<path d="M-34.8,98.5 L27.0,106.7" stroke="#4e4a48" stroke-width="1.5" opacity="0.28"/>
<path d="M257.6,45.2 L337.6,48.8" stroke="#4e4a48" stroke-width="1.7" opacity="0.28"/>
<path d="M55.1,279.5 L110.9,299.0" stroke="#4e4a48" stroke-width="1.5" opacity="0.28"/>
<path d="M366.1,101.5 L398.5,97.7" stroke="#4e4a48" stroke-width="0.9" opacity="0.28"/>
<path d="M208.3,228.2 L251.8,207.2" stroke="#4e4a48" stroke-width="0.7" opacity="0.28"/>
<path d="M154.6,162.5 L183.4,168.4" stroke="#4e4a48" stroke-width="0.9" opacity="0.28"/>
<path d="M9.2,259.8 L60.0,286.3" stroke="#4e4a48" stroke-width="1.3" opacity="0.28"/>
<path d="M16.5,67.2 L67.5,76.1" stroke="#4e4a48" stroke-width="1.5" opacity="0.28"/>
<path d="M305.6,182.2 L347.6,178.6" stroke="#4e4a48" stroke-width="1.1" opacity="0.28"/>
<path d="M185.2,74.3 L243.3,71.4" stroke="#4e4a48" stroke-width="0.7" opacity="0.28"/>
<path d="M338.5,164.2 L408.5,185.0" stroke="#4e4a48" stroke-width="1.5" opacity="0.28"/>
<path d="M417.0,105.5 L458.1,77.0" stroke="#4e4a48" stroke-width="1.4" opacity="0.28"/>
<path d="M227.5,161.4 L305.7,131.1" stroke="#4e4a48" stroke-width="0.9" opacity="0.28"/>
<path d="M297.7,227.5 L344.8,199.0" stroke="#4e4a48" stroke-width="1.1" opacity="0.28"/>
<path d="M340.1,140.0 L393.5,132.7" stroke="#4e4a48" stroke-width="1.4" opacity="0.28"/>
<path d="M235.3,194.0 L308.2,217.2" stroke="#4e4a48" stroke-width="1.1" opacity="0.28"/>
<path d="M75.2,218.9 L137.9,255.1" stroke="#4e4a48" stroke-width="0.9" opacity="0.28"/>
<path d="M349.9,249.4 L381.4,241.9" stroke="#4e4a48" stroke-width="1.4" opacity="0.28"/>
<path d="M27.2,232.7 L69.0,242.2" stroke="#4e4a48" stroke-width="1.0" opacity="0.28"/>
<path d="M60.4,57.9 L114.4,72.3" stroke="#4e4a48" stroke-width="0.9" opacity="0.28"/>
<path d="M275.7,93.8 L339.3,83.5" stroke="#4e4a48" stroke-width="0.9" opacity="0.28"/>
<path d="M24.9,16.2 L91.5,9.1" stroke="#4e4a48" stroke-width="0.8" opacity="0.28"/>
<path d="M365.1,183.3 L393.1,191.3" stroke="#4e4a48" stroke-width="1.4" opacity="0.28"/>
<path d="M164.1,140.2 L245.0,127.6" stroke="#4e4a48" stroke-width="1.4" opacity="0.28"/>
<path d="M252.4,102.4 L297.5,116.9" stroke="#4e4a48" stroke-width="1.4" opacity="0.28"/>
<path d="M170.2,143.9 L208.2,157.9" stroke="#4e4a48" stroke-width="0.7" opacity="0.28"/>
<path d="M255.9,127.4 L296.0,131.7" stroke="#4e4a48" stroke-width="1.3" opacity="0.28"/>
<path d="M-0.1,137.2 L34.7,150.5" stroke="#4e4a48" stroke-width="1.1" opacity="0.28"/>
<path d="M111.0,60.3 L139.5,48.8" stroke="#4e4a48" stroke-width="0.9" opacity="0.28"/>
<path d="M247.1,237.3 L283.0,218.8" stroke="#4e4a48" stroke-width="1.3" opacity="0.28"/>
<path d="M13.2,113.5 L79.2,88.4" stroke="#4e4a48" stroke-width="1.5" opacity="0.28"/>
<path d="M207.8,23.8 L249.1,28.8" stroke="#4e4a48" stroke-width="0.8" opacity="0.28"/>
<path d="M53.7,161.5 L127.5,163.3" stroke="#4e4a48" stroke-width="1.4" opacity="0.28"/>
<path d="M-35.8,84.7 L4.3,106.9" stroke="#4e4a48" stroke-width="1.1" opacity="0.28"/>
<path d="M321.0,9.6 L370.6,35.3" stroke="#4e4a48" stroke-width="1.5" opacity="0.28"/>
<path d="M226.6,51.0 L296.2,11.8" stroke="#4e4a48" stroke-width="1.8" opacity="0.28"/>
<path d="M317.1,201.5 L370.0,178.5" stroke="#4e4a48" stroke-width="1.1" opacity="0.28"/>
<path d="M265.4,183.7 L311.9,201.6" stroke="#4e4a48" stroke-width="0.8" opacity="0.28"/>
<path d="M92.1,25.3 L135.4,41.5" stroke="#4e4a48" stroke-width="1.5" opacity="0.28"/>
<path d="M28.7,86.3 L62.3,93.1" stroke="#4e4a48" stroke-width="1.2" opacity="0.28"/>
<path d="M66.5,104.8 L142.7,97.8" stroke="#4e4a48" stroke-width="1.5" opacity="0.28"/>
<path d="M248.7,132.6 L307.1,122.8" stroke="#4e4a48" stroke-width="0.9" opacity="0.28"/>
<path d="M187.4,85.3 L230.6,67.9" stroke="#4e4a48" stroke-width="1.7" opacity="0.28"/>
<path d="M155.7,56.1 L183.7,45.9" stroke="#4e4a48" stroke-width="1.7" opacity="0.28"/>
<path d="M115.0,186.8 L155.2,194.3" stroke="#4e4a48" stroke-width="1.2" opacity="0.28"/>
<path d="M298.7,148.0 L346.0,135.0" stroke="#4e4a48" stroke-width="1.4" opacity="0.28"/>
<path d="M342.7,193.6 L396.3,182.2" stroke="#4e4a48" stroke-width="1.7" opacity="0.28"/>
<path d="M349.3,40.8 L411.7,62.4" stroke="#4e4a48" stroke-width="1.4" opacity="0.28"/>
<path d="M403.6,246.1 L437.9,269.9" stroke="#4e4a48" stroke-width="1.1" opacity="0.28"/>
<path d="M134.7,273.4 L171.8,268.6" stroke="#4e4a48" stroke-width="1.4" opacity="0.28"/>
<path d="M85.5,74.8 L157.3,84.7" stroke="#4e4a48" stroke-width="1.5" opacity="0.28"/>
<path d="M323.4,244.2 L395.4,274.2" stroke="#4e4a48" stroke-width="1.8" opacity="0.28"/>
<path d="M189.7,196.4 L237.4,227.2" stroke="#4e4a48" stroke-width="1.4" opacity="0.28"/>
<path d="M158.1,185.9 L198.1,166.5" stroke="#4e4a48" stroke-width="1.1" opacity="0.28"/>
<path d="M23.0,1.1 L56.1,-0.7" stroke="#4e4a48" stroke-width="1.5" opacity="0.28"/><ellipse cx="74.5" cy="26.8" rx="16.1" ry="12.2" fill="#151515" opacity="0.84" transform="rotate(117.3 74.5 26.8)"/>
<ellipse cx="108.6" cy="234.0" rx="12.4" ry="13.3" fill="#151515" opacity="0.97" transform="rotate(123.3 108.6 234.0)"/>
<ellipse cx="37.8" cy="217.9" rx="11.9" ry="10.6" fill="#151515" opacity="0.85" transform="rotate(153.0 37.8 217.9)"/>
<ellipse cx="313.3" cy="234.0" rx="13.9" ry="14.2" fill="#151515" opacity="0.92" transform="rotate(46.5 313.3 234.0)"/>
<ellipse cx="319.2" cy="237.6" rx="8.3" ry="6.9" fill="#151515" opacity="0.95" transform="rotate(120.2 319.2 237.6)"/>
<ellipse cx="317.8" cy="235.9" rx="3.5" ry="1.6" fill="#3f3f3f" opacity=".35"/>
<ellipse cx="222.5" cy="21.1" rx="6.3" ry="5.4" fill="#151515" opacity="0.90" transform="rotate(73.7 222.5 21.1)"/>
<ellipse cx="137.3" cy="104.0" rx="13.8" ry="12.3" fill="#151515" opacity="0.92" transform="rotate(97.8 137.3 104.0)"/>
<ellipse cx="220.8" cy="39.0" rx="13.0" ry="10.5" fill="#151515" opacity="0.89" transform="rotate(72.5 220.8 39.0)"/>
<ellipse cx="214.5" cy="110.1" rx="12.0" ry="15.2" fill="#151515" opacity="0.85" transform="rotate(98.4 214.5 110.1)"/>
<ellipse cx="154.6" cy="60.3" rx="6.9" ry="8.0" fill="#151515" opacity="0.95" transform="rotate(116.5 154.6 60.3)"/>
<ellipse cx="153.2" cy="58.6" rx="2.9" ry="1.8" fill="#3f3f3f" opacity=".35"/>
<ellipse cx="39.1" cy="111.9" rx="12.6" ry="12.7" fill="#151515" opacity="0.89" transform="rotate(152.4 39.1 111.9)"/>
<ellipse cx="242.5" cy="244.3" rx="10.6" ry="9.6" fill="#151515" opacity="0.94" transform="rotate(115.8 242.5 244.3)"/>
<ellipse cx="331.5" cy="156.3" rx="14.0" ry="10.2" fill="#151515" opacity="0.90" transform="rotate(114.2 331.5 156.3)"/>
<ellipse cx="285.1" cy="116.6" rx="6.1" ry="5.6" fill="#151515" opacity="0.97" transform="rotate(63.4 285.1 116.6)"/>
<ellipse cx="283.9" cy="115.2" rx="2.6" ry="1.3" fill="#3f3f3f" opacity=".35"/>
<ellipse cx="114.4" cy="217.7" rx="6.3" ry="6.4" fill="#151515" opacity="0.84" transform="rotate(84.6 114.4 217.7)"/>
<ellipse cx="113.2" cy="216.2" rx="2.7" ry="1.5" fill="#3f3f3f" opacity=".35"/>
<ellipse cx="301.1" cy="230.5" rx="9.1" ry="6.9" fill="#151515" opacity="0.88" transform="rotate(152.8 301.1 230.5)"/>
<ellipse cx="299.6" cy="228.7" rx="3.8" ry="1.6" fill="#3f3f3f" opacity=".35"/>
<ellipse cx="206.1" cy="104.4" rx="7.5" ry="7.3" fill="#151515" opacity="0.89" transform="rotate(44.8 206.1 104.4)"/>
<ellipse cx="204.9" cy="102.9" rx="3.1" ry="1.7" fill="#3f3f3f" opacity=".35"/>
<ellipse cx="40.8" cy="170.7" rx="6.7" ry="8.3" fill="#151515" opacity="0.92" transform="rotate(10.2 40.8 170.7)"/>
<ellipse cx="34.6" cy="129.0" rx="9.0" ry="11.2" fill="#151515" opacity="0.82" transform="rotate(113.8 34.6 129.0)"/>
<ellipse cx="109.0" cy="139.7" rx="11.3" ry="11.9" fill="#151515" opacity="0.96" transform="rotate(147.2 109.0 139.7)"/>
<ellipse cx="106.7" cy="136.9" rx="4.7" ry="2.7" fill="#3f3f3f" opacity=".35"/>
<ellipse cx="264.3" cy="57.0" rx="9.4" ry="9.4" fill="#151515" opacity="0.91" transform="rotate(65.2 264.3 57.0)"/>
<ellipse cx="90.1" cy="81.2" rx="8.7" ry="10.6" fill="#151515" opacity="0.90" transform="rotate(125.4 90.1 81.2)"/>
<ellipse cx="93.5" cy="111.2" rx="15.7" ry="14.8" fill="#151515" opacity="0.88" transform="rotate(118.0 93.5 111.2)"/>
<ellipse cx="91.0" cy="108.2" rx="6.6" ry="3.4" fill="#3f3f3f" opacity=".35"/>
<ellipse cx="34.2" cy="103.7" rx="6.0" ry="6.5" fill="#151515" opacity="0.98" transform="rotate(27.5 34.2 103.7)"/>
<ellipse cx="247.2" cy="138.0" rx="14.1" ry="10.8" fill="#151515" opacity="0.97" transform="rotate(123.6 247.2 138.0)"/>
<ellipse cx="57.8" cy="35.3" rx="11.3" ry="12.4" fill="#151515" opacity="0.97" transform="rotate(163.7 57.8 35.3)"/>
<ellipse cx="301.8" cy="94.0" rx="12.4" ry="12.0" fill="#151515" opacity="0.94" transform="rotate(162.3 301.8 94.0)"/>
<ellipse cx="141.7" cy="82.5" rx="10.1" ry="9.3" fill="#151515" opacity="0.97" transform="rotate(53.7 141.7 82.5)"/>
<ellipse cx="139.7" cy="80.1" rx="4.2" ry="2.1" fill="#3f3f3f" opacity=".35"/>
<ellipse cx="55.9" cy="119.3" rx="7.5" ry="7.0" fill="#151515" opacity="0.90" transform="rotate(74.7 55.9 119.3)"/>
<ellipse cx="136.7" cy="141.2" rx="14.0" ry="14.0" fill="#151515" opacity="0.88" transform="rotate(7.3 136.7 141.2)"/>
<ellipse cx="101.3" cy="46.9" rx="8.9" ry="9.0" fill="#151515" opacity="0.84" transform="rotate(8.8 101.3 46.9)"/>
<ellipse cx="63.4" cy="127.7" rx="13.8" ry="12.3" fill="#151515" opacity="0.83" transform="rotate(61.1 63.4 127.7)"/>
<ellipse cx="241.3" cy="122.9" rx="14.0" ry="11.3" fill="#151515" opacity="0.93" transform="rotate(145.4 241.3 122.9)"/>
<ellipse cx="127.1" cy="18.6" rx="7.2" ry="7.3" fill="#151515" opacity="0.89" transform="rotate(140.1 127.1 18.6)"/>
<ellipse cx="125.6" cy="16.8" rx="3.0" ry="1.7" fill="#3f3f3f" opacity=".35"/>
<ellipse cx="262.4" cy="161.7" rx="7.9" ry="10.4" fill="#151515" opacity="0.91" transform="rotate(54.6 262.4 161.7)"/>
<ellipse cx="260.7" cy="159.7" rx="3.3" ry="2.4" fill="#3f3f3f" opacity=".35"/>
<ellipse cx="375.1" cy="95.3" rx="11.0" ry="11.3" fill="#151515" opacity="0.85" transform="rotate(73.1 375.1 95.3)"/><rect x="314" y="247" width="70" height="6" rx="2" fill="#1d2327" opacity=".78"/><text x="323" y="242" font-family="Arial" font-size="18" fill="#202020">100µm</text></svg>
