<svg xmlns="http://www.w3.org/2000/svg" viewBox="0 0 420 280" role="img">
  <defs>
    <filter id="grain"><feTurbulence type="fractalNoise" baseFrequency="0.85" numOctaves="2" stitchTiles="stitch"/><feColorMatrix type="saturate" values="0.12"/><feComponentTransfer><feFuncA type="table" tableValues="0 0.08"/></feComponentTransfer></filter>
    <radialGradient id="bg" cx="48%" cy="45%" r="75%"><stop offset="0" stop-color="#fbf2f1"/><stop offset="0.7" stop-color="#eadbd7"/><stop offset="1" stop-color="#ddcbc6"/></radialGradient>
    <linearGradient id="pearlite" x1="0" y1="0" x2="1" y2="1"><stop offset="0" stop-color="#7b6b63"/><stop offset="1" stop-color="#b6aaa3"/></linearGradient>
    
  </defs>
  <rect width="420" height="280" fill="url(#bg)"/>
  <rect width="420" height="280" filter="url(#grain)" opacity=".55"/>
<path d="M108.9,173.6 L132.6,189.4" stroke="#756660" stroke-width="1.6" opacity="0.18"/>
<path d="M419.5,73.7 L453.1,53.5" stroke="#756660" stroke-width="0.9" opacity="0.18"/>
<path d="M-28.9,193.7 L16.0,211.9" stroke="#756660" stroke-width="1.5" opacity="0.18"/>
<path d="M120.7,46.7 L160.6,20.9" stroke="#756660" stroke-width="1.4" opacity="0.18"/>
<path d="M47.3,41.6 L124.8,35.7" stroke="#756660" stroke-width="1.7" opacity="0.18"/>
<path d="M410.9,185.9 L449.1,168.4" stroke="#756660" stroke-width="1.0" opacity="0.18"/>
<path d="M298.8,143.3 L336.0,118.5" stroke="#756660" stroke-width="1.1" opacity="0.18"/>
<path d="M140.7,19.4 L181.3,9.0" stroke="#756660" stroke-width="1.2" opacity="0.18"/>
<path d="M187.2,158.4 L260.4,139.6" stroke="#756660" stroke-width="0.8" opacity="0.18"/>
<path d="M99.5,60.5 L159.7,58.7" stroke="#756660" stroke-width="1.1" opacity="0.18"/>
<path d="M3.6,210.3 L65.8,219.7" stroke="#756660" stroke-width="1.5" opacity="0.18"/>
<path d="M353.3,9.8 L391.8,8.5" stroke="#756660" stroke-width="1.5" opacity="0.18"/>
<path d="M191.9,141.4 L234.9,127.5" stroke="#756660" stroke-width="1.7" opacity="0.18"/>
<path d="M412.1,139.9 L460.8,116.2" stroke="#756660" stroke-width="1.4" opacity="0.18"/>
<path d="M57.4,175.2 L101.0,173.4" stroke="#756660" stroke-width="1.7" opacity="0.18"/>
<path d="M103.4,149.8 L149.2,149.0" stroke="#756660" stroke-width="1.7" opacity="0.18"/>
<path d="M186.5,270.1 L237.3,267.2" stroke="#756660" stroke-width="1.4" opacity="0.18"/>
<path d="M190.5,188.1 L227.2,163.4" stroke="#756660" stroke-width="1.2" opacity="0.18"/>
<path d="M-10.4,69.5 L49.4,83.6" stroke="#756660" stroke-width="1.7" opacity="0.18"/>
<path d="M272.1,155.5 L319.4,154.2" stroke="#756660" stroke-width="1.0" opacity="0.18"/>
<path d="M7.2,149.7 L68.7,135.0" stroke="#756660" stroke-width="1.5" opacity="0.18"/>
<path d="M203.8,86.6 L266.9,44.9" stroke="#756660" stroke-width="1.0" opacity="0.18"/>
<path d="M107.7,188.4 L142.7,211.8" stroke="#756660" stroke-width="0.8" opacity="0.18"/>
<path d="M167.0,131.5 L233.6,110.9" stroke="#756660" stroke-width="0.9" opacity="0.18"/>
<path d="M302.3,220.4 L355.4,248.9" stroke="#756660" stroke-width="1.1" opacity="0.18"/>
<path d="M166.6,139.6 L199.0,153.3" stroke="#756660" stroke-width="0.8" opacity="0.18"/>
<path d="M-4.5,254.9 L43.9,232.6" stroke="#756660" stroke-width="1.7" opacity="0.18"/>
<path d="M47.3,126.9 L73.4,114.8" stroke="#756660" stroke-width="1.2" opacity="0.18"/>
<path d="M282.4,36.2 L351.9,48.6" stroke="#756660" stroke-width="1.4" opacity="0.18"/>
<path d="M404.0,134.5 L428.2,119.9" stroke="#756660" stroke-width="1.7" opacity="0.18"/>
<path d="M9.8,76.5 L71.7,95.0" stroke="#756660" stroke-width="1.5" opacity="0.18"/>
<path d="M217.3,91.5 L282.6,48.0" stroke="#756660" stroke-width="1.0" opacity="0.18"/>
<path d="M414.0,52.7 L488.6,62.0" stroke="#756660" stroke-width="1.4" opacity="0.18"/>
<path d="M251.2,125.9 L315.7,87.4" stroke="#756660" stroke-width="1.0" opacity="0.18"/>
<path d="M314.9,206.5 L377.1,221.2" stroke="#756660" stroke-width="1.0" opacity="0.18"/>
<path d="M236.5,159.6 L306.1,135.8" stroke="#756660" stroke-width="1.0" opacity="0.18"/>
<path d="M107.6,57.8 L176.3,57.1" stroke="#756660" stroke-width="0.8" opacity="0.18"/>
<path d="M370.6,146.5 L441.4,168.3" stroke="#756660" stroke-width="1.1" opacity="0.18"/>
<path d="M107.4,153.8 L182.7,182.8" stroke="#756660" stroke-width="1.8" opacity="0.18"/>
<path d="M223.1,152.6 L267.9,155.3" stroke="#756660" stroke-width="1.3" opacity="0.18"/>
<path d="M310.6,234.6 L385.5,211.2" stroke="#756660" stroke-width="1.4" opacity="0.18"/>
<path d="M-9.5,78.7 L41.2,43.3" stroke="#756660" stroke-width="1.6" opacity="0.18"/>
<path d="M207.9,66.9 L257.1,82.6" stroke="#756660" stroke-width="0.8" opacity="0.18"/>
<path d="M379.3,184.1 L432.8,163.0" stroke="#756660" stroke-width="1.4" opacity="0.18"/>
<path d="M62.1,19.5 L136.6,5.7" stroke="#756660" stroke-width="1.5" opacity="0.18"/>
<path d="M182.6,157.6 L228.5,176.5" stroke="#756660" stroke-width="1.6" opacity="0.18"/>
<path d="M138.6,156.0 L176.6,176.9" stroke="#756660" stroke-width="1.2" opacity="0.18"/>
<path d="M236.6,160.9 L269.4,154.1" stroke="#756660" stroke-width="1.6" opacity="0.18"/>
<path d="M231.0,68.6 L264.5,84.8" stroke="#756660" stroke-width="1.6" opacity="0.18"/>
<path d="M366.9,49.5 L425.5,45.1" stroke="#756660" stroke-width="1.2" opacity="0.18"/>
<path d="M126.0,179.5 L178.1,149.5" stroke="#756660" stroke-width="0.7" opacity="0.18"/>
<path d="M41.4,226.9 L115.9,242.7" stroke="#756660" stroke-width="1.1" opacity="0.18"/>
<path d="M204.6,179.4 L236.5,199.4" stroke="#756660" stroke-width="1.7" opacity="0.18"/>
<path d="M-23.7,71.4 L15.5,89.9" stroke="#756660" stroke-width="1.7" opacity="0.18"/>
<path d="M394.1,119.8 L448.6,98.7" stroke="#756660" stroke-width="0.7" opacity="0.18"/>
<path d="M253.4,153.3 L320.5,191.3" stroke="#756660" stroke-width="1.3" opacity="0.18"/>
<path d="M-14.3,159.6 L65.8,157.2" stroke="#756660" stroke-width="1.4" opacity="0.18"/>
<path d="M196.4,125.3 L245.3,108.7" stroke="#756660" stroke-width="1.2" opacity="0.18"/>
<path d="M326.3,207.4 L354.3,197.3" stroke="#756660" stroke-width="0.8" opacity="0.18"/>
<path d="M2.0,2.6 L66.2,-21.8" stroke="#756660" stroke-width="1.4" opacity="0.18"/><ellipse cx="247.3" cy="248.9" rx="4.4" ry="4.6" fill="#151515" opacity="0.88" transform="rotate(133.1 247.3 248.9)"/>
<ellipse cx="394.0" cy="178.8" rx="8.5" ry="8.4" fill="#151515" opacity="0.92" transform="rotate(124.6 394.0 178.8)"/>
<ellipse cx="392.4" cy="176.8" rx="3.6" ry="1.9" fill="#3f3f3f" opacity=".35"/>
<ellipse cx="189.7" cy="193.9" rx="9.2" ry="9.8" fill="#151515" opacity="0.82" transform="rotate(75.0 189.7 193.9)"/>
<ellipse cx="100.9" cy="214.4" rx="7.2" ry="6.4" fill="#151515" opacity="0.90" transform="rotate(33.3 100.9 214.4)"/>
<ellipse cx="237.2" cy="53.8" rx="13.1" ry="10.2" fill="#151515" opacity="0.83" transform="rotate(75.3 237.2 53.8)"/>
<ellipse cx="74.8" cy="32.6" rx="10.8" ry="9.2" fill="#151515" opacity="0.93" transform="rotate(87.8 74.8 32.6)"/>
<ellipse cx="108.7" cy="196.6" rx="11.7" ry="13.0" fill="#151515" opacity="0.83" transform="rotate(82.2 108.7 196.6)"/>
<ellipse cx="132.7" cy="86.5" rx="4.3" ry="5.1" fill="#151515" opacity="0.85" transform="rotate(148.3 132.7 86.5)"/>
<ellipse cx="75.1" cy="41.7" rx="12.9" ry="9.3" fill="#151515" opacity="0.92" transform="rotate(36.7 75.1 41.7)"/>
<ellipse cx="258.6" cy="173.8" rx="7.2" ry="5.7" fill="#151515" opacity="0.95" transform="rotate(43.0 258.6 173.8)"/>
<ellipse cx="314.1" cy="139.0" rx="10.6" ry="9.3" fill="#151515" opacity="0.96" transform="rotate(107.1 314.1 139.0)"/>
<ellipse cx="286.2" cy="87.1" rx="11.8" ry="10.5" fill="#151515" opacity="0.86" transform="rotate(154.3 286.2 87.1)"/>
<ellipse cx="218.5" cy="110.4" rx="6.0" ry="5.9" fill="#151515" opacity="0.88" transform="rotate(15.0 218.5 110.4)"/>
<ellipse cx="217.5" cy="109.2" rx="2.5" ry="1.3" fill="#3f3f3f" opacity=".35"/>
<ellipse cx="157.5" cy="24.7" rx="9.3" ry="8.8" fill="#151515" opacity="0.87" transform="rotate(5.4 157.5 24.7)"/>
<ellipse cx="41.2" cy="41.4" rx="7.5" ry="7.4" fill="#151515" opacity="0.92" transform="rotate(128.4 41.2 41.4)"/>
<ellipse cx="153.1" cy="17.3" rx="7.3" ry="6.6" fill="#151515" opacity="0.85" transform="rotate(20.6 153.1 17.3)"/>
<ellipse cx="287.9" cy="32.0" rx="7.8" ry="6.5" fill="#151515" opacity="0.84" transform="rotate(112.4 287.9 32.0)"/>
<ellipse cx="286.6" cy="30.4" rx="3.3" ry="1.5" fill="#3f3f3f" opacity=".35"/>
<ellipse cx="277.6" cy="184.1" rx="12.3" ry="13.2" fill="#151515" opacity="0.96" transform="rotate(99.0 277.6 184.1)"/>
<ellipse cx="275.5" cy="181.4" rx="5.2" ry="3.0" fill="#3f3f3f" opacity=".35"/>
<ellipse cx="400.5" cy="73.4" rx="10.1" ry="8.2" fill="#151515" opacity="0.95" transform="rotate(96.8 400.5 73.4)"/>
<ellipse cx="220.2" cy="169.5" rx="9.1" ry="8.1" fill="#151515" opacity="0.96" transform="rotate(22.6 220.2 169.5)"/>
<ellipse cx="54.9" cy="79.9" rx="7.5" ry="6.5" fill="#151515" opacity="0.92" transform="rotate(171.3 54.9 79.9)"/>
<ellipse cx="246.3" cy="129.2" rx="9.3" ry="8.9" fill="#151515" opacity="0.90" transform="rotate(134.5 246.3 129.2)"/><path d="M126.3,133.0 Q112.1,136.9 91.6,141.7" stroke="#151515" stroke-width="6" fill="none" stroke-linecap="round" opacity=".9"/>
<path d="M216.8,65.5 Q226.5,60.0 216.1,88.6" stroke="#151515" stroke-width="6" fill="none" stroke-linecap="round" opacity=".9"/>
<path d="M153.8,115.0 Q150.4,138.0 121.4,129.4" stroke="#151515" stroke-width="6" fill="none" stroke-linecap="round" opacity=".9"/>
<path d="M236.1,65.6 Q248.5,58.8 263.5,30.5" stroke="#151515" stroke-width="6" fill="none" stroke-linecap="round" opacity=".9"/>
<path d="M356.1,234.0 Q369.7,238.6 361.5,259.8" stroke="#151515" stroke-width="6" fill="none" stroke-linecap="round" opacity=".9"/>
<path d="M124.3,31.0 Q114.1,55.7 127.7,72.2" stroke="#151515" stroke-width="6" fill="none" stroke-linecap="round" opacity=".9"/>
<path d="M52.0,196.5 Q49.7,181.7 74.0,192.6" stroke="#151515" stroke-width="6" fill="none" stroke-linecap="round" opacity=".9"/>
<path d="M195.7,192.3 Q182.0,188.9 187.0,159.8" stroke="#151515" stroke-width="6" fill="none" stroke-linecap="round" opacity=".9"/>
<path d="M97.1,112.3 Q64.6,133.4 63.9,138.8" stroke="#151515" stroke-width="6" fill="none" stroke-linecap="round" opacity=".9"/>
<path d="M54.1,112.4 Q26.3,128.6 24.6,114.4" stroke="#151515" stroke-width="6" fill="none" stroke-linecap="round" opacity=".9"/>
<path d="M328.8,143.4 Q309.4,149.4 307.4,162.0" stroke="#151515" stroke-width="6" fill="none" stroke-linecap="round" opacity=".9"/>
<path d="M205.7,188.6 Q230.3,185.2 226.3,179.3" stroke="#151515" stroke-width="6" fill="none" stroke-linecap="round" opacity=".9"/>
<path d="M228.1,40.3 Q226.6,52.0 253.2,47.6" stroke="#151515" stroke-width="6" fill="none" stroke-linecap="round" opacity=".9"/>
<path d="M95.2,176.3 Q83.7,190.2 59.2,197.5" stroke="#151515" stroke-width="6" fill="none" stroke-linecap="round" opacity=".9"/>
<path d="M255.2,152.9 Q283.7,158.1 276.5,184.4" stroke="#151515" stroke-width="6" fill="none" stroke-linecap="round" opacity=".9"/>
<path d="M70.9,73.7 Q109.7,57.5 113.4,67.7" stroke="#151515" stroke-width="6" fill="none" stroke-linecap="round" opacity=".9"/>
<path d="M165.8,189.5 Q158.4,187.4 146.1,201.6" stroke="#151515" stroke-width="6" fill="none" stroke-linecap="round" opacity=".9"/>
<path d="M133.8,126.8 Q142.0,107.6 152.4,112.1" stroke="#151515" stroke-width="6" fill="none" stroke-linecap="round" opacity=".9"/>
<path d="M208.3,101.9 Q220.8,94.1 242.9,117.3" stroke="#151515" stroke-width="6" fill="none" stroke-linecap="round" opacity=".9"/>
<path d="M246.4,130.5 Q232.8,119.4 217.9,99.3" stroke="#151515" stroke-width="6" fill="none" stroke-linecap="round" opacity=".9"/>
<path d="M141.4,138.5 Q123.5,125.0 111.9,147.4" stroke="#151515" stroke-width="6" fill="none" stroke-linecap="round" opacity=".9"/>
<path d="M96.3,149.4 Q99.4,157.4 80.2,166.4" stroke="#151515" stroke-width="6" fill="none" stroke-linecap="round" opacity=".9"/>
<path d="M314.0,93.8 Q313.9,96.7 295.3,100.8" stroke="#151515" stroke-width="6" fill="none" stroke-linecap="round" opacity=".9"/>
<path d="M156.6,213.3 Q178.6,195.9 184.3,201.0" stroke="#151515" stroke-width="6" fill="none" stroke-linecap="round" opacity=".9"/>
<path d="M262.2,166.0 Q251.0,158.1 247.4,132.6" stroke="#151515" stroke-width="6" fill="none" stroke-linecap="round" opacity=".9"/>
<path d="M247.2,196.2 Q231.9,173.8 214.4,171.2" stroke="#151515" stroke-width="6" fill="none" stroke-linecap="round" opacity=".9"/>
<path d="M55.8,130.1 Q43.9,155.3 32.3,154.5" stroke="#151515" stroke-width="6" fill="none" stroke-linecap="round" opacity=".9"/>
<path d="M347.9,221.3 Q363.6,244.6 353.5,244.3" stroke="#151515" stroke-width="6" fill="none" stroke-linecap="round" opacity=".9"/><rect x="314" y="247" width="70" height="6" rx="2" fill="#1d2327" opacity=".78"/><text x="323" y="242" font-family="Arial" font-size="18" fill="#202020">100µm</text></svg>
