<svg xmlns="http://www.w3.org/2000/svg" viewBox="0 0 420 280" role="img">
  <defs>
    <filter id="grain"><feTurbulence type="fractalNoise" baseFrequency="0.85" numOctaves="2" stitchTiles="stitch"/><feColorMatrix type="saturate" values="0.12"/><feComponentTransfer><feFuncA type="table" tableValues="0 0.08"/></feComponentTransfer></filter>
    <radialGradient id="bg" cx="48%" cy="45%" r="75%"><stop offset="0" stop-color="#fbf2f1"/><stop offset="0.7" stop-color="#eadbd7"/><stop offset="1" stop-color="#ddcbc6"/></radialGradient>
    <linearGradient id="pearlite" x1="0" y1="0" x2="1" y2="1"><stop offset="0" stop-color="#7b6b63"/><stop offset="1" stop-color="#b6aaa3"/></linearGradient>
    
  </defs>
  <rect width="420" height="280" fill="url(#bg)"/>
  <rect width="420" height="280" filter="url(#grain)" opacity=".55"/>
<g opacity=".58">
  <path d="M42 18 C110 54 151 34 212 69 C273 104 346 52 402 101 L402 0 L42 0 Z" fill="#f8f2ef"/>
  <path d="M0 152 C74 115 114 171 188 132 C264 92 312 148 420 116 L420 280 L0 280 Z" fill="#b0a199" opacity=".42"/>
</g><path d="M194.6,167.2 L233.5,189.7" stroke="#514b49" stroke-width="1.5" opacity="0.26"/>
<path d="M310.1,128.3 L381.8,149.3" stroke="#514b49" stroke-width="1.4" opacity="0.26"/>
<path d="M8.8,126.0 L90.9,131.9" stroke="#514b49" stroke-width="1.1" opacity="0.26"/>
<path d="M249.0,39.8 L292.8,55.3" stroke="#514b49" stroke-width="1.2" opacity="0.26"/>
<path d="M138.1,272.6 L195.2,269.2" stroke="#514b49" stroke-width="0.8" opacity="0.26"/>
<path d="M234.2,138.3 L272.0,160.3" stroke="#514b49" stroke-width="1.4" opacity="0.26"/>
<path d="M208.2,241.2 L250.1,268.9" stroke="#514b49" stroke-width="1.5" opacity="0.26"/>
<path d="M136.0,127.6 L217.5,138.4" stroke="#514b49" stroke-width="0.7" opacity="0.26"/>
<path d="M352.0,116.0 L396.8,115.2" stroke="#514b49" stroke-width="0.9" opacity="0.26"/>
<path d="M266.6,173.3 L320.4,172.0" stroke="#514b49" stroke-width="1.1" opacity="0.26"/>
<path d="M278.7,233.4 L309.1,238.3" stroke="#514b49" stroke-width="1.6" opacity="0.26"/>
<path d="M416.0,217.5 L496.2,231.2" stroke="#514b49" stroke-width="1.6" opacity="0.26"/>
<path d="M299.7,70.3 L367.1,80.2" stroke="#514b49" stroke-width="1.3" opacity="0.26"/>
<path d="M69.9,264.0 L138.8,289.1" stroke="#514b49" stroke-width="1.0" opacity="0.26"/>
<path d="M38.0,51.6 L86.4,42.0" stroke="#514b49" stroke-width="1.5" opacity="0.26"/>
<path d="M143.7,278.5 L174.5,274.6" stroke="#514b49" stroke-width="1.7" opacity="0.26"/>
<path d="M190.7,188.1 L265.2,200.5" stroke="#514b49" stroke-width="0.9" opacity="0.26"/>
<path d="M-16.6,274.4 L34.5,275.5" stroke="#514b49" stroke-width="0.8" opacity="0.26"/>
<path d="M192.4,99.0 L228.7,107.1" stroke="#514b49" stroke-width="1.4" opacity="0.26"/>
<path d="M239.4,233.0 L314.3,267.0" stroke="#514b49" stroke-width="0.8" opacity="0.26"/>
<path d="M201.1,186.5 L278.9,190.4" stroke="#514b49" stroke-width="1.2" opacity="0.26"/>
<path d="M92.9,63.3 L155.0,21.7" stroke="#514b49" stroke-width="1.5" opacity="0.26"/>
<path d="M408.5,15.1 L445.4,5.0" stroke="#514b49" stroke-width="1.6" opacity="0.26"/>
<path d="M334.9,257.1 L397.0,258.7" stroke="#514b49" stroke-width="1.2" opacity="0.26"/>
<path d="M216.6,205.5 L255.6,226.5" stroke="#514b49" stroke-width="0.9" opacity="0.26"/>
<path d="M409.9,131.4 L436.5,117.4" stroke="#514b49" stroke-width="1.4" opacity="0.26"/>
<path d="M378.1,24.2 L406.8,18.3" stroke="#514b49" stroke-width="1.6" opacity="0.26"/>
<path d="M50.0,112.0 L85.4,87.4" stroke="#514b49" stroke-width="0.8" opacity="0.26"/>
<path d="M121.4,175.8 L187.5,188.9" stroke="#514b49" stroke-width="1.7" opacity="0.26"/>
<path d="M230.9,178.9 L297.0,163.7" stroke="#514b49" stroke-width="1.8" opacity="0.26"/>
<path d="M20.0,252.3 L71.4,234.6" stroke="#514b49" stroke-width="1.1" opacity="0.26"/>
<path d="M219.6,45.9 L250.5,36.7" stroke="#514b49" stroke-width="1.8" opacity="0.26"/>
<path d="M309.7,98.3 L373.1,75.6" stroke="#514b49" stroke-width="0.8" opacity="0.26"/>
<path d="M165.4,97.4 L238.0,58.2" stroke="#514b49" stroke-width="1.5" opacity="0.26"/>
<path d="M4.7,264.3 L64.0,301.4" stroke="#514b49" stroke-width="1.4" opacity="0.26"/>
<path d="M16.6,264.1 L95.0,283.5" stroke="#514b49" stroke-width="1.5" opacity="0.26"/>
<path d="M275.7,120.4 L317.2,107.3" stroke="#514b49" stroke-width="1.3" opacity="0.26"/>
<path d="M95.9,176.5 L134.0,154.6" stroke="#514b49" stroke-width="1.6" opacity="0.26"/>
<path d="M245.2,153.5 L303.5,188.5" stroke="#514b49" stroke-width="1.3" opacity="0.26"/>
<path d="M107.8,274.8 L141.1,274.2" stroke="#514b49" stroke-width="1.4" opacity="0.26"/>
<path d="M58.4,82.5 L130.9,122.6" stroke="#514b49" stroke-width="0.9" opacity="0.26"/>
<path d="M315.8,263.3 L372.0,289.4" stroke="#514b49" stroke-width="0.9" opacity="0.26"/>
<path d="M101.1,27.7 L155.5,39.5" stroke="#514b49" stroke-width="1.0" opacity="0.26"/>
<path d="M100.1,193.4 L169.6,224.3" stroke="#514b49" stroke-width="1.3" opacity="0.26"/>
<path d="M-12.6,133.1 L20.0,145.8" stroke="#514b49" stroke-width="0.8" opacity="0.26"/>
<path d="M361.6,23.6 L410.4,29.5" stroke="#514b49" stroke-width="1.3" opacity="0.26"/>
<path d="M125.1,4.2 L173.6,13.9" stroke="#514b49" stroke-width="1.2" opacity="0.26"/>
<path d="M395.0,176.0 L439.3,147.4" stroke="#514b49" stroke-width="0.8" opacity="0.26"/>
<path d="M86.1,248.9 L165.5,244.8" stroke="#514b49" stroke-width="1.0" opacity="0.26"/>
<path d="M58.1,152.3 L117.2,135.9" stroke="#514b49" stroke-width="1.5" opacity="0.26"/>
<path d="M154.8,60.4 L189.3,68.5" stroke="#514b49" stroke-width="1.5" opacity="0.26"/>
<path d="M394.9,101.3 L434.6,120.3" stroke="#514b49" stroke-width="1.0" opacity="0.26"/>
<path d="M135.2,194.7 L170.0,187.9" stroke="#514b49" stroke-width="0.8" opacity="0.26"/>
<path d="M399.6,168.1 L472.1,147.3" stroke="#514b49" stroke-width="1.5" opacity="0.26"/>
<path d="M219.2,144.6 L280.4,123.2" stroke="#514b49" stroke-width="1.4" opacity="0.26"/>
<path d="M239.0,18.6 L282.7,8.0" stroke="#514b49" stroke-width="1.0" opacity="0.26"/>
<path d="M385.2,4.5 L438.8,13.5" stroke="#514b49" stroke-width="1.8" opacity="0.26"/>
<path d="M164.9,27.2 L227.6,25.9" stroke="#514b49" stroke-width="0.7" opacity="0.26"/>
<path d="M-14.5,114.5 L31.2,146.4" stroke="#514b49" stroke-width="0.8" opacity="0.26"/>
<path d="M14.5,63.0 L78.5,80.7" stroke="#514b49" stroke-width="0.9" opacity="0.26"/>
<path d="M60.2,259.6 L90.2,263.6" stroke="#514b49" stroke-width="1.5" opacity="0.26"/>
<path d="M101.5,256.9 L171.9,273.1" stroke="#514b49" stroke-width="0.8" opacity="0.26"/>
<path d="M91.9,128.8 L152.9,159.8" stroke="#514b49" stroke-width="0.7" opacity="0.26"/>
<path d="M216.6,241.1 L272.5,270.3" stroke="#514b49" stroke-width="1.8" opacity="0.26"/>
<path d="M-35.1,279.4 L11.0,278.6" stroke="#514b49" stroke-width="0.8" opacity="0.26"/>
<path d="M163.9,25.7 L191.1,9.4" stroke="#514b49" stroke-width="1.1" opacity="0.26"/>
<path d="M354.4,158.0 L407.7,142.6" stroke="#514b49" stroke-width="1.2" opacity="0.26"/>
<path d="M44.0,69.8 L110.3,44.2" stroke="#514b49" stroke-width="0.7" opacity="0.26"/>
<path d="M174.6,64.6 L205.5,50.5" stroke="#514b49" stroke-width="0.8" opacity="0.26"/>
<path d="M95.3,195.0 L144.9,160.9" stroke="#514b49" stroke-width="1.6" opacity="0.26"/>
<path d="M415.3,68.3 L447.7,67.0" stroke="#514b49" stroke-width="1.8" opacity="0.26"/>
<path d="M328.2,10.6 L376.4,42.9" stroke="#514b49" stroke-width="1.3" opacity="0.26"/>
<path d="M245.2,114.8 L282.7,99.3" stroke="#514b49" stroke-width="1.6" opacity="0.26"/>
<path d="M140.8,246.4 L213.9,250.1" stroke="#514b49" stroke-width="1.6" opacity="0.26"/>
<path d="M163.7,30.9 L231.5,8.5" stroke="#514b49" stroke-width="1.6" opacity="0.26"/>
<path d="M307.0,113.6 L389.2,127.2" stroke="#514b49" stroke-width="0.8" opacity="0.26"/>
<path d="M46.3,200.8 L125.9,202.4" stroke="#514b49" stroke-width="1.2" opacity="0.26"/>
<path d="M115.0,100.7 L143.4,97.3" stroke="#514b49" stroke-width="1.4" opacity="0.26"/>
<path d="M353.2,255.8 L427.0,243.6" stroke="#514b49" stroke-width="1.6" opacity="0.26"/>
<path d="M204.4,84.6 L271.3,83.0" stroke="#514b49" stroke-width="0.7" opacity="0.26"/>
<path d="M-25.0,191.6 L52.8,166.7" stroke="#514b49" stroke-width="1.3" opacity="0.26"/>
<path d="M419.0,116.3 L459.7,109.0" stroke="#514b49" stroke-width="1.4" opacity="0.26"/>
<path d="M286.4,159.2 L337.4,125.1" stroke="#514b49" stroke-width="0.9" opacity="0.26"/>
<path d="M11.4,126.8 L47.2,151.2" stroke="#514b49" stroke-width="0.8" opacity="0.26"/>
<path d="M204.2,58.2 L256.3,82.3" stroke="#514b49" stroke-width="1.4" opacity="0.26"/>
<path d="M-13.8,175.7 L37.4,206.1" stroke="#514b49" stroke-width="1.3" opacity="0.26"/>
<path d="M184.0,191.3 L216.1,198.2" stroke="#514b49" stroke-width="1.0" opacity="0.26"/>
<path d="M35.1,210.5 L105.3,207.0" stroke="#514b49" stroke-width="1.8" opacity="0.26"/>
<path d="M-26.8,194.8 L9.2,203.1" stroke="#514b49" stroke-width="0.9" opacity="0.26"/>
<path d="M88.1,146.7 L138.4,158.6" stroke="#514b49" stroke-width="1.0" opacity="0.26"/>
<path d="M88.0,114.6 L166.7,120.5" stroke="#514b49" stroke-width="1.8" opacity="0.26"/>
<path d="M347.4,124.8 L406.0,100.1" stroke="#514b49" stroke-width="1.3" opacity="0.26"/>
<path d="M10.2,206.1 L69.0,227.7" stroke="#514b49" stroke-width="1.7" opacity="0.26"/>
<path d="M376.5,193.1 L405.1,180.5" stroke="#514b49" stroke-width="0.9" opacity="0.26"/>
<path d="M73.5,103.5 L132.6,85.1" stroke="#514b49" stroke-width="1.7" opacity="0.26"/>
<path d="M271.6,39.5 L329.5,52.7" stroke="#514b49" stroke-width="0.7" opacity="0.26"/>
<path d="M326.4,181.3 L358.2,201.7" stroke="#514b49" stroke-width="1.3" opacity="0.26"/>
<path d="M297.9,151.9 L381.0,148.5" stroke="#514b49" stroke-width="1.3" opacity="0.26"/>
<path d="M414.5,116.9 L465.7,95.8" stroke="#514b49" stroke-width="0.8" opacity="0.26"/>
<path d="M34.6,161.3 L93.4,121.5" stroke="#514b49" stroke-width="0.9" opacity="0.26"/>
<path d="M314.0,116.7 L345.0,137.0" stroke="#514b49" stroke-width="1.8" opacity="0.26"/>
<path d="M229.5,14.7 L290.7,29.6" stroke="#514b49" stroke-width="0.7" opacity="0.26"/>
<path d="M409.9,147.8 L440.7,153.0" stroke="#514b49" stroke-width="1.3" opacity="0.26"/>
<path d="M124.8,70.7 L156.7,51.1" stroke="#514b49" stroke-width="1.0" opacity="0.26"/>
<path d="M386.7,65.8 L417.5,61.3" stroke="#514b49" stroke-width="1.4" opacity="0.26"/>
<path d="M376.9,163.4 L433.3,189.4" stroke="#514b49" stroke-width="1.1" opacity="0.26"/>
<path d="M-8.6,118.9 L32.2,116.7" stroke="#514b49" stroke-width="1.6" opacity="0.26"/>
<path d="M325.7,12.9 L381.1,26.6" stroke="#514b49" stroke-width="1.0" opacity="0.26"/>
<path d="M396.0,214.8 L423.7,224.1" stroke="#514b49" stroke-width="0.8" opacity="0.26"/>
<path d="M349.7,214.7 L422.4,218.9" stroke="#514b49" stroke-width="1.4" opacity="0.26"/><rect x="314" y="247" width="70" height="6" rx="2" fill="#1d2327" opacity=".78"/><text x="323" y="242" font-family="Arial" font-size="18" fill="#202020">100µm</text></svg>
