<svg xmlns="http://www.w3.org/2000/svg" viewBox="0 0 420 280" role="img">
  <defs>
    <filter id="grain"><feTurbulence type="fractalNoise" baseFrequency="0.85" numOctaves="2" stitchTiles="stitch"/><feColorMatrix type="saturate" values="0.12"/><feComponentTransfer><feFuncA type="table" tableValues="0 0.08"/></feComponentTransfer></filter>
    <radialGradient id="bg" cx="48%" cy="45%" r="75%"><stop offset="0" stop-color="#fbf2f1"/><stop offset="0.7" stop-color="#eadbd7"/><stop offset="1" stop-color="#ddcbc6"/></radialGradient>
    <linearGradient id="pearlite" x1="0" y1="0" x2="1" y2="1"><stop offset="0" stop-color="#7b6b63"/><stop offset="1" stop-color="#b6aaa3"/></linearGradient>
    
  </defs>
  <rect width="420" height="280" fill="url(#bg)"/>
  <rect width="420" height="280" filter="url(#grain)" opacity=".55"/>
<path d="M-34.4,31.5 L14.4,42.6" stroke="#594f4b" stroke-width="0.9" opacity="0.24"/>
<path d="M11.7,64.9 L75.7,35.5" stroke="#594f4b" stroke-width="1.5" opacity="0.24"/>
<path d="M264.6,38.2 L322.5,34.5" stroke="#594f4b" stroke-width="1.2" opacity="0.24"/>
<path d="M418.3,26.1 L443.4,41.0" stroke="#594f4b" stroke-width="1.1" opacity="0.24"/>
<path d="M51.3,92.5 L92.4,118.1" stroke="#594f4b" stroke-width="0.9" opacity="0.24"/>
<path d="M59.8,163.8 L109.7,194.6" stroke="#594f4b" stroke-width="1.6" opacity="0.24"/>
<path d="M123.5,57.1 L185.4,99.2" stroke="#594f4b" stroke-width="0.7" opacity="0.24"/>
<path d="M298.1,243.1 L358.8,221.4" stroke="#594f4b" stroke-width="1.6" opacity="0.24"/>
<path d="M295.7,54.3 L355.9,32.8" stroke="#594f4b" stroke-width="0.7" opacity="0.24"/>
<path d="M114.6,93.6 L163.9,102.6" stroke="#594f4b" stroke-width="1.6" opacity="0.24"/>
<path d="M402.2,273.4 L480.7,302.4" stroke="#594f4b" stroke-width="1.0" opacity="0.24"/>
<path d="M41.1,174.7 L98.3,187.0" stroke="#594f4b" stroke-width="0.8" opacity="0.24"/>
<path d="M48.7,257.9 L108.6,272.5" stroke="#594f4b" stroke-width="0.8" opacity="0.24"/>
<path d="M143.6,254.8 L196.7,291.2" stroke="#594f4b" stroke-width="0.9" opacity="0.24"/>
<path d="M169.2,224.2 L218.8,242.4" stroke="#594f4b" stroke-width="1.3" opacity="0.24"/>
<path d="M14.3,27.7 L88.5,-9.6" stroke="#594f4b" stroke-width="0.9" opacity="0.24"/>
<path d="M114.2,199.8 L190.0,197.5" stroke="#594f4b" stroke-width="1.2" opacity="0.24"/>
<path d="M322.7,77.8 L371.1,84.5" stroke="#594f4b" stroke-width="1.4" opacity="0.24"/>
<path d="M-22.5,31.4 L11.9,41.1" stroke="#594f4b" stroke-width="1.5" opacity="0.24"/>
<path d="M407.7,214.9 L447.7,228.4" stroke="#594f4b" stroke-width="1.8" opacity="0.24"/>
<path d="M120.4,3.1 L167.7,-9.7" stroke="#594f4b" stroke-width="0.9" opacity="0.24"/>
<path d="M-19.3,35.0 L45.9,-5.0" stroke="#594f4b" stroke-width="1.4" opacity="0.24"/>
<path d="M55.0,54.1 L126.7,36.1" stroke="#594f4b" stroke-width="0.9" opacity="0.24"/>
<path d="M169.2,194.6 L221.1,219.0" stroke="#594f4b" stroke-width="1.1" opacity="0.24"/>
<path d="M201.1,200.8 L253.0,214.9" stroke="#594f4b" stroke-width="1.2" opacity="0.24"/>
<path d="M21.5,34.6 L90.1,55.7" stroke="#594f4b" stroke-width="1.7" opacity="0.24"/>
<path d="M277.5,162.3 L311.3,177.9" stroke="#594f4b" stroke-width="0.8" opacity="0.24"/>
<path d="M155.4,39.4 L203.4,27.9" stroke="#594f4b" stroke-width="1.2" opacity="0.24"/>
<path d="M287.1,151.6 L326.3,165.5" stroke="#594f4b" stroke-width="1.5" opacity="0.24"/>
<path d="M340.5,9.2 L395.8,38.2" stroke="#594f4b" stroke-width="1.0" opacity="0.24"/>
<path d="M53.0,227.9 L101.0,222.1" stroke="#594f4b" stroke-width="1.6" opacity="0.24"/>
<path d="M136.7,55.6 L176.0,48.1" stroke="#594f4b" stroke-width="1.5" opacity="0.24"/>
<path d="M129.4,215.9 L159.6,206.3" stroke="#594f4b" stroke-width="1.4" opacity="0.24"/>
<path d="M180.6,140.0 L258.0,118.4" stroke="#594f4b" stroke-width="0.9" opacity="0.24"/>
<path d="M-24.5,135.1 L20.1,133.7" stroke="#594f4b" stroke-width="0.7" opacity="0.24"/>
<path d="M-39.9,106.3 L28.4,89.3" stroke="#594f4b" stroke-width="1.7" opacity="0.24"/>
<path d="M226.5,113.0 L294.3,90.1" stroke="#594f4b" stroke-width="1.4" opacity="0.24"/>
<path d="M349.4,151.5 L389.8,129.7" stroke="#594f4b" stroke-width="1.3" opacity="0.24"/>
<path d="M46.3,104.5 L96.4,134.5" stroke="#594f4b" stroke-width="1.4" opacity="0.24"/>
<path d="M198.9,240.3 L243.7,234.1" stroke="#594f4b" stroke-width="1.4" opacity="0.24"/>
<path d="M215.0,62.1 L262.0,81.7" stroke="#594f4b" stroke-width="1.0" opacity="0.24"/>
<path d="M284.7,13.5 L364.1,31.6" stroke="#594f4b" stroke-width="1.1" opacity="0.24"/>
<path d="M412.3,223.0 L442.3,213.5" stroke="#594f4b" stroke-width="1.2" opacity="0.24"/>
<path d="M419.2,39.4 L449.0,32.4" stroke="#594f4b" stroke-width="0.7" opacity="0.24"/>
<path d="M148.1,150.8 L195.8,128.4" stroke="#594f4b" stroke-width="0.7" opacity="0.24"/>
<path d="M329.3,123.2 L384.2,121.7" stroke="#594f4b" stroke-width="1.5" opacity="0.24"/>
<path d="M374.3,231.6 L441.7,218.1" stroke="#594f4b" stroke-width="0.9" opacity="0.24"/>
<path d="M1.3,240.5 L32.4,243.2" stroke="#594f4b" stroke-width="1.7" opacity="0.24"/>
<path d="M108.2,109.0 L152.2,135.5" stroke="#594f4b" stroke-width="1.5" opacity="0.24"/>
<path d="M345.9,10.9 L414.6,6.8" stroke="#594f4b" stroke-width="1.1" opacity="0.24"/>
<path d="M335.6,205.9 L411.3,228.6" stroke="#594f4b" stroke-width="1.7" opacity="0.24"/>
<path d="M156.9,155.7 L228.8,151.6" stroke="#594f4b" stroke-width="0.9" opacity="0.24"/>
<path d="M229.3,243.9 L298.2,210.0" stroke="#594f4b" stroke-width="1.1" opacity="0.24"/>
<path d="M65.1,95.5 L146.5,87.6" stroke="#594f4b" stroke-width="1.0" opacity="0.24"/>
<path d="M85.4,123.3 L149.7,110.8" stroke="#594f4b" stroke-width="0.9" opacity="0.24"/>
<path d="M64.0,72.8 L136.4,41.8" stroke="#594f4b" stroke-width="1.5" opacity="0.24"/>
<path d="M9.8,220.1 L50.2,234.4" stroke="#594f4b" stroke-width="1.2" opacity="0.24"/>
<path d="M-4.0,26.5 L68.7,30.2" stroke="#594f4b" stroke-width="1.2" opacity="0.24"/>
<path d="M122.0,193.6 L169.3,165.5" stroke="#594f4b" stroke-width="1.4" opacity="0.24"/>
<path d="M104.3,237.1 L159.8,256.4" stroke="#594f4b" stroke-width="0.8" opacity="0.24"/>
<path d="M285.3,170.9 L352.7,205.2" stroke="#594f4b" stroke-width="1.3" opacity="0.24"/>
<path d="M232.4,214.8 L275.1,217.1" stroke="#594f4b" stroke-width="1.6" opacity="0.24"/>
<path d="M233.5,151.9 L296.9,193.5" stroke="#594f4b" stroke-width="1.0" opacity="0.24"/>
<path d="M-5.6,171.8 L24.9,191.5" stroke="#594f4b" stroke-width="1.2" opacity="0.24"/>
<path d="M205.7,228.9 L275.2,196.4" stroke="#594f4b" stroke-width="1.2" opacity="0.24"/>
<path d="M43.0,128.9 L74.8,144.7" stroke="#594f4b" stroke-width="1.1" opacity="0.24"/>
<path d="M139.1,251.3 L211.7,236.6" stroke="#594f4b" stroke-width="1.2" opacity="0.24"/>
<path d="M265.1,52.6 L297.4,67.7" stroke="#594f4b" stroke-width="0.9" opacity="0.24"/>
<path d="M285.6,206.6 L345.6,195.2" stroke="#594f4b" stroke-width="1.6" opacity="0.24"/>
<path d="M321.8,19.9 L399.0,32.9" stroke="#594f4b" stroke-width="1.0" opacity="0.24"/>
<path d="M37.6,27.5 L104.5,57.7" stroke="#594f4b" stroke-width="1.1" opacity="0.24"/>
<path d="M42.8,20.5 L92.4,8.0" stroke="#594f4b" stroke-width="0.8" opacity="0.24"/>
<path d="M96.9,229.9 L128.4,226.2" stroke="#594f4b" stroke-width="1.3" opacity="0.24"/>
<path d="M34.4,10.2 L63.6,-3.4" stroke="#594f4b" stroke-width="1.8" opacity="0.24"/>
<path d="M356.4,197.4 L433.0,180.9" stroke="#594f4b" stroke-width="1.0" opacity="0.24"/>
<path d="M360.1,169.8 L438.7,156.1" stroke="#594f4b" stroke-width="1.2" opacity="0.24"/>
<path d="M290.2,247.1 L325.9,236.4" stroke="#594f4b" stroke-width="0.7" opacity="0.24"/>
<path d="M217.4,258.6 L271.8,233.7" stroke="#594f4b" stroke-width="1.5" opacity="0.24"/>
<path d="M258.9,29.5 L336.6,44.8" stroke="#594f4b" stroke-width="1.2" opacity="0.24"/>
<path d="M118.3,44.9 L171.7,36.1" stroke="#594f4b" stroke-width="1.0" opacity="0.24"/>
<path d="M257.3,185.3 L325.8,229.4" stroke="#594f4b" stroke-width="1.2" opacity="0.24"/>
<path d="M289.4,105.0 L341.5,109.3" stroke="#594f4b" stroke-width="1.8" opacity="0.24"/>
<path d="M-20.7,129.6 L22.9,146.7" stroke="#594f4b" stroke-width="1.7" opacity="0.24"/>
<path d="M177.1,22.3 L238.1,28.9" stroke="#594f4b" stroke-width="1.4" opacity="0.24"/>
<path d="M317.2,129.7 L372.9,148.6" stroke="#594f4b" stroke-width="0.7" opacity="0.24"/>
<path d="M70.4,192.5 L141.3,235.2" stroke="#594f4b" stroke-width="1.0" opacity="0.24"/>
<path d="M407.2,78.1 L456.0,56.5" stroke="#594f4b" stroke-width="1.4" opacity="0.24"/>
<path d="M140.2,191.8 L213.5,156.0" stroke="#594f4b" stroke-width="1.4" opacity="0.24"/>
<path d="M236.7,76.8 L262.5,92.1" stroke="#594f4b" stroke-width="1.5" opacity="0.24"/>
<path d="M247.6,28.7 L325.4,19.0" stroke="#594f4b" stroke-width="1.2" opacity="0.24"/>
<path d="M215.9,124.9 L297.2,121.6" stroke="#594f4b" stroke-width="1.4" opacity="0.24"/>
<path d="M315.5,261.2 L352.3,253.9" stroke="#594f4b" stroke-width="1.7" opacity="0.24"/>
<path d="M238.8,104.3 L307.9,69.6" stroke="#594f4b" stroke-width="1.0" opacity="0.24"/>
<path d="M-8.2,187.8 L45.5,174.7" stroke="#594f4b" stroke-width="1.2" opacity="0.24"/>
<path d="M76.5,198.6 L146.3,188.4" stroke="#594f4b" stroke-width="1.7" opacity="0.24"/>
<path d="M-19.4,158.4 L13.3,141.9" stroke="#594f4b" stroke-width="1.3" opacity="0.24"/>
<path d="M0.0,20.8 L35.1,15.4" stroke="#594f4b" stroke-width="1.6" opacity="0.24"/>
<path d="M93.0,34.2 L158.7,61.1" stroke="#594f4b" stroke-width="1.8" opacity="0.24"/>
<path d="M-17.4,46.2 L25.7,75.7" stroke="#594f4b" stroke-width="1.3" opacity="0.24"/>
<path d="M366.4,62.8 L419.4,75.1" stroke="#594f4b" stroke-width="0.9" opacity="0.24"/>
<path d="M200.3,231.0 L271.8,248.5" stroke="#594f4b" stroke-width="1.6" opacity="0.24"/>
<path d="M418.2,169.4 L457.7,155.4" stroke="#594f4b" stroke-width="0.8" opacity="0.24"/>
<path d="M382.7,160.0 L438.1,187.1" stroke="#594f4b" stroke-width="1.5" opacity="0.24"/>
<path d="M140.5,164.0 L171.6,154.3" stroke="#594f4b" stroke-width="1.1" opacity="0.24"/>
<path d="M325.5,185.2 L386.8,177.3" stroke="#594f4b" stroke-width="1.1" opacity="0.24"/>
<path d="M136.9,14.0 L179.2,37.1" stroke="#594f4b" stroke-width="1.6" opacity="0.24"/>
<path d="M74.6,139.6 L139.7,114.7" stroke="#594f4b" stroke-width="1.1" opacity="0.24"/>
<path d="M229.8,52.6 L295.5,8.8" stroke="#594f4b" stroke-width="1.7" opacity="0.24"/>
<path d="M267.8,111.3 L307.6,130.5" stroke="#594f4b" stroke-width="1.5" opacity="0.24"/>
<path d="M56.8,88.9 L89.6,94.1" stroke="#594f4b" stroke-width="1.2" opacity="0.24"/><circle cx="97.0" cy="85.0" r="8.7" fill="#fff7ed" opacity=".75" stroke="#d7c3b9" stroke-width="1.2"/>
<ellipse cx="97.0" cy="85.0" rx="5.4" ry="4.7" fill="#151515" opacity="0.94" transform="rotate(18.0 97.0 85.0)"/>
<circle cx="218.7" cy="232.0" r="21.4" fill="#fff7ed" opacity=".75" stroke="#d7c3b9" stroke-width="1.2"/>
<ellipse cx="218.7" cy="232.0" rx="13.2" ry="11.1" fill="#151515" opacity="0.82" transform="rotate(135.9 218.7 232.0)"/>
<ellipse cx="216.6" cy="229.4" rx="5.6" ry="2.5" fill="#3f3f3f" opacity=".35"/>
<circle cx="301.3" cy="214.2" r="7.6" fill="#fff7ed" opacity=".75" stroke="#d7c3b9" stroke-width="1.2"/>
<ellipse cx="301.3" cy="214.2" rx="4.6" ry="4.6" fill="#151515" opacity="0.85" transform="rotate(14.7 301.3 214.2)"/>
<ellipse cx="300.6" cy="213.3" rx="1.9" ry="1.1" fill="#3f3f3f" opacity=".35"/>
<circle cx="63.2" cy="56.3" r="23.7" fill="#fff7ed" opacity=".75" stroke="#d7c3b9" stroke-width="1.2"/>
<ellipse cx="63.2" cy="56.3" rx="11.0" ry="10.9" fill="#151515" opacity="0.83" transform="rotate(63.5 63.2 56.3)"/>
<ellipse cx="60.8" cy="53.5" rx="4.6" ry="2.5" fill="#3f3f3f" opacity=".35"/>
<circle cx="377.4" cy="54.0" r="12.6" fill="#fff7ed" opacity=".75" stroke="#d7c3b9" stroke-width="1.2"/>
<ellipse cx="377.4" cy="54.0" rx="7.6" ry="7.3" fill="#151515" opacity="0.91" transform="rotate(103.6 377.4 54.0)"/>
<circle cx="105.7" cy="92.9" r="17.2" fill="#fff7ed" opacity=".75" stroke="#d7c3b9" stroke-width="1.2"/>
<ellipse cx="105.7" cy="92.9" rx="8.6" ry="9.0" fill="#151515" opacity="0.98" transform="rotate(76.8 105.7 92.9)"/>
<ellipse cx="104.0" cy="90.8" rx="3.6" ry="2.1" fill="#3f3f3f" opacity=".35"/>
<circle cx="331.1" cy="119.4" r="15.3" fill="#fff7ed" opacity=".75" stroke="#d7c3b9" stroke-width="1.2"/>
<ellipse cx="331.1" cy="119.4" rx="9.0" ry="7.2" fill="#151515" opacity="0.83" transform="rotate(119.1 331.1 119.4)"/>
<ellipse cx="329.6" cy="117.6" rx="3.8" ry="1.7" fill="#3f3f3f" opacity=".35"/>
<circle cx="164.9" cy="60.1" r="12.4" fill="#fff7ed" opacity=".75" stroke="#d7c3b9" stroke-width="1.2"/>
<ellipse cx="164.9" cy="60.1" rx="5.8" ry="5.7" fill="#151515" opacity="0.97" transform="rotate(124.0 164.9 60.1)"/>
<circle cx="385.9" cy="215.8" r="15.6" fill="#fff7ed" opacity=".75" stroke="#d7c3b9" stroke-width="1.2"/>
<ellipse cx="385.9" cy="215.8" rx="8.9" ry="8.4" fill="#151515" opacity="0.90" transform="rotate(40.6 385.9 215.8)"/>
<circle cx="93.3" cy="211.4" r="19.4" fill="#fff7ed" opacity=".75" stroke="#d7c3b9" stroke-width="1.2"/>
<ellipse cx="93.3" cy="211.4" rx="10.7" ry="10.8" fill="#151515" opacity="0.95" transform="rotate(116.3 93.3 211.4)"/>
<ellipse cx="91.4" cy="209.1" rx="4.5" ry="2.5" fill="#3f3f3f" opacity=".35"/>
<circle cx="14.6" cy="20.7" r="11.5" fill="#fff7ed" opacity=".75" stroke="#d7c3b9" stroke-width="1.2"/>
<ellipse cx="14.6" cy="20.7" rx="7.3" ry="6.4" fill="#151515" opacity="0.98" transform="rotate(140.5 14.6 20.7)"/>
<circle cx="370.0" cy="122.3" r="23.5" fill="#fff7ed" opacity=".75" stroke="#d7c3b9" stroke-width="1.2"/>
<ellipse cx="370.0" cy="122.3" rx="11.1" ry="11.9" fill="#151515" opacity="0.85" transform="rotate(65.8 370.0 122.3)"/>
<ellipse cx="367.7" cy="119.5" rx="4.7" ry="2.7" fill="#3f3f3f" opacity=".35"/>
<circle cx="393.7" cy="66.3" r="19.3" fill="#fff7ed" opacity=".75" stroke="#d7c3b9" stroke-width="1.2"/>
<ellipse cx="393.7" cy="66.3" rx="11.5" ry="10.6" fill="#151515" opacity="0.90" transform="rotate(163.3 393.7 66.3)"/>
<circle cx="32.6" cy="236.8" r="21.1" fill="#fff7ed" opacity=".75" stroke="#d7c3b9" stroke-width="1.2"/>
<ellipse cx="32.6" cy="236.8" rx="10.4" ry="9.6" fill="#151515" opacity="0.96" transform="rotate(129.9 32.6 236.8)"/>
<circle cx="163.1" cy="44.8" r="20.2" fill="#fff7ed" opacity=".75" stroke="#d7c3b9" stroke-width="1.2"/>
<ellipse cx="163.1" cy="44.8" rx="10.4" ry="12.4" fill="#151515" opacity="0.98" transform="rotate(41.4 163.1 44.8)"/>
<circle cx="366.8" cy="17.3" r="14.9" fill="#fff7ed" opacity=".75" stroke="#d7c3b9" stroke-width="1.2"/>
<ellipse cx="366.8" cy="17.3" rx="9.1" ry="7.4" fill="#151515" opacity="0.91" transform="rotate(23.2 366.8 17.3)"/>
<ellipse cx="365.3" cy="15.6" rx="3.8" ry="1.7" fill="#3f3f3f" opacity=".35"/>
<circle cx="211.1" cy="237.7" r="22.1" fill="#fff7ed" opacity=".75" stroke="#d7c3b9" stroke-width="1.2"/>
<ellipse cx="211.1" cy="237.7" rx="13.6" ry="12.8" fill="#151515" opacity="0.83" transform="rotate(106.1 211.1 237.7)"/>
<circle cx="42.0" cy="59.2" r="15.8" fill="#fff7ed" opacity=".75" stroke="#d7c3b9" stroke-width="1.2"/>
<ellipse cx="42.0" cy="59.2" rx="10.0" ry="9.7" fill="#151515" opacity="0.86" transform="rotate(57.3 42.0 59.2)"/>
<circle cx="88.3" cy="243.8" r="15.9" fill="#fff7ed" opacity=".75" stroke="#d7c3b9" stroke-width="1.2"/>
<ellipse cx="88.3" cy="243.8" rx="9.0" ry="8.2" fill="#151515" opacity="0.82" transform="rotate(91.9 88.3 243.8)"/>
<circle cx="47.9" cy="185.1" r="10.4" fill="#fff7ed" opacity=".75" stroke="#d7c3b9" stroke-width="1.2"/>
<ellipse cx="47.9" cy="185.1" rx="6.5" ry="5.4" fill="#151515" opacity="0.90" transform="rotate(114.6 47.9 185.1)"/>
<circle cx="121.4" cy="62.1" r="9.5" fill="#fff7ed" opacity=".75" stroke="#d7c3b9" stroke-width="1.2"/>
<ellipse cx="121.4" cy="62.1" rx="4.7" ry="4.5" fill="#151515" opacity="0.88" transform="rotate(39.5 121.4 62.1)"/>
<circle cx="390.7" cy="204.9" r="12.8" fill="#fff7ed" opacity=".75" stroke="#d7c3b9" stroke-width="1.2"/>
<ellipse cx="390.7" cy="204.9" rx="6.5" ry="6.1" fill="#151515" opacity="0.91" transform="rotate(85.3 390.7 204.9)"/>
<circle cx="222.3" cy="193.7" r="9.5" fill="#fff7ed" opacity=".75" stroke="#d7c3b9" stroke-width="1.2"/>
<ellipse cx="222.3" cy="193.7" rx="5.1" ry="4.7" fill="#151515" opacity="0.97" transform="rotate(53.3 222.3 193.7)"/>
<circle cx="19.1" cy="120.0" r="18.9" fill="#fff7ed" opacity=".75" stroke="#d7c3b9" stroke-width="1.2"/>
<ellipse cx="19.1" cy="120.0" rx="9.2" ry="11.1" fill="#151515" opacity="0.89" transform="rotate(15.4 19.1 120.0)"/>
<circle cx="251.1" cy="147.2" r="20.7" fill="#fff7ed" opacity=".75" stroke="#d7c3b9" stroke-width="1.2"/>
<ellipse cx="251.1" cy="147.2" rx="9.8" ry="12.8" fill="#151515" opacity="0.87" transform="rotate(94.3 251.1 147.2)"/>
<circle cx="23.3" cy="223.0" r="15.3" fill="#fff7ed" opacity=".75" stroke="#d7c3b9" stroke-width="1.2"/>
<ellipse cx="23.3" cy="223.0" rx="8.4" ry="7.9" fill="#151515" opacity="0.96" transform="rotate(154.8 23.3 223.0)"/>
<circle cx="152.9" cy="43.6" r="22.5" fill="#fff7ed" opacity=".75" stroke="#d7c3b9" stroke-width="1.2"/>
<ellipse cx="152.9" cy="43.6" rx="11.7" ry="12.5" fill="#151515" opacity="0.95" transform="rotate(132.2 152.9 43.6)"/>
<circle cx="274.0" cy="149.1" r="17.4" fill="#fff7ed" opacity=".75" stroke="#d7c3b9" stroke-width="1.2"/>
<ellipse cx="274.0" cy="149.1" rx="8.0" ry="9.5" fill="#151515" opacity="0.86" transform="rotate(13.0 274.0 149.1)"/>
<circle cx="127.2" cy="170.2" r="21.4" fill="#fff7ed" opacity=".75" stroke="#d7c3b9" stroke-width="1.2"/>
<ellipse cx="127.2" cy="170.2" rx="12.2" ry="12.2" fill="#151515" opacity="0.96" transform="rotate(125.2 127.2 170.2)"/>
<ellipse cx="125.1" cy="167.7" rx="5.1" ry="2.8" fill="#3f3f3f" opacity=".35"/>
<circle cx="151.7" cy="112.9" r="17.7" fill="#fff7ed" opacity=".75" stroke="#d7c3b9" stroke-width="1.2"/>
<ellipse cx="151.7" cy="112.9" rx="10.2" ry="8.5" fill="#151515" opacity="0.92" transform="rotate(168.9 151.7 112.9)"/>
<ellipse cx="149.9" cy="110.8" rx="4.3" ry="2.0" fill="#3f3f3f" opacity=".35"/>
<circle cx="289.2" cy="110.5" r="21.6" fill="#fff7ed" opacity=".75" stroke="#d7c3b9" stroke-width="1.2"/>
<ellipse cx="289.2" cy="110.5" rx="12.9" ry="10.1" fill="#151515" opacity="0.85" transform="rotate(179.6 289.2 110.5)"/>
<circle cx="64.4" cy="119.4" r="10.2" fill="#fff7ed" opacity=".75" stroke="#d7c3b9" stroke-width="1.2"/>
<ellipse cx="64.4" cy="119.4" rx="5.7" ry="6.3" fill="#151515" opacity="0.85" transform="rotate(114.4 64.4 119.4)"/>
<circle cx="380.5" cy="44.2" r="16.7" fill="#fff7ed" opacity=".75" stroke="#d7c3b9" stroke-width="1.2"/>
<ellipse cx="380.5" cy="44.2" rx="10.1" ry="9.6" fill="#151515" opacity="0.86" transform="rotate(21.6 380.5 44.2)"/>
<circle cx="151.2" cy="50.7" r="21.6" fill="#fff7ed" opacity=".75" stroke="#d7c3b9" stroke-width="1.2"/>
<ellipse cx="151.2" cy="50.7" rx="12.1" ry="12.2" fill="#151515" opacity="0.88" transform="rotate(74.0 151.2 50.7)"/>
<ellipse cx="149.1" cy="48.1" rx="5.1" ry="2.8" fill="#3f3f3f" opacity=".35"/>
<circle cx="100.8" cy="193.2" r="9.8" fill="#fff7ed" opacity=".75" stroke="#d7c3b9" stroke-width="1.2"/>
<ellipse cx="100.8" cy="193.2" rx="4.7" ry="4.8" fill="#151515" opacity="0.89" transform="rotate(37.8 100.8 193.2)"/>
<ellipse cx="99.8" cy="192.1" rx="2.0" ry="1.1" fill="#3f3f3f" opacity=".35"/>
<circle cx="108.1" cy="146.0" r="19.7" fill="#fff7ed" opacity=".75" stroke="#d7c3b9" stroke-width="1.2"/>
<ellipse cx="108.1" cy="146.0" rx="9.3" ry="10.6" fill="#151515" opacity="0.93" transform="rotate(80.6 108.1 146.0)"/>
<ellipse cx="106.2" cy="143.6" rx="3.9" ry="2.4" fill="#3f3f3f" opacity=".35"/>
<circle cx="121.0" cy="110.1" r="7.9" fill="#fff7ed" opacity=".75" stroke="#d7c3b9" stroke-width="1.2"/>
<ellipse cx="121.0" cy="110.1" rx="3.8" ry="4.2" fill="#151515" opacity="0.90" transform="rotate(11.5 121.0 110.1)"/>
<circle cx="286.7" cy="120.8" r="23.3" fill="#fff7ed" opacity=".75" stroke="#d7c3b9" stroke-width="1.2"/>
<ellipse cx="286.7" cy="120.8" rx="14.2" ry="14.3" fill="#151515" opacity="0.97" transform="rotate(171.3 286.7 120.8)"/>
<circle cx="309.2" cy="93.0" r="23.1" fill="#fff7ed" opacity=".75" stroke="#d7c3b9" stroke-width="1.2"/>
<ellipse cx="309.2" cy="93.0" rx="11.2" ry="12.4" fill="#151515" opacity="0.93" transform="rotate(48.4 309.2 93.0)"/>
<circle cx="28.9" cy="74.5" r="8.8" fill="#fff7ed" opacity=".75" stroke="#d7c3b9" stroke-width="1.2"/>
<ellipse cx="28.9" cy="74.5" rx="5.4" ry="4.1" fill="#151515" opacity="0.84" transform="rotate(71.9 28.9 74.5)"/>
<circle cx="31.1" cy="25.5" r="11.0" fill="#fff7ed" opacity=".75" stroke="#d7c3b9" stroke-width="1.2"/>
<ellipse cx="31.1" cy="25.5" rx="5.7" ry="5.0" fill="#151515" opacity="0.93" transform="rotate(11.2 31.1 25.5)"/>
<ellipse cx="30.0" cy="24.2" rx="2.4" ry="1.2" fill="#3f3f3f" opacity=".35"/>
<circle cx="119.3" cy="33.8" r="8.7" fill="#fff7ed" opacity=".75" stroke="#d7c3b9" stroke-width="1.2"/>
<ellipse cx="119.3" cy="33.8" rx="4.2" ry="4.2" fill="#151515" opacity="0.86" transform="rotate(114.2 119.3 33.8)"/>
<circle cx="18.6" cy="218.3" r="10.9" fill="#fff7ed" opacity=".75" stroke="#d7c3b9" stroke-width="1.2"/>
<ellipse cx="18.6" cy="218.3" rx="6.6" ry="6.7" fill="#151515" opacity="0.93" transform="rotate(77.9 18.6 218.3)"/>
<circle cx="186.6" cy="112.7" r="10.6" fill="#fff7ed" opacity=".75" stroke="#d7c3b9" stroke-width="1.2"/>
<ellipse cx="186.6" cy="112.7" rx="6.7" ry="5.2" fill="#151515" opacity="0.93" transform="rotate(131.5 186.6 112.7)"/>
<circle cx="33.8" cy="51.2" r="17.6" fill="#fff7ed" opacity=".75" stroke="#d7c3b9" stroke-width="1.2"/>
<ellipse cx="33.8" cy="51.2" rx="9.7" ry="9.8" fill="#151515" opacity="0.97" transform="rotate(141.4 33.8 51.2)"/>
<ellipse cx="32.1" cy="49.1" rx="4.1" ry="2.2" fill="#3f3f3f" opacity=".35"/><rect x="314" y="247" width="70" height="6" rx="2" fill="#1d2327" opacity=".78"/><text x="323" y="242" font-family="Arial" font-size="18" fill="#202020">100µm</text></svg>
