<svg xmlns="http://www.w3.org/2000/svg" viewBox="0 0 420 280" role="img">
  <defs>
    <filter id="grain"><feTurbulence type="fractalNoise" baseFrequency="0.85" numOctaves="2" stitchTiles="stitch"/><feColorMatrix type="saturate" values="0.12"/><feComponentTransfer><feFuncA type="table" tableValues="0 0.08"/></feComponentTransfer></filter>
    <radialGradient id="bg" cx="48%" cy="45%" r="75%"><stop offset="0" stop-color="#fbf2f1"/><stop offset="0.7" stop-color="#eadbd7"/><stop offset="1" stop-color="#ddcbc6"/></radialGradient>
    <linearGradient id="pearlite" x1="0" y1="0" x2="1" y2="1"><stop offset="0" stop-color="#7b6b63"/><stop offset="1" stop-color="#b6aaa3"/></linearGradient>
    
  </defs>
  <rect width="420" height="280" fill="url(#bg)"/>
  <rect width="420" height="280" filter="url(#grain)" opacity=".55"/>
<path d="M410.0,15.3 L478.7,13.9" stroke="#9f8e86" stroke-width="1.7" opacity="0.16"/>
<path d="M147.2,257.4 L177.5,278.4" stroke="#9f8e86" stroke-width="1.2" opacity="0.16"/>
<path d="M44.2,96.9 L97.6,62.8" stroke="#9f8e86" stroke-width="1.1" opacity="0.16"/>
<path d="M-34.9,19.4 L0.6,7.3" stroke="#9f8e86" stroke-width="1.0" opacity="0.16"/>
<path d="M317.9,116.5 L385.1,152.0" stroke="#9f8e86" stroke-width="1.7" opacity="0.16"/>
<path d="M395.9,161.2 L454.5,190.7" stroke="#9f8e86" stroke-width="1.3" opacity="0.16"/>
<path d="M25.5,145.7 L78.8,123.7" stroke="#9f8e86" stroke-width="0.8" opacity="0.16"/>
<path d="M44.9,195.3 L117.0,209.2" stroke="#9f8e86" stroke-width="1.2" opacity="0.16"/>
<path d="M-26.9,1.2 L37.7,3.5" stroke="#9f8e86" stroke-width="1.2" opacity="0.16"/>
<path d="M38.9,34.5 L73.1,17.8" stroke="#9f8e86" stroke-width="1.4" opacity="0.16"/>
<path d="M101.3,155.4 L153.2,158.4" stroke="#9f8e86" stroke-width="1.5" opacity="0.16"/>
<path d="M319.0,41.9 L393.3,76.1" stroke="#9f8e86" stroke-width="1.6" opacity="0.16"/>
<path d="M168.4,266.5 L238.2,243.5" stroke="#9f8e86" stroke-width="1.5" opacity="0.16"/>
<path d="M350.6,210.8 L428.9,213.6" stroke="#9f8e86" stroke-width="1.4" opacity="0.16"/>
<path d="M-5.0,185.9 L29.8,195.7" stroke="#9f8e86" stroke-width="1.7" opacity="0.16"/>
<path d="M130.9,19.6 L161.3,20.2" stroke="#9f8e86" stroke-width="0.9" opacity="0.16"/>
<path d="M300.0,170.7 L354.8,182.3" stroke="#9f8e86" stroke-width="0.9" opacity="0.16"/>
<path d="M170.8,12.9 L225.8,33.5" stroke="#9f8e86" stroke-width="0.9" opacity="0.16"/>
<path d="M276.7,278.3 L320.0,262.3" stroke="#9f8e86" stroke-width="1.0" opacity="0.16"/>
<path d="M343.3,22.6 L411.8,2.0" stroke="#9f8e86" stroke-width="1.5" opacity="0.16"/>
<path d="M368.1,237.3 L406.7,239.6" stroke="#9f8e86" stroke-width="1.0" opacity="0.16"/>
<path d="M362.6,82.6 L399.8,78.3" stroke="#9f8e86" stroke-width="0.8" opacity="0.16"/>
<path d="M62.5,196.8 L105.4,179.4" stroke="#9f8e86" stroke-width="1.7" opacity="0.16"/>
<path d="M80.1,222.7 L146.2,227.3" stroke="#9f8e86" stroke-width="1.4" opacity="0.16"/>
<path d="M227.2,235.6 L291.4,216.9" stroke="#9f8e86" stroke-width="1.4" opacity="0.16"/>
<path d="M193.3,258.3 L227.8,256.3" stroke="#9f8e86" stroke-width="1.8" opacity="0.16"/>
<path d="M-8.9,203.7 L68.8,214.1" stroke="#9f8e86" stroke-width="0.8" opacity="0.16"/>
<path d="M317.0,73.7 L369.8,95.3" stroke="#9f8e86" stroke-width="1.0" opacity="0.16"/>
<path d="M72.3,32.7 L114.0,10.6" stroke="#9f8e86" stroke-width="1.5" opacity="0.16"/>
<path d="M341.7,15.6 L395.7,35.7" stroke="#9f8e86" stroke-width="1.6" opacity="0.16"/>
<path d="M81.9,148.4 L148.1,150.1" stroke="#9f8e86" stroke-width="1.8" opacity="0.16"/>
<path d="M378.8,270.4 L408.1,251.2" stroke="#9f8e86" stroke-width="1.3" opacity="0.16"/>
<path d="M226.2,74.4 L265.4,88.6" stroke="#9f8e86" stroke-width="1.6" opacity="0.16"/>
<path d="M-33.8,34.4 L34.2,27.9" stroke="#9f8e86" stroke-width="0.9" opacity="0.16"/>
<path d="M396.6,92.3 L428.8,88.8" stroke="#9f8e86" stroke-width="1.1" opacity="0.16"/>
<path d="M257.4,214.3 L290.0,213.2" stroke="#9f8e86" stroke-width="1.7" opacity="0.16"/>
<path d="M183.7,248.6 L256.8,277.1" stroke="#9f8e86" stroke-width="1.4" opacity="0.16"/>
<path d="M10.7,275.2 L54.3,264.7" stroke="#9f8e86" stroke-width="1.3" opacity="0.16"/>
<path d="M206.1,215.8 L256.8,244.5" stroke="#9f8e86" stroke-width="1.6" opacity="0.16"/>
<path d="M257.4,76.9 L321.1,77.0" stroke="#9f8e86" stroke-width="1.5" opacity="0.16"/>
<path d="M86.3,222.0 L149.0,196.0" stroke="#9f8e86" stroke-width="1.7" opacity="0.16"/>
<path d="M183.2,123.5 L229.6,117.1" stroke="#9f8e86" stroke-width="1.6" opacity="0.16"/>
<path d="M384.2,131.5 L442.0,129.3" stroke="#9f8e86" stroke-width="0.8" opacity="0.16"/>
<path d="M368.9,117.6 L396.8,108.2" stroke="#9f8e86" stroke-width="1.0" opacity="0.16"/>
<path d="M321.4,49.8 L353.8,67.2" stroke="#9f8e86" stroke-width="1.0" opacity="0.16"/>
<path d="M388.2,2.9 L419.1,-8.6" stroke="#9f8e86" stroke-width="1.1" opacity="0.16"/>
<path d="M207.7,92.0 L277.9,134.3" stroke="#9f8e86" stroke-width="1.3" opacity="0.16"/>
<path d="M413.4,241.3 L495.6,250.0" stroke="#9f8e86" stroke-width="0.8" opacity="0.16"/>
<path d="M220.9,13.7 L262.8,42.6" stroke="#9f8e86" stroke-width="1.1" opacity="0.16"/>
<path d="M275.2,266.2 L342.2,256.5" stroke="#9f8e86" stroke-width="1.3" opacity="0.16"/>
<path d="M16.4,219.2 L79.2,205.4" stroke="#9f8e86" stroke-width="1.2" opacity="0.16"/>
<path d="M352.3,13.7 L392.1,20.0" stroke="#9f8e86" stroke-width="1.6" opacity="0.16"/>
<path d="M209.0,176.6 L237.5,179.1" stroke="#9f8e86" stroke-width="1.3" opacity="0.16"/>
<path d="M-6.3,148.2 L35.2,140.3" stroke="#9f8e86" stroke-width="1.6" opacity="0.16"/>
<path d="M344.8,3.5 L377.1,8.9" stroke="#9f8e86" stroke-width="1.7" opacity="0.16"/><path d="M110.0,135.5 Q91.6,143.4 88.3,149.1" stroke="#101010" stroke-width="4.6" fill="none" stroke-linecap="round" opacity=".92"/>
<path d="M170.0,242.6 Q169.6,270.2 162.1,294.4" stroke="#101010" stroke-width="3.3" fill="none" stroke-linecap="round" opacity=".92"/>
<path d="M403.7,112.9 Q361.8,122.4 346.2,141.6" stroke="#101010" stroke-width="3.5" fill="none" stroke-linecap="round" opacity=".92"/>
<path d="M332.7,60.9 Q350.2,90.8 351.7,103.8" stroke="#101010" stroke-width="4.2" fill="none" stroke-linecap="round" opacity=".92"/>
<path d="M90.4,194.9 Q72.7,212.4 56.7,213.8" stroke="#101010" stroke-width="4.8" fill="none" stroke-linecap="round" opacity=".92"/>
<path d="M336.4,210.0 Q319.3,246.8 320.3,264.1" stroke="#101010" stroke-width="3.5" fill="none" stroke-linecap="round" opacity=".92"/>
<path d="M21.3,119.9 Q49.3,123.2 51.6,142.1" stroke="#101010" stroke-width="4.6" fill="none" stroke-linecap="round" opacity=".92"/>
<path d="M229.4,61.1 Q221.4,83.5 234.8,95.5" stroke="#101010" stroke-width="4.0" fill="none" stroke-linecap="round" opacity=".92"/>
<path d="M398.1,210.9 Q382.7,214.0 343.2,211.4" stroke="#101010" stroke-width="3.7" fill="none" stroke-linecap="round" opacity=".92"/>
<path d="M219.3,207.2 Q202.3,213.3 166.3,238.4" stroke="#101010" stroke-width="3.4" fill="none" stroke-linecap="round" opacity=".92"/>
<path d="M49.0,154.6 Q54.7,171.3 40.4,199.0" stroke="#101010" stroke-width="4.1" fill="none" stroke-linecap="round" opacity=".92"/>
<path d="M243.7,69.0 Q274.3,75.1 306.8,79.7" stroke="#101010" stroke-width="3.8" fill="none" stroke-linecap="round" opacity=".92"/>
<path d="M398.0,146.8 Q415.4,163.6 433.9,194.5" stroke="#101010" stroke-width="3.9" fill="none" stroke-linecap="round" opacity=".92"/>
<path d="M179.7,200.5 Q193.8,202.3 182.3,223.7" stroke="#101010" stroke-width="4.0" fill="none" stroke-linecap="round" opacity=".92"/>
<path d="M279.2,187.0 Q292.0,204.7 279.1,231.1" stroke="#101010" stroke-width="4.1" fill="none" stroke-linecap="round" opacity=".92"/>
<path d="M275.7,187.5 Q303.6,184.2 316.1,189.7" stroke="#101010" stroke-width="4.3" fill="none" stroke-linecap="round" opacity=".92"/>
<path d="M400.0,198.6 Q380.1,203.0 366.7,214.6" stroke="#101010" stroke-width="3.8" fill="none" stroke-linecap="round" opacity=".92"/>
<path d="M269.8,177.8 Q282.8,195.3 282.3,219.9" stroke="#101010" stroke-width="3.9" fill="none" stroke-linecap="round" opacity=".92"/>
<path d="M17.1,50.1 Q37.6,59.6 62.9,86.9" stroke="#101010" stroke-width="4.2" fill="none" stroke-linecap="round" opacity=".92"/>
<path d="M143.1,31.2 Q135.2,24.7 113.0,37.9" stroke="#101010" stroke-width="4.7" fill="none" stroke-linecap="round" opacity=".92"/>
<path d="M43.2,131.4 Q16.4,151.4 9.7,158.5" stroke="#101010" stroke-width="3.1" fill="none" stroke-linecap="round" opacity=".92"/>
<path d="M302.9,233.2 Q330.4,232.0 348.6,233.4" stroke="#101010" stroke-width="4.2" fill="none" stroke-linecap="round" opacity=".92"/>
<path d="M320.9,44.7 Q323.1,67.1 301.5,84.9" stroke="#101010" stroke-width="3.9" fill="none" stroke-linecap="round" opacity=".92"/>
<path d="M314.8,56.8 Q311.3,78.1 300.1,113.3" stroke="#101010" stroke-width="3.7" fill="none" stroke-linecap="round" opacity=".92"/>
<path d="M174.7,67.3 Q145.9,73.3 119.5,96.2" stroke="#101010" stroke-width="4.8" fill="none" stroke-linecap="round" opacity=".92"/>
<path d="M60.9,136.6 Q45.2,148.4 20.8,156.1" stroke="#101010" stroke-width="3.6" fill="none" stroke-linecap="round" opacity=".92"/>
<path d="M396.6,208.6 Q395.2,218.7 368.8,229.5" stroke="#101010" stroke-width="2.6" fill="none" stroke-linecap="round" opacity=".92"/>
<path d="M41.2,242.5 Q21.2,245.0 18.5,258.5" stroke="#101010" stroke-width="2.8" fill="none" stroke-linecap="round" opacity=".92"/>
<path d="M333.0,41.1 Q317.2,42.6 299.9,63.8" stroke="#101010" stroke-width="2.4" fill="none" stroke-linecap="round" opacity=".92"/>
<path d="M339.2,89.1 Q346.3,96.0 337.4,110.9" stroke="#101010" stroke-width="2.7" fill="none" stroke-linecap="round" opacity=".92"/>
<path d="M87.4,129.1 Q121.1,139.8 140.2,143.2" stroke="#101010" stroke-width="3.7" fill="none" stroke-linecap="round" opacity=".92"/>
<path d="M164.3,27.3 Q175.0,38.6 175.8,67.4" stroke="#101010" stroke-width="2.8" fill="none" stroke-linecap="round" opacity=".92"/>
<path d="M22.3,131.9 Q19.4,138.9 20.1,152.6" stroke="#101010" stroke-width="2.9" fill="none" stroke-linecap="round" opacity=".92"/>
<path d="M374.1,130.5 Q378.7,141.3 368.6,152.6" stroke="#101010" stroke-width="4.5" fill="none" stroke-linecap="round" opacity=".92"/>
<path d="M342.0,176.5 Q345.2,179.1 347.8,194.9" stroke="#101010" stroke-width="3.6" fill="none" stroke-linecap="round" opacity=".92"/>
<path d="M275.5,193.1 Q251.1,214.4 237.9,231.3" stroke="#101010" stroke-width="3.6" fill="none" stroke-linecap="round" opacity=".92"/>
<path d="M310.8,48.0 Q308.8,52.8 294.2,68.4" stroke="#101010" stroke-width="4.2" fill="none" stroke-linecap="round" opacity=".92"/>
<path d="M317.7,168.7 Q329.7,177.6 356.8,175.8" stroke="#101010" stroke-width="4.6" fill="none" stroke-linecap="round" opacity=".92"/>
<path d="M79.2,28.5 Q54.4,40.3 45.4,34.9" stroke="#101010" stroke-width="4.3" fill="none" stroke-linecap="round" opacity=".92"/>
<path d="M342.7,247.9 Q361.0,260.3 383.1,276.9" stroke="#101010" stroke-width="4.0" fill="none" stroke-linecap="round" opacity=".92"/>
<path d="M152.8,188.2 Q152.5,187.9 167.7,200.7" stroke="#101010" stroke-width="4.2" fill="none" stroke-linecap="round" opacity=".92"/>
<path d="M356.6,41.8 Q369.8,35.2 397.0,42.8" stroke="#101010" stroke-width="4.1" fill="none" stroke-linecap="round" opacity=".92"/>
<path d="M341.1,213.8 Q337.8,231.9 349.7,243.5" stroke="#101010" stroke-width="2.9" fill="none" stroke-linecap="round" opacity=".92"/>
<path d="M313.9,128.2 Q305.6,132.1 273.5,145.4" stroke="#101010" stroke-width="4.1" fill="none" stroke-linecap="round" opacity=".92"/>
<path d="M121.4,22.5 Q139.3,43.2 169.3,55.2" stroke="#101010" stroke-width="4.4" fill="none" stroke-linecap="round" opacity=".92"/>
<path d="M166.5,184.7 Q186.3,179.2 203.1,186.7" stroke="#101010" stroke-width="2.9" fill="none" stroke-linecap="round" opacity=".92"/>
<path d="M174.1,168.1 Q187.0,172.6 196.0,186.1" stroke="#101010" stroke-width="3.7" fill="none" stroke-linecap="round" opacity=".92"/>
<path d="M277.8,90.6 Q235.0,85.0 217.9,96.8" stroke="#101010" stroke-width="2.7" fill="none" stroke-linecap="round" opacity=".92"/>
<path d="M206.6,89.2 Q179.2,85.9 154.3,91.6" stroke="#101010" stroke-width="2.9" fill="none" stroke-linecap="round" opacity=".92"/>
<path d="M370.4,207.4 Q339.4,212.4 311.1,207.5" stroke="#101010" stroke-width="3.2" fill="none" stroke-linecap="round" opacity=".92"/>
<path d="M69.8,179.4 Q69.5,191.8 65.4,214.5" stroke="#101010" stroke-width="2.5" fill="none" stroke-linecap="round" opacity=".92"/>
<path d="M305.2,195.0 Q314.5,220.7 333.1,241.2" stroke="#101010" stroke-width="3.3" fill="none" stroke-linecap="round" opacity=".92"/>
<path d="M305.8,139.5 Q275.9,143.2 267.4,158.5" stroke="#101010" stroke-width="3.7" fill="none" stroke-linecap="round" opacity=".92"/>
<path d="M347.7,231.2 Q366.7,243.3 395.9,265.5" stroke="#101010" stroke-width="2.9" fill="none" stroke-linecap="round" opacity=".92"/>
<path d="M84.6,55.0 Q95.7,85.7 80.5,111.3" stroke="#101010" stroke-width="4.2" fill="none" stroke-linecap="round" opacity=".92"/>
<path d="M378.8,145.9 Q381.3,153.0 387.0,173.6" stroke="#101010" stroke-width="3.7" fill="none" stroke-linecap="round" opacity=".92"/>
<path d="M316.5,95.1 Q321.9,92.0 334.8,101.1" stroke="#101010" stroke-width="3.5" fill="none" stroke-linecap="round" opacity=".92"/>
<path d="M392.7,73.4 Q377.9,97.3 381.9,106.3" stroke="#101010" stroke-width="4.8" fill="none" stroke-linecap="round" opacity=".92"/>
<path d="M20.1,110.4 Q49.6,118.2 75.9,113.7" stroke="#101010" stroke-width="4.7" fill="none" stroke-linecap="round" opacity=".92"/>
<path d="M89.7,233.2 Q66.4,241.0 58.3,266.9" stroke="#101010" stroke-width="3.6" fill="none" stroke-linecap="round" opacity=".92"/>
<path d="M398.1,78.4 Q365.2,79.2 334.0,81.8" stroke="#101010" stroke-width="4.7" fill="none" stroke-linecap="round" opacity=".92"/>
<path d="M24.9,153.2 Q15.6,164.9 6.8,172.0" stroke="#101010" stroke-width="3.3" fill="none" stroke-linecap="round" opacity=".92"/>
<path d="M355.4,209.9 Q345.5,227.9 351.5,228.7" stroke="#101010" stroke-width="4.6" fill="none" stroke-linecap="round" opacity=".92"/>
<path d="M323.7,174.1 Q339.3,203.4 366.6,216.4" stroke="#101010" stroke-width="4.0" fill="none" stroke-linecap="round" opacity=".92"/>
<path d="M128.8,214.6 Q165.6,220.3 178.0,216.4" stroke="#101010" stroke-width="4.2" fill="none" stroke-linecap="round" opacity=".92"/>
<path d="M47.7,23.6 Q26.8,26.8 31.9,38.5" stroke="#101010" stroke-width="3.2" fill="none" stroke-linecap="round" opacity=".92"/>
<path d="M174.9,84.6 Q162.1,93.9 173.6,107.1" stroke="#101010" stroke-width="3.1" fill="none" stroke-linecap="round" opacity=".92"/>
<path d="M49.0,41.1 Q74.5,49.6 99.9,53.3" stroke="#101010" stroke-width="4.6" fill="none" stroke-linecap="round" opacity=".92"/>
<path d="M253.2,200.0 Q268.2,216.6 308.3,220.8" stroke="#101010" stroke-width="3.0" fill="none" stroke-linecap="round" opacity=".92"/>
<path d="M199.8,93.7 Q203.1,112.2 208.2,117.7" stroke="#101010" stroke-width="2.9" fill="none" stroke-linecap="round" opacity=".92"/><rect x="314" y="247" width="70" height="6" rx="2" fill="#1d2327" opacity=".78"/><text x="323" y="242" font-family="Arial" font-size="18" fill="#202020">100µm</text></svg>
