<svg xmlns="http://www.w3.org/2000/svg" viewBox="0 0 420 280" role="img">
  <defs>
    <filter id="grain"><feTurbulence type="fractalNoise" baseFrequency="0.85" numOctaves="2" stitchTiles="stitch"/><feColorMatrix type="saturate" values="0.12"/><feComponentTransfer><feFuncA type="table" tableValues="0 0.08"/></feComponentTransfer></filter>
    <radialGradient id="bg" cx="48%" cy="45%" r="75%"><stop offset="0" stop-color="#fbf2f1"/><stop offset="0.7" stop-color="#eadbd7"/><stop offset="1" stop-color="#ddcbc6"/></radialGradient>
    <linearGradient id="pearlite" x1="0" y1="0" x2="1" y2="1"><stop offset="0" stop-color="#7b6b63"/><stop offset="1" stop-color="#b6aaa3"/></linearGradient>
    
  </defs>
  <rect width="420" height="280" fill="url(#bg)"/>
  <rect width="420" height="280" filter="url(#grain)" opacity=".55"/>
<path d="M254.1,7.0 L295.1,-7.4" stroke="#8c766d" stroke-width="1.5" opacity="0.18"/>
<path d="M271.3,249.8 L304.0,246.7" stroke="#8c766d" stroke-width="0.7" opacity="0.18"/>
<path d="M60.6,141.5 L88.1,130.9" stroke="#8c766d" stroke-width="1.4" opacity="0.18"/>
<path d="M210.7,61.7 L267.4,84.2" stroke="#8c766d" stroke-width="0.7" opacity="0.18"/>
<path d="M330.7,195.5 L373.6,176.3" stroke="#8c766d" stroke-width="1.8" opacity="0.18"/>
<path d="M114.8,26.0 L145.3,39.7" stroke="#8c766d" stroke-width="1.4" opacity="0.18"/>
<path d="M331.3,204.3 L379.9,236.0" stroke="#8c766d" stroke-width="1.1" opacity="0.18"/>
<path d="M213.9,232.2 L270.6,259.0" stroke="#8c766d" stroke-width="1.3" opacity="0.18"/>
<path d="M284.1,12.8 L323.5,2.5" stroke="#8c766d" stroke-width="0.8" opacity="0.18"/>
<path d="M67.1,28.3 L110.1,35.5" stroke="#8c766d" stroke-width="1.1" opacity="0.18"/>
<path d="M130.3,58.7 L167.3,80.5" stroke="#8c766d" stroke-width="1.4" opacity="0.18"/>
<path d="M240.2,47.9 L303.3,20.4" stroke="#8c766d" stroke-width="1.1" opacity="0.18"/>
<path d="M415.2,179.2 L472.9,192.4" stroke="#8c766d" stroke-width="1.6" opacity="0.18"/>
<path d="M317.0,64.1 L346.0,57.5" stroke="#8c766d" stroke-width="1.0" opacity="0.18"/>
<path d="M57.1,264.0 L132.2,246.7" stroke="#8c766d" stroke-width="1.4" opacity="0.18"/>
<path d="M142.0,256.1 L193.5,240.9" stroke="#8c766d" stroke-width="1.0" opacity="0.18"/>
<path d="M218.2,73.6 L271.9,101.9" stroke="#8c766d" stroke-width="1.1" opacity="0.18"/>
<path d="M60.9,279.3 L110.5,252.2" stroke="#8c766d" stroke-width="0.8" opacity="0.18"/>
<path d="M10.4,175.7 L82.5,168.8" stroke="#8c766d" stroke-width="0.8" opacity="0.18"/>
<path d="M135.5,278.9 L183.9,310.3" stroke="#8c766d" stroke-width="1.6" opacity="0.18"/>
<path d="M-34.7,201.8 L31.4,204.8" stroke="#8c766d" stroke-width="1.0" opacity="0.18"/>
<path d="M254.8,31.2 L307.1,28.3" stroke="#8c766d" stroke-width="1.7" opacity="0.18"/>
<path d="M362.9,73.7 L414.7,52.3" stroke="#8c766d" stroke-width="1.7" opacity="0.18"/>
<path d="M360.4,83.6 L423.7,92.0" stroke="#8c766d" stroke-width="0.9" opacity="0.18"/>
<path d="M310.8,151.0 L382.3,153.7" stroke="#8c766d" stroke-width="0.7" opacity="0.18"/>
<path d="M109.1,5.5 L180.7,41.2" stroke="#8c766d" stroke-width="1.6" opacity="0.18"/>
<path d="M101.5,16.2 L167.4,56.3" stroke="#8c766d" stroke-width="0.8" opacity="0.18"/>
<path d="M183.6,19.4 L250.5,41.9" stroke="#8c766d" stroke-width="0.8" opacity="0.18"/>
<path d="M178.6,153.9 L217.1,172.8" stroke="#8c766d" stroke-width="1.2" opacity="0.18"/>
<path d="M57.4,151.0 L121.8,126.4" stroke="#8c766d" stroke-width="1.0" opacity="0.18"/>
<path d="M417.8,182.0 L470.3,183.1" stroke="#8c766d" stroke-width="0.8" opacity="0.18"/>
<path d="M63.4,94.7 L121.0,74.9" stroke="#8c766d" stroke-width="0.9" opacity="0.18"/>
<path d="M-7.3,176.7 L28.6,196.1" stroke="#8c766d" stroke-width="1.6" opacity="0.18"/>
<path d="M-7.4,66.6 L54.1,44.2" stroke="#8c766d" stroke-width="0.8" opacity="0.18"/>
<path d="M390.3,159.9 L441.5,178.5" stroke="#8c766d" stroke-width="1.6" opacity="0.18"/>
<path d="M47.6,27.1 L99.5,22.3" stroke="#8c766d" stroke-width="1.2" opacity="0.18"/>
<path d="M295.4,188.5 L368.7,149.4" stroke="#8c766d" stroke-width="1.1" opacity="0.18"/>
<path d="M116.1,241.3 L155.0,225.8" stroke="#8c766d" stroke-width="1.2" opacity="0.18"/>
<path d="M154.1,78.0 L190.6,98.8" stroke="#8c766d" stroke-width="1.2" opacity="0.18"/>
<path d="M356.2,154.1 L381.5,171.8" stroke="#8c766d" stroke-width="1.6" opacity="0.18"/>
<path d="M405.7,259.4 L475.1,229.4" stroke="#8c766d" stroke-width="1.2" opacity="0.18"/>
<path d="M58.3,112.3 L89.3,107.7" stroke="#8c766d" stroke-width="1.8" opacity="0.18"/>
<path d="M82.0,219.5 L135.2,214.5" stroke="#8c766d" stroke-width="1.8" opacity="0.18"/>
<path d="M417.9,155.6 L480.1,127.7" stroke="#8c766d" stroke-width="1.0" opacity="0.18"/>
<path d="M405.6,162.2 L461.3,179.6" stroke="#8c766d" stroke-width="0.8" opacity="0.18"/>
<path d="M228.7,140.8 L297.9,110.0" stroke="#8c766d" stroke-width="1.8" opacity="0.18"/>
<path d="M-3.1,52.0 L56.8,65.1" stroke="#8c766d" stroke-width="1.0" opacity="0.18"/>
<path d="M15.1,249.3 L56.7,254.1" stroke="#8c766d" stroke-width="1.4" opacity="0.18"/>
<path d="M152.8,163.4 L202.2,192.4" stroke="#8c766d" stroke-width="0.9" opacity="0.18"/>
<path d="M289.4,66.8 L338.5,77.3" stroke="#8c766d" stroke-width="1.0" opacity="0.18"/>
<path d="M105.4,210.5 L137.5,208.9" stroke="#8c766d" stroke-width="1.8" opacity="0.18"/>
<path d="M418.2,20.5 L456.5,9.2" stroke="#8c766d" stroke-width="1.7" opacity="0.18"/>
<path d="M365.2,246.2 L409.7,226.4" stroke="#8c766d" stroke-width="1.6" opacity="0.18"/>
<path d="M283.6,171.3 L365.4,186.8" stroke="#8c766d" stroke-width="0.7" opacity="0.18"/>
<path d="M335.9,83.8 L391.9,117.1" stroke="#8c766d" stroke-width="0.8" opacity="0.18"/>
<path d="M13.1,30.0 L69.8,13.8" stroke="#8c766d" stroke-width="1.4" opacity="0.18"/>
<path d="M290.1,57.0 L351.0,38.9" stroke="#8c766d" stroke-width="1.2" opacity="0.18"/>
<path d="M376.5,236.9 L409.5,233.8" stroke="#8c766d" stroke-width="1.0" opacity="0.18"/>
<path d="M-38.4,215.9 L22.6,197.7" stroke="#8c766d" stroke-width="1.5" opacity="0.18"/>
<path d="M213.8,119.8 L238.6,105.6" stroke="#8c766d" stroke-width="1.7" opacity="0.18"/>
<path d="M375.8,152.8 L450.2,160.3" stroke="#8c766d" stroke-width="0.9" opacity="0.18"/>
<path d="M18.6,86.3 L91.9,114.0" stroke="#8c766d" stroke-width="1.6" opacity="0.18"/>
<path d="M373.5,58.8 L410.6,39.2" stroke="#8c766d" stroke-width="1.6" opacity="0.18"/>
<path d="M366.7,113.8 L424.0,88.1" stroke="#8c766d" stroke-width="1.7" opacity="0.18"/>
<path d="M357.7,273.3 L423.3,306.3" stroke="#8c766d" stroke-width="0.7" opacity="0.18"/>
<path d="M298.8,93.0 L373.5,121.9" stroke="#8c766d" stroke-width="1.7" opacity="0.18"/>
<path d="M332.9,74.7 L396.9,41.5" stroke="#8c766d" stroke-width="1.7" opacity="0.18"/>
<path d="M355.0,62.3 L428.6,58.7" stroke="#8c766d" stroke-width="1.0" opacity="0.18"/>
<path d="M325.9,63.7 L353.1,53.0" stroke="#8c766d" stroke-width="1.1" opacity="0.18"/>
<path d="M357.6,270.7 L400.6,278.2" stroke="#8c766d" stroke-width="1.1" opacity="0.18"/>
<path d="M411.3,150.1 L483.2,113.6" stroke="#8c766d" stroke-width="1.8" opacity="0.18"/>
<path d="M42.1,269.5 L80.2,249.8" stroke="#8c766d" stroke-width="1.2" opacity="0.18"/>
<path d="M295.1,87.8 L357.1,88.7" stroke="#8c766d" stroke-width="1.1" opacity="0.18"/>
<path d="M225.2,71.3 L280.8,32.6" stroke="#8c766d" stroke-width="1.7" opacity="0.18"/>
<path d="M207.7,201.4 L275.7,215.8" stroke="#8c766d" stroke-width="1.1" opacity="0.18"/><path d="M166.0,71.9 C159.5,65.2 197.1,57.7 186.5,49.8 C201.4,35.4 194.9,46.7 181.4,32.1" fill="none" stroke="#161616" stroke-width="8.9" stroke-linecap="round" stroke-linejoin="round" opacity=".92"/>
<path d="M143.0,77.9 C129.0,88.9 125.5,73.9 115.2,82.4 C104.0,87.5 78.7,84.7 90.0,72.3 C76.6,66.9 72.3,52.1 68.7,48.9 C79.1,42.9 28.6,48.4 39.2,43.4" fill="none" stroke="#161616" stroke-width="6.6" stroke-linecap="round" stroke-linejoin="round" opacity=".92"/>
<path d="M270.4,131.0 C283.8,128.0 284.2,132.9 283.3,139.5 C282.2,129.8 305.6,140.5 296.4,134.0 C306.9,144.2 337.1,143.5 322.5,137.3" fill="none" stroke="#161616" stroke-width="8.6" stroke-linecap="round" stroke-linejoin="round" opacity=".92"/>
<path d="M177.9,179.7 C191.8,172.0 151.1,171.4 153.0,164.4 C151.5,178.4 134.5,137.9 141.2,146.6" fill="none" stroke="#161616" stroke-width="7.7" stroke-linecap="round" stroke-linejoin="round" opacity=".92"/>
<path d="M127.5,221.9 C121.3,220.2 132.5,201.5 145.1,199.9 C144.2,192.2 161.4,183.4 146.8,182.0 C135.5,178.5 162.5,170.6 155.8,160.9" fill="none" stroke="#161616" stroke-width="6.8" stroke-linecap="round" stroke-linejoin="round" opacity=".92"/>
<path d="M298.7,63.4 C294.4,53.8 293.9,68.3 287.7,78.7 C300.3,76.1 303.8,115.8 289.7,102.0 C295.5,93.4 309.1,128.0 312.1,115.1" fill="none" stroke="#161616" stroke-width="8.8" stroke-linecap="round" stroke-linejoin="round" opacity=".92"/>
<path d="M130.1,78.3 C123.4,80.9 121.1,57.7 127.0,48.8 C127.0,51.6 125.3,22.1 133.4,31.6 C133.2,44.8 148.3,3.9 138.5,17.2" fill="none" stroke="#161616" stroke-width="8.3" stroke-linecap="round" stroke-linejoin="round" opacity=".92"/>
<path d="M290.1,179.3 C290.0,191.9 300.3,157.2 297.9,159.4 C301.4,156.4 273.6,148.5 287.8,145.7" fill="none" stroke="#161616" stroke-width="6.5" stroke-linecap="round" stroke-linejoin="round" opacity=".92"/>
<path d="M111.4,211.0 C107.9,201.6 131.5,232.6 130.7,230.0 C132.8,236.6 129.0,241.9 138.3,251.5 C147.4,262.1 145.4,284.0 147.2,277.6 C134.2,287.6 181.3,291.3 166.3,286.3" fill="none" stroke="#161616" stroke-width="8.0" stroke-linecap="round" stroke-linejoin="round" opacity=".92"/>
<path d="M162.7,198.9 C161.4,191.8 191.5,190.0 179.1,203.1 C191.8,197.8 178.7,176.2 193.2,189.6" fill="none" stroke="#161616" stroke-width="6.7" stroke-linecap="round" stroke-linejoin="round" opacity=".92"/>
<path d="M329.9,206.7 C323.2,217.2 368.3,211.2 359.9,215.8 C359.1,216.7 399.5,204.0 387.9,204.5" fill="none" stroke="#161616" stroke-width="6.0" stroke-linecap="round" stroke-linejoin="round" opacity=".92"/>
<path d="M278.8,139.8 C287.9,125.5 242.1,133.7 248.8,147.1 C242.3,159.9 225.5,130.7 231.7,137.1 C233.9,126.8 225.5,145.3 214.2,143.9" fill="none" stroke="#161616" stroke-width="7.9" stroke-linecap="round" stroke-linejoin="round" opacity=".92"/>
<path d="M163.3,234.1 C161.8,238.7 175.2,207.9 189.1,216.9 C179.3,214.5 188.1,201.6 200.4,199.6 C204.1,214.1 236.6,205.5 229.8,201.5" fill="none" stroke="#161616" stroke-width="6.8" stroke-linecap="round" stroke-linejoin="round" opacity=".92"/>
<path d="M55.5,221.0 C65.5,235.1 53.1,251.0 65.5,245.5 C62.1,257.4 78.4,275.3 88.9,266.6 C98.3,275.1 116.2,291.0 103.0,293.8 C110.1,296.4 102.7,316.9 115.0,306.6" fill="none" stroke="#161616" stroke-width="7.8" stroke-linecap="round" stroke-linejoin="round" opacity=".92"/>
<path d="M83.8,175.9 C76.9,175.7 59.5,191.2 71.9,190.5 C59.3,199.5 65.2,228.0 72.2,219.4" fill="none" stroke="#161616" stroke-width="8.2" stroke-linecap="round" stroke-linejoin="round" opacity=".92"/>
<path d="M378.5,59.3 C378.3,46.7 391.4,80.8 389.8,67.8 C377.5,82.4 392.4,106.1 396.4,92.6 C409.9,100.0 403.3,101.9 412.7,103.2" fill="none" stroke="#161616" stroke-width="7.2" stroke-linecap="round" stroke-linejoin="round" opacity=".92"/>
<path d="M118.2,69.2 C116.6,81.5 104.0,76.5 95.5,72.7 C81.2,62.3 67.0,87.4 69.0,88.6" fill="none" stroke="#161616" stroke-width="5.6" stroke-linecap="round" stroke-linejoin="round" opacity=".92"/>
<path d="M203.7,231.5 C197.3,224.3 202.3,241.2 210.1,246.2 C222.1,247.0 204.6,270.6 197.1,265.5 C199.9,265.6 166.2,274.0 174.4,286.0" fill="none" stroke="#161616" stroke-width="6.7" stroke-linecap="round" stroke-linejoin="round" opacity=".92"/>
<path d="M175.3,49.4 C172.5,59.5 207.6,46.8 193.7,49.9 C187.4,46.8 217.6,75.2 219.6,65.1" fill="none" stroke="#161616" stroke-width="6.2" stroke-linecap="round" stroke-linejoin="round" opacity=".92"/>
<path d="M356.7,61.7 C359.0,75.3 334.7,73.6 328.7,62.6 C337.5,56.0 304.7,84.1 314.7,83.0 C303.1,92.3 317.9,90.2 317.8,104.6 C304.5,100.3 341.6,124.0 331.4,118.6" fill="none" stroke="#161616" stroke-width="7.1" stroke-linecap="round" stroke-linejoin="round" opacity=".92"/>
<path d="M244.7,243.7 C258.1,256.6 240.2,200.1 249.1,214.8 C236.6,228.4 242.0,202.1 253.2,201.1 C253.5,190.8 274.5,161.9 269.6,175.4" fill="none" stroke="#161616" stroke-width="7.5" stroke-linecap="round" stroke-linejoin="round" opacity=".92"/>
<path d="M59.1,237.3 C49.6,243.7 66.7,226.2 53.4,211.6 C61.7,201.9 74.4,182.1 60.1,196.1 C47.4,209.7 60.9,171.5 48.0,178.7" fill="none" stroke="#161616" stroke-width="8.5" stroke-linecap="round" stroke-linejoin="round" opacity=".92"/>
<path d="M154.5,204.1 C148.3,218.9 126.2,188.9 139.2,190.8 C139.5,188.3 116.5,177.4 125.6,164.8" fill="none" stroke="#161616" stroke-width="7.5" stroke-linecap="round" stroke-linejoin="round" opacity=".92"/>
<path d="M364.4,142.1 C363.0,153.2 389.4,127.4 376.6,119.7 C381.0,133.2 373.6,97.3 373.5,97.9" fill="none" stroke="#161616" stroke-width="5.3" stroke-linecap="round" stroke-linejoin="round" opacity=".92"/>
<path d="M48.8,80.4 C41.6,85.8 29.5,82.4 37.9,68.9 C48.1,73.3 28.8,55.3 25.7,56.9 C34.3,59.9 45.9,14.0 34.7,27.5 C43.5,32.9 52.3,16.4 37.9,9.7" fill="none" stroke="#161616" stroke-width="8.8" stroke-linecap="round" stroke-linejoin="round" opacity=".92"/>
<path d="M383.6,173.5 C369.1,184.4 404.4,159.4 405.5,164.3 C414.3,155.0 436.9,146.2 422.0,158.8" fill="none" stroke="#161616" stroke-width="6.4" stroke-linecap="round" stroke-linejoin="round" opacity=".92"/>
<path d="M394.1,63.2 C403.0,59.9 427.4,57.4 419.7,49.4 C434.3,51.7 449.3,54.5 437.0,54.0" fill="none" stroke="#161616" stroke-width="8.1" stroke-linecap="round" stroke-linejoin="round" opacity=".92"/>
<path d="M248.5,85.5 C244.8,71.8 233.4,64.9 237.3,76.6 C238.2,79.4 224.5,49.2 214.9,61.8 C201.4,66.3 207.7,34.1 213.9,30.1" fill="none" stroke="#161616" stroke-width="9.0" stroke-linecap="round" stroke-linejoin="round" opacity=".92"/>
<path d="M117.6,63.4 C122.4,62.6 109.7,48.3 121.5,46.0 C110.7,38.4 122.8,30.0 110.9,30.2 C100.5,18.3 110.0,17.4 104.0,15.1 C96.5,12.0 103.3,3.6 107.3,-9.2" fill="none" stroke="#161616" stroke-width="7.8" stroke-linecap="round" stroke-linejoin="round" opacity=".92"/>
<path d="M333.0,168.0 C319.2,179.8 311.7,157.9 320.4,159.1 C313.7,170.6 298.9,155.5 308.4,145.6 C305.2,150.9 296.5,124.0 290.4,126.3" fill="none" stroke="#161616" stroke-width="6.2" stroke-linecap="round" stroke-linejoin="round" opacity=".92"/>
<path d="M183.9,187.7 C171.8,184.0 187.6,199.8 189.3,207.9 C188.1,208.4 184.7,207.8 181.0,220.5" fill="none" stroke="#161616" stroke-width="8.4" stroke-linecap="round" stroke-linejoin="round" opacity=".92"/>
<path d="M323.0,156.3 C329.1,144.1 321.0,144.5 313.2,131.0 C310.6,123.2 288.2,117.7 298.3,112.8 C284.0,114.0 297.3,108.7 304.4,97.7 C298.7,95.0 301.9,80.6 303.9,83.3" fill="none" stroke="#161616" stroke-width="6.1" stroke-linecap="round" stroke-linejoin="round" opacity=".92"/>
<path d="M381.4,23.1 C390.1,37.6 399.6,42.9 384.8,39.1 C383.0,33.2 404.8,53.0 394.0,62.9" fill="none" stroke="#161616" stroke-width="6.5" stroke-linecap="round" stroke-linejoin="round" opacity=".92"/>
<path d="M219.1,126.6 C205.0,120.3 253.6,116.7 240.9,109.6 C230.6,109.2 261.3,97.5 258.0,108.8 C270.8,121.0 271.7,119.7 274.7,126.5 C277.7,133.1 288.5,149.8 274.2,149.4" fill="none" stroke="#161616" stroke-width="6.8" stroke-linecap="round" stroke-linejoin="round" opacity=".92"/>
<path d="M342.1,37.2 C350.6,50.5 317.0,61.2 331.6,49.1 C330.8,36.9 326.7,61.8 338.2,69.4 C324.9,57.1 340.3,87.3 334.8,97.4" fill="none" stroke="#161616" stroke-width="8.7" stroke-linecap="round" stroke-linejoin="round" opacity=".92"/>
<path d="M75.1,144.1 C87.2,137.6 87.0,159.4 91.0,154.8 C96.1,163.2 121.5,164.1 118.4,159.8 C105.7,145.4 143.8,171.1 144.8,165.3 C130.4,150.4 161.6,166.4 156.5,179.9" fill="none" stroke="#161616" stroke-width="5.5" stroke-linecap="round" stroke-linejoin="round" opacity=".92"/>
<path d="M388.8,75.8 C393.3,84.6 416.1,70.4 410.6,72.9 C410.7,86.6 426.6,48.3 431.5,54.1" fill="none" stroke="#161616" stroke-width="6.9" stroke-linecap="round" stroke-linejoin="round" opacity=".92"/>
<path d="M390.6,195.3 C396.7,181.8 394.3,160.9 398.1,166.1 C386.1,159.8 427.9,134.7 416.2,148.6 C411.9,152.9 421.0,137.9 430.5,143.7" fill="none" stroke="#161616" stroke-width="6.4" stroke-linecap="round" stroke-linejoin="round" opacity=".92"/>
<path d="M179.4,164.5 C167.6,176.6 198.4,183.3 183.9,182.5 C170.6,172.8 195.3,184.5 185.1,197.2" fill="none" stroke="#161616" stroke-width="8.1" stroke-linecap="round" stroke-linejoin="round" opacity=".92"/>
<path d="M278.8,37.5 C282.1,35.0 286.9,67.8 285.7,54.2 C293.7,46.6 267.2,90.6 281.0,84.6" fill="none" stroke="#161616" stroke-width="5.6" stroke-linecap="round" stroke-linejoin="round" opacity=".92"/>
<path d="M267.6,39.4 C272.7,35.8 290.6,52.6 285.9,51.3 C294.8,62.7 299.2,50.6 297.9,59.8 C294.2,67.7 312.7,46.6 320.0,59.0 C328.4,52.1 346.0,52.4 340.5,40.6" fill="none" stroke="#161616" stroke-width="6.6" stroke-linecap="round" stroke-linejoin="round" opacity=".92"/>
<path d="M345.0,178.9 C332.8,182.4 364.8,160.9 371.6,165.7 C374.0,163.8 381.5,171.3 393.3,156.8" fill="none" stroke="#161616" stroke-width="5.1" stroke-linecap="round" stroke-linejoin="round" opacity=".92"/>
<path d="M375.2,242.2 C369.0,236.5 351.0,242.8 358.9,249.6 C346.4,243.2 334.6,252.5 339.7,250.5 C329.6,239.7 309.9,250.3 316.5,245.4 C310.6,243.0 300.5,215.0 310.9,229.2" fill="none" stroke="#161616" stroke-width="8.4" stroke-linecap="round" stroke-linejoin="round" opacity=".92"/>
<path d="M77.1,192.8 C91.7,207.7 66.9,217.7 73.9,214.7 C83.6,219.0 78.7,228.4 77.8,234.2" fill="none" stroke="#161616" stroke-width="6.5" stroke-linecap="round" stroke-linejoin="round" opacity=".92"/>
<path d="M198.8,204.7 C186.5,208.5 190.5,175.9 198.5,189.2 C211.4,176.3 211.4,161.0 211.0,169.0 C214.5,156.8 190.0,161.4 204.9,153.1" fill="none" stroke="#161616" stroke-width="8.1" stroke-linecap="round" stroke-linejoin="round" opacity=".92"/><rect x="314" y="247" width="70" height="6" rx="2" fill="#1d2327" opacity=".78"/><text x="323" y="242" font-family="Arial" font-size="18" fill="#202020">100µm</text></svg>
