<svg xmlns="http://www.w3.org/2000/svg" viewBox="0 0 420 280" role="img">
  <defs>
    <filter id="grain"><feTurbulence type="fractalNoise" baseFrequency="0.85" numOctaves="2" stitchTiles="stitch"/><feColorMatrix type="saturate" values="0.12"/><feComponentTransfer><feFuncA type="table" tableValues="0 0.08"/></feComponentTransfer></filter>
    <radialGradient id="bg" cx="48%" cy="45%" r="75%"><stop offset="0" stop-color="#fbf2f1"/><stop offset="0.7" stop-color="#eadbd7"/><stop offset="1" stop-color="#ddcbc6"/></radialGradient>
    <linearGradient id="pearlite" x1="0" y1="0" x2="1" y2="1"><stop offset="0" stop-color="#7b6b63"/><stop offset="1" stop-color="#b6aaa3"/></linearGradient>
    
  </defs>
  <rect width="420" height="280" fill="url(#bg)"/>
  <rect width="420" height="280" filter="url(#grain)" opacity=".55"/>
<path d="M118.8,215.6 L138.8,242.5" stroke="#292b2c" stroke-width="2.1" opacity="0.31"/>
<path d="M228.6,270.3 L284.7,222.9" stroke="#292b2c" stroke-width="1.7" opacity="0.48"/>
<path d="M174.4,136.9 L203.8,108.6" stroke="#292b2c" stroke-width="2.0" opacity="0.53"/>
<path d="M299.7,219.9 L321.9,185.2" stroke="#292b2c" stroke-width="2.0" opacity="0.28"/>
<path d="M370.7,139.1 L404.6,183.5" stroke="#292b2c" stroke-width="2.1" opacity="0.33"/>
<path d="M379.1,167.6 L390.1,133.5" stroke="#292b2c" stroke-width="1.1" opacity="0.55"/>
<path d="M196.7,94.2 L258.5,29.9" stroke="#292b2c" stroke-width="1.3" opacity="0.28"/>
<path d="M45.6,210.6 L71.7,190.5" stroke="#292b2c" stroke-width="1.8" opacity="0.51"/>
<path d="M339.5,18.8 L355.2,-14.5" stroke="#292b2c" stroke-width="1.5" opacity="0.41"/>
<path d="M103.4,272.5 L135.9,232.7" stroke="#292b2c" stroke-width="2.1" opacity="0.48"/>
<path d="M359.7,84.9 L412.1,26.5" stroke="#292b2c" stroke-width="2.1" opacity="0.41"/>
<path d="M48.7,117.0 L99.1,149.9" stroke="#292b2c" stroke-width="1.4" opacity="0.40"/>
<path d="M81.6,12.3 L125.1,-43.7" stroke="#292b2c" stroke-width="1.5" opacity="0.49"/>
<path d="M295.0,196.6 L333.0,166.8" stroke="#292b2c" stroke-width="1.4" opacity="0.40"/>
<path d="M80.7,9.5 L138.0,-38.4" stroke="#292b2c" stroke-width="2.2" opacity="0.30"/>
<path d="M287.5,146.0 L329.6,76.0" stroke="#292b2c" stroke-width="2.1" opacity="0.43"/>
<path d="M61.2,251.7 L80.1,317.1" stroke="#292b2c" stroke-width="2.1" opacity="0.45"/>
<path d="M152.2,58.0 L176.4,78.3" stroke="#292b2c" stroke-width="1.7" opacity="0.45"/>
<path d="M28.5,189.8 L40.2,222.7" stroke="#292b2c" stroke-width="0.9" opacity="0.44"/>
<path d="M246.8,187.9 L258.0,151.6" stroke="#292b2c" stroke-width="1.4" opacity="0.41"/>
<path d="M84.3,233.5 L104.8,158.0" stroke="#292b2c" stroke-width="2.0" opacity="0.52"/>
<path d="M-2.4,21.8 L22.1,64.9" stroke="#292b2c" stroke-width="1.0" opacity="0.30"/>
<path d="M186.7,244.5 L213.2,278.5" stroke="#292b2c" stroke-width="1.0" opacity="0.36"/>
<path d="M380.4,211.6 L428.0,261.2" stroke="#292b2c" stroke-width="2.0" opacity="0.54"/>
<path d="M77.7,235.8 L106.8,195.3" stroke="#292b2c" stroke-width="1.7" opacity="0.42"/>
<path d="M113.0,251.4 L160.1,175.0" stroke="#292b2c" stroke-width="1.2" opacity="0.42"/>
<path d="M50.3,107.8 L83.2,158.3" stroke="#292b2c" stroke-width="1.4" opacity="0.51"/>
<path d="M254.5,99.1 L296.4,26.3" stroke="#292b2c" stroke-width="1.2" opacity="0.42"/>
<path d="M199.3,70.4 L238.8,126.7" stroke="#292b2c" stroke-width="1.8" opacity="0.47"/>
<path d="M72.6,87.3 L94.9,51.0" stroke="#292b2c" stroke-width="1.5" opacity="0.38"/>
<path d="M419.7,88.0 L445.7,138.1" stroke="#292b2c" stroke-width="1.1" opacity="0.32"/>
<path d="M202.6,187.7 L221.5,146.8" stroke="#292b2c" stroke-width="2.4" opacity="0.55"/>
<path d="M380.7,195.9 L408.8,237.2" stroke="#292b2c" stroke-width="1.3" opacity="0.47"/>
<path d="M98.1,240.3 L154.9,295.0" stroke="#292b2c" stroke-width="0.9" opacity="0.37"/>
<path d="M70.2,194.1 L82.4,144.5" stroke="#292b2c" stroke-width="2.0" opacity="0.54"/>
<path d="M146.2,44.4 L168.2,100.4" stroke="#292b2c" stroke-width="1.2" opacity="0.38"/>
<path d="M370.0,172.8 L391.1,95.0" stroke="#292b2c" stroke-width="2.4" opacity="0.38"/>
<path d="M291.7,233.2 L305.2,189.2" stroke="#292b2c" stroke-width="1.8" opacity="0.35"/>
<path d="M125.7,170.9 L173.5,225.2" stroke="#292b2c" stroke-width="2.1" opacity="0.55"/>
<path d="M251.9,219.8 L269.5,264.5" stroke="#292b2c" stroke-width="2.4" opacity="0.55"/>
<path d="M339.4,96.3 L367.1,74.7" stroke="#292b2c" stroke-width="1.4" opacity="0.31"/>
<path d="M404.1,140.6 L433.4,173.3" stroke="#292b2c" stroke-width="1.4" opacity="0.38"/>
<path d="M293.5,0.3 L314.3,-42.1" stroke="#292b2c" stroke-width="1.7" opacity="0.30"/>
<path d="M22.2,60.4 L46.4,79.2" stroke="#292b2c" stroke-width="2.2" opacity="0.51"/>
<path d="M92.8,38.6 L130.6,-4.4" stroke="#292b2c" stroke-width="2.2" opacity="0.38"/>
<path d="M418.0,229.0 L458.2,311.0" stroke="#292b2c" stroke-width="2.3" opacity="0.41"/>
<path d="M29.2,22.5 L55.3,83.9" stroke="#292b2c" stroke-width="2.1" opacity="0.41"/>
<path d="M220.6,223.5 L262.9,151.1" stroke="#292b2c" stroke-width="2.2" opacity="0.55"/>
<path d="M196.9,119.0 L232.4,51.6" stroke="#292b2c" stroke-width="1.2" opacity="0.54"/>
<path d="M16.7,13.8 L30.5,-12.2" stroke="#292b2c" stroke-width="2.2" opacity="0.33"/>
<path d="M65.2,209.1 L128.7,264.6" stroke="#292b2c" stroke-width="1.2" opacity="0.46"/>
<path d="M194.8,105.6 L243.3,32.4" stroke="#292b2c" stroke-width="1.9" opacity="0.46"/>
<path d="M332.7,227.6 L370.4,252.6" stroke="#292b2c" stroke-width="1.0" opacity="0.55"/>
<path d="M183.3,231.6 L223.6,285.6" stroke="#292b2c" stroke-width="0.9" opacity="0.48"/>
<path d="M270.4,141.4 L293.8,166.2" stroke="#292b2c" stroke-width="2.3" opacity="0.55"/>
<path d="M212.7,41.3 L225.0,10.4" stroke="#292b2c" stroke-width="1.1" opacity="0.55"/>
<path d="M33.0,198.9 L65.5,246.5" stroke="#292b2c" stroke-width="1.5" opacity="0.43"/>
<path d="M305.4,227.4 L342.8,180.4" stroke="#292b2c" stroke-width="1.4" opacity="0.48"/>
<path d="M40.2,0.4 L112.0,-50.4" stroke="#292b2c" stroke-width="1.5" opacity="0.45"/>
<path d="M64.8,138.5 L89.3,158.7" stroke="#292b2c" stroke-width="2.3" opacity="0.44"/>
<path d="M262.6,46.3 L283.9,26.5" stroke="#292b2c" stroke-width="2.0" opacity="0.35"/>
<path d="M215.5,76.0 L236.5,41.8" stroke="#292b2c" stroke-width="2.3" opacity="0.31"/>
<path d="M144.5,87.9 L189.2,151.4" stroke="#292b2c" stroke-width="2.1" opacity="0.39"/>
<path d="M389.0,175.9 L402.9,215.0" stroke="#292b2c" stroke-width="1.0" opacity="0.40"/>
<path d="M293.0,185.8 L325.4,210.8" stroke="#292b2c" stroke-width="2.1" opacity="0.47"/>
<path d="M186.2,236.5 L203.6,188.6" stroke="#292b2c" stroke-width="1.2" opacity="0.46"/>
<path d="M37.1,80.9 L49.2,113.9" stroke="#292b2c" stroke-width="1.7" opacity="0.42"/>
<path d="M-6.2,69.1 L22.4,116.5" stroke="#292b2c" stroke-width="2.0" opacity="0.45"/>
<path d="M94.3,209.7 L164.3,268.4" stroke="#292b2c" stroke-width="1.7" opacity="0.33"/>
<path d="M336.3,212.5 L380.0,248.8" stroke="#292b2c" stroke-width="1.0" opacity="0.41"/>
<path d="M377.2,44.1 L436.6,99.9" stroke="#292b2c" stroke-width="1.4" opacity="0.31"/>
<path d="M302.2,195.7 L326.7,125.5" stroke="#292b2c" stroke-width="1.6" opacity="0.52"/>
<path d="M226.1,107.7 L236.2,147.5" stroke="#292b2c" stroke-width="1.8" opacity="0.54"/>
<path d="M35.4,250.4 L96.0,190.2" stroke="#292b2c" stroke-width="2.1" opacity="0.46"/>
<path d="M197.3,182.5 L249.3,228.2" stroke="#292b2c" stroke-width="1.5" opacity="0.52"/>
<path d="M168.0,39.8 L191.1,71.8" stroke="#292b2c" stroke-width="0.9" opacity="0.51"/>
<path d="M340.2,219.5 L366.7,139.9" stroke="#292b2c" stroke-width="1.1" opacity="0.28"/>
<path d="M418.2,153.7 L447.9,93.2" stroke="#292b2c" stroke-width="1.4" opacity="0.28"/>
<path d="M83.6,62.0 L120.1,-2.2" stroke="#292b2c" stroke-width="1.1" opacity="0.36"/>
<path d="M103.3,110.3 L158.0,146.5" stroke="#292b2c" stroke-width="1.3" opacity="0.32"/>
<path d="M242.2,278.8 L270.1,253.2" stroke="#292b2c" stroke-width="1.3" opacity="0.37"/>
<path d="M180.2,66.1 L231.4,16.4" stroke="#292b2c" stroke-width="2.1" opacity="0.51"/>
<path d="M246.8,164.8 L268.8,93.1" stroke="#292b2c" stroke-width="1.0" opacity="0.34"/>
<path d="M127.8,2.2 L138.7,46.4" stroke="#292b2c" stroke-width="1.0" opacity="0.42"/>
<path d="M30.0,239.3 L55.6,218.4" stroke="#292b2c" stroke-width="1.0" opacity="0.46"/>
<path d="M225.2,159.9 L258.5,192.4" stroke="#292b2c" stroke-width="1.6" opacity="0.51"/>
<path d="M323.9,158.1 L376.5,87.1" stroke="#292b2c" stroke-width="1.7" opacity="0.35"/>
<path d="M246.3,21.6 L300.6,-37.5" stroke="#292b2c" stroke-width="1.7" opacity="0.38"/>
<path d="M385.5,152.3 L414.7,80.7" stroke="#292b2c" stroke-width="2.1" opacity="0.29"/>
<path d="M354.4,221.7 L392.6,283.0" stroke="#292b2c" stroke-width="2.3" opacity="0.55"/>
<path d="M118.3,246.5 L151.0,208.4" stroke="#292b2c" stroke-width="1.3" opacity="0.33"/>
<path d="M45.8,203.5 L61.4,164.7" stroke="#292b2c" stroke-width="1.5" opacity="0.36"/>
<path d="M109.5,68.2 L122.5,41.7" stroke="#292b2c" stroke-width="1.0" opacity="0.36"/>
<path d="M75.1,115.4 L106.2,83.6" stroke="#292b2c" stroke-width="1.7" opacity="0.42"/>
<path d="M310.4,100.1 L353.3,56.4" stroke="#292b2c" stroke-width="2.2" opacity="0.36"/>
<path d="M255.5,157.5 L287.3,222.1" stroke="#292b2c" stroke-width="1.7" opacity="0.33"/>
<path d="M55.6,56.8 L88.9,119.5" stroke="#292b2c" stroke-width="1.5" opacity="0.46"/>
<path d="M46.9,277.7 L72.4,337.8" stroke="#292b2c" stroke-width="1.4" opacity="0.42"/>
<path d="M126.4,45.1 L142.4,107.5" stroke="#292b2c" stroke-width="1.2" opacity="0.39"/>
<path d="M213.5,244.6 L236.3,220.3" stroke="#292b2c" stroke-width="2.2" opacity="0.44"/>
<path d="M255.4,171.3 L280.0,208.4" stroke="#292b2c" stroke-width="2.1" opacity="0.49"/>
<path d="M334.0,113.7 L389.9,171.3" stroke="#292b2c" stroke-width="2.2" opacity="0.33"/>
<path d="M34.9,209.3 L77.8,140.4" stroke="#292b2c" stroke-width="1.6" opacity="0.33"/>
<path d="M166.1,225.5 L192.0,206.4" stroke="#292b2c" stroke-width="2.0" opacity="0.43"/>
<path d="M235.7,207.8 L282.6,176.1" stroke="#292b2c" stroke-width="2.2" opacity="0.53"/>
<path d="M319.4,252.8 L338.0,226.8" stroke="#292b2c" stroke-width="2.2" opacity="0.36"/>
<path d="M137.0,242.4 L160.1,222.7" stroke="#292b2c" stroke-width="1.7" opacity="0.38"/>
<path d="M29.0,124.3 L82.7,79.1" stroke="#292b2c" stroke-width="1.9" opacity="0.56"/>
<path d="M279.7,142.5 L343.7,85.4" stroke="#292b2c" stroke-width="1.4" opacity="0.42"/>
<path d="M166.4,5.1 L215.0,37.0" stroke="#292b2c" stroke-width="2.2" opacity="0.29"/>
<path d="M105.2,59.8 L121.8,19.6" stroke="#292b2c" stroke-width="1.1" opacity="0.46"/>
<path d="M400.6,247.5 L425.3,268.9" stroke="#292b2c" stroke-width="1.6" opacity="0.48"/>
<path d="M220.2,3.5 L253.0,-47.8" stroke="#292b2c" stroke-width="1.2" opacity="0.47"/>
<path d="M159.4,100.1 L190.9,135.9" stroke="#292b2c" stroke-width="1.3" opacity="0.33"/>
<path d="M190.9,143.3 L225.3,204.9" stroke="#292b2c" stroke-width="2.3" opacity="0.43"/>
<path d="M106.0,165.9 L126.5,193.0" stroke="#292b2c" stroke-width="1.2" opacity="0.43"/>
<path d="M340.2,140.4 L374.3,92.4" stroke="#292b2c" stroke-width="2.3" opacity="0.32"/>
<path d="M363.7,3.3 L387.4,25.7" stroke="#292b2c" stroke-width="2.2" opacity="0.28"/>
<path d="M60.6,140.6 L111.9,191.7" stroke="#292b2c" stroke-width="2.0" opacity="0.48"/>
<path d="M248.5,260.9 L273.5,233.5" stroke="#292b2c" stroke-width="1.5" opacity="0.50"/>
<path d="M164.6,45.9 L185.8,15.5" stroke="#292b2c" stroke-width="2.0" opacity="0.29"/>
<path d="M149.9,110.4 L188.2,73.0" stroke="#292b2c" stroke-width="0.9" opacity="0.48"/>
<path d="M52.3,163.9 L79.6,145.4" stroke="#292b2c" stroke-width="1.3" opacity="0.44"/>
<path d="M45.3,119.7 L58.3,162.2" stroke="#292b2c" stroke-width="2.2" opacity="0.46"/>
<path d="M27.6,99.4 L46.5,29.7" stroke="#292b2c" stroke-width="1.8" opacity="0.52"/>
<path d="M408.2,4.1 L425.9,26.0" stroke="#292b2c" stroke-width="2.2" opacity="0.29"/>
<path d="M230.0,234.7 L289.0,299.4" stroke="#292b2c" stroke-width="1.6" opacity="0.35"/>
<path d="M186.6,255.4 L228.3,286.5" stroke="#292b2c" stroke-width="1.8" opacity="0.32"/>
<path d="M125.5,22.2 L146.9,61.9" stroke="#292b2c" stroke-width="2.3" opacity="0.47"/>
<path d="M128.5,159.0 L187.9,108.3" stroke="#292b2c" stroke-width="1.9" opacity="0.45"/>
<path d="M-9.6,279.5 L12.4,221.0" stroke="#292b2c" stroke-width="1.7" opacity="0.39"/>
<path d="M114.3,137.4 L170.3,208.5" stroke="#292b2c" stroke-width="1.4" opacity="0.31"/>
<path d="M417.7,252.9 L441.0,219.7" stroke="#292b2c" stroke-width="2.2" opacity="0.30"/>
<path d="M154.9,88.5 L171.3,58.2" stroke="#292b2c" stroke-width="1.6" opacity="0.29"/>
<path d="M173.7,264.2 L194.5,301.5" stroke="#292b2c" stroke-width="1.6" opacity="0.49"/>
<path d="M414.0,90.4 L462.6,165.0" stroke="#292b2c" stroke-width="1.6" opacity="0.40"/>
<path d="M80.9,54.3 L106.3,37.4" stroke="#292b2c" stroke-width="1.0" opacity="0.54"/>
<path d="M406.7,27.3 L432.6,101.9" stroke="#292b2c" stroke-width="1.9" opacity="0.31"/>
<path d="M274.5,135.2 L308.7,190.1" stroke="#292b2c" stroke-width="2.4" opacity="0.33"/>
<path d="M190.0,208.7 L210.9,257.8" stroke="#292b2c" stroke-width="1.1" opacity="0.49"/><rect x="314" y="247" width="70" height="6" rx="2" fill="#1d2327" opacity=".78"/><text x="323" y="242" font-family="Arial" font-size="18" fill="#202020">100µm</text></svg>
