<svg xmlns="http://www.w3.org/2000/svg" viewBox="0 0 420 280" role="img">
  <defs>
    <filter id="grain"><feTurbulence type="fractalNoise" baseFrequency="0.85" numOctaves="2" stitchTiles="stitch"/><feColorMatrix type="saturate" values="0.12"/><feComponentTransfer><feFuncA type="table" tableValues="0 0.08"/></feComponentTransfer></filter>
    <radialGradient id="bg" cx="48%" cy="45%" r="75%"><stop offset="0" stop-color="#fbf2f1"/><stop offset="0.7" stop-color="#eadbd7"/><stop offset="1" stop-color="#ddcbc6"/></radialGradient>
    <linearGradient id="pearlite" x1="0" y1="0" x2="1" y2="1"><stop offset="0" stop-color="#7b6b63"/><stop offset="1" stop-color="#b6aaa3"/></linearGradient>
    
  </defs>
  <rect width="420" height="280" fill="url(#bg)"/>
  <rect width="420" height="280" filter="url(#grain)" opacity=".55"/>
<circle cx="235.6" cy="145.8" r="9.4" fill="#fff7ed" opacity=".75" stroke="#d7c3b9" stroke-width="1.2"/>
<ellipse cx="235.6" cy="145.8" rx="5.3" ry="5.6" fill="#151515" opacity="0.97" transform="rotate(121.1 235.6 145.8)"/>
<circle cx="198.8" cy="211.9" r="10.8" fill="#fff7ed" opacity=".75" stroke="#d7c3b9" stroke-width="1.2"/>
<ellipse cx="198.8" cy="211.9" rx="6.9" ry="6.0" fill="#151515" opacity="0.92" transform="rotate(11.2 198.8 211.9)"/>
<circle cx="262.3" cy="53.1" r="11.5" fill="#fff7ed" opacity=".75" stroke="#d7c3b9" stroke-width="1.2"/>
<ellipse cx="262.3" cy="53.1" rx="6.5" ry="6.4" fill="#151515" opacity="0.85" transform="rotate(74.1 262.3 53.1)"/>
<circle cx="293.1" cy="172.7" r="12.8" fill="#fff7ed" opacity=".75" stroke="#d7c3b9" stroke-width="1.2"/>
<ellipse cx="293.1" cy="172.7" rx="8.0" ry="7.5" fill="#151515" opacity="0.83" transform="rotate(65.2 293.1 172.7)"/>
<ellipse cx="291.9" cy="171.2" rx="3.4" ry="1.7" fill="#3f3f3f" opacity=".35"/>
<circle cx="283.5" cy="66.7" r="14.0" fill="#fff7ed" opacity=".75" stroke="#d7c3b9" stroke-width="1.2"/>
<ellipse cx="283.5" cy="66.7" rx="6.9" ry="6.9" fill="#151515" opacity="0.92" transform="rotate(86.6 283.5 66.7)"/>
<ellipse cx="282.1" cy="65.0" rx="2.9" ry="1.6" fill="#3f3f3f" opacity=".35"/>
<circle cx="126.4" cy="81.9" r="11.6" fill="#fff7ed" opacity=".75" stroke="#d7c3b9" stroke-width="1.2"/>
<ellipse cx="126.4" cy="81.9" rx="7.4" ry="7.0" fill="#151515" opacity="0.96" transform="rotate(160.0 126.4 81.9)"/>
<circle cx="161.1" cy="158.0" r="6.1" fill="#fff7ed" opacity=".75" stroke="#d7c3b9" stroke-width="1.2"/>
<ellipse cx="161.1" cy="158.0" rx="3.8" ry="3.1" fill="#151515" opacity="0.83" transform="rotate(171.8 161.1 158.0)"/>
<circle cx="206.0" cy="84.5" r="13.3" fill="#fff7ed" opacity=".75" stroke="#d7c3b9" stroke-width="1.2"/>
<ellipse cx="206.0" cy="84.5" rx="6.9" ry="6.4" fill="#151515" opacity="0.88" transform="rotate(101.2 206.0 84.5)"/>
<circle cx="204.6" cy="65.7" r="14.5" fill="#fff7ed" opacity=".75" stroke="#d7c3b9" stroke-width="1.2"/>
<ellipse cx="204.6" cy="65.7" rx="9.1" ry="6.6" fill="#151515" opacity="0.83" transform="rotate(121.8 204.6 65.7)"/>
<circle cx="280.8" cy="204.4" r="14.6" fill="#fff7ed" opacity=".75" stroke="#d7c3b9" stroke-width="1.2"/>
<ellipse cx="280.8" cy="204.4" rx="9.0" ry="9.0" fill="#151515" opacity="0.96" transform="rotate(91.4 280.8 204.4)"/>
<circle cx="24.5" cy="137.8" r="12.7" fill="#fff7ed" opacity=".75" stroke="#d7c3b9" stroke-width="1.2"/>
<ellipse cx="24.5" cy="137.8" rx="6.7" ry="7.4" fill="#151515" opacity="0.85" transform="rotate(150.5 24.5 137.8)"/>
<ellipse cx="23.2" cy="136.3" rx="2.8" ry="1.7" fill="#3f3f3f" opacity=".35"/>
<circle cx="229.8" cy="87.5" r="9.8" fill="#fff7ed" opacity=".75" stroke="#d7c3b9" stroke-width="1.2"/>
<ellipse cx="229.8" cy="87.5" rx="5.8" ry="5.8" fill="#151515" opacity="0.98" transform="rotate(73.6 229.8 87.5)"/>
<circle cx="327.3" cy="56.3" r="11.1" fill="#fff7ed" opacity=".75" stroke="#d7c3b9" stroke-width="1.2"/>
<ellipse cx="327.3" cy="56.3" rx="6.0" ry="6.4" fill="#151515" opacity="0.92" transform="rotate(33.3 327.3 56.3)"/>
<circle cx="346.1" cy="23.7" r="12.7" fill="#fff7ed" opacity=".75" stroke="#d7c3b9" stroke-width="1.2"/>
<ellipse cx="346.1" cy="23.7" rx="6.0" ry="6.4" fill="#151515" opacity="0.82" transform="rotate(156.4 346.1 23.7)"/>
<circle cx="234.0" cy="89.2" r="12.8" fill="#fff7ed" opacity=".75" stroke="#d7c3b9" stroke-width="1.2"/>
<ellipse cx="234.0" cy="89.2" rx="6.9" ry="6.0" fill="#151515" opacity="0.95" transform="rotate(36.8 234.0 89.2)"/>
<circle cx="75.0" cy="104.0" r="8.7" fill="#fff7ed" opacity=".75" stroke="#d7c3b9" stroke-width="1.2"/>
<ellipse cx="75.0" cy="104.0" rx="4.5" ry="5.3" fill="#151515" opacity="0.83" transform="rotate(63.5 75.0 104.0)"/>
<circle cx="17.4" cy="203.2" r="10.3" fill="#fff7ed" opacity=".75" stroke="#d7c3b9" stroke-width="1.2"/>
<ellipse cx="17.4" cy="203.2" rx="5.4" ry="5.8" fill="#151515" opacity="0.86" transform="rotate(46.6 17.4 203.2)"/>
<circle cx="361.0" cy="58.2" r="8.5" fill="#fff7ed" opacity=".75" stroke="#d7c3b9" stroke-width="1.2"/>
<ellipse cx="361.0" cy="58.2" rx="3.9" ry="5.2" fill="#151515" opacity="0.85" transform="rotate(169.3 361.0 58.2)"/>
<circle cx="185.4" cy="123.9" r="13.6" fill="#fff7ed" opacity=".75" stroke="#d7c3b9" stroke-width="1.2"/>
<ellipse cx="185.4" cy="123.9" rx="8.2" ry="7.2" fill="#151515" opacity="0.89" transform="rotate(17.7 185.4 123.9)"/>
<circle cx="357.4" cy="69.3" r="8.0" fill="#fff7ed" opacity=".75" stroke="#d7c3b9" stroke-width="1.2"/>
<ellipse cx="357.4" cy="69.3" rx="4.9" ry="4.5" fill="#151515" opacity="0.94" transform="rotate(159.3 357.4 69.3)"/>
<circle cx="204.9" cy="213.5" r="7.5" fill="#fff7ed" opacity=".75" stroke="#d7c3b9" stroke-width="1.2"/>
<ellipse cx="204.9" cy="213.5" rx="4.0" ry="3.5" fill="#151515" opacity="0.87" transform="rotate(146.1 204.9 213.5)"/>
<ellipse cx="204.1" cy="212.6" rx="1.7" ry="0.8" fill="#3f3f3f" opacity=".35"/>
<circle cx="28.5" cy="155.7" r="14.3" fill="#fff7ed" opacity=".75" stroke="#d7c3b9" stroke-width="1.2"/>
<ellipse cx="28.5" cy="155.7" rx="7.2" ry="6.7" fill="#151515" opacity="0.95" transform="rotate(151.3 28.5 155.7)"/>
<ellipse cx="27.1" cy="154.0" rx="3.0" ry="1.5" fill="#3f3f3f" opacity=".35"/>
<circle cx="91.2" cy="187.8" r="8.9" fill="#fff7ed" opacity=".75" stroke="#d7c3b9" stroke-width="1.2"/>
<ellipse cx="91.2" cy="187.8" rx="5.5" ry="5.3" fill="#151515" opacity="0.85" transform="rotate(49.8 91.2 187.8)"/>
<circle cx="112.3" cy="189.7" r="14.3" fill="#fff7ed" opacity=".75" stroke="#d7c3b9" stroke-width="1.2"/>
<ellipse cx="112.3" cy="189.7" rx="7.3" ry="7.2" fill="#151515" opacity="0.91" transform="rotate(15.4 112.3 189.7)"/>
<circle cx="77.9" cy="61.2" r="6.8" fill="#fff7ed" opacity=".75" stroke="#d7c3b9" stroke-width="1.2"/>
<ellipse cx="77.9" cy="61.2" rx="4.0" ry="3.8" fill="#151515" opacity="0.96" transform="rotate(97.9 77.9 61.2)"/>
<circle cx="316.4" cy="168.7" r="8.7" fill="#fff7ed" opacity=".75" stroke="#d7c3b9" stroke-width="1.2"/>
<ellipse cx="316.4" cy="168.7" rx="5.1" ry="4.6" fill="#151515" opacity="0.92" transform="rotate(119.6 316.4 168.7)"/>
<circle cx="220.5" cy="233.0" r="11.0" fill="#fff7ed" opacity=".75" stroke="#d7c3b9" stroke-width="1.2"/>
<ellipse cx="220.5" cy="233.0" rx="6.3" ry="6.6" fill="#151515" opacity="0.93" transform="rotate(148.0 220.5 233.0)"/>
<circle cx="269.8" cy="73.2" r="5.8" fill="#fff7ed" opacity=".75" stroke="#d7c3b9" stroke-width="1.2"/>
<ellipse cx="269.8" cy="73.2" rx="2.8" ry="3.3" fill="#151515" opacity="0.90" transform="rotate(122.7 269.8 73.2)"/>
<circle cx="371.6" cy="93.5" r="14.6" fill="#fff7ed" opacity=".75" stroke="#d7c3b9" stroke-width="1.2"/>
<ellipse cx="371.6" cy="93.5" rx="6.8" ry="7.6" fill="#151515" opacity="0.87" transform="rotate(154.8 371.6 93.5)"/>
<ellipse cx="370.2" cy="91.8" rx="2.9" ry="1.8" fill="#3f3f3f" opacity=".35"/>
<circle cx="353.1" cy="106.5" r="9.3" fill="#fff7ed" opacity=".75" stroke="#d7c3b9" stroke-width="1.2"/>
<ellipse cx="353.1" cy="106.5" rx="4.6" ry="4.5" fill="#151515" opacity="0.87" transform="rotate(96.5 353.1 106.5)"/><ellipse cx="85.8" cy="173.0" rx="6.7" ry="9.0" fill="#050505" opacity=".88"/>
<ellipse cx="295.6" cy="125.2" rx="25.5" ry="14.6" fill="#050505" opacity=".88"/>
<ellipse cx="163.2" cy="130.0" rx="22.1" ry="11.5" fill="#050505" opacity=".88"/>
<ellipse cx="304.9" cy="49.3" rx="25.7" ry="15.8" fill="#050505" opacity=".88"/>
<ellipse cx="138.0" cy="143.9" rx="20.7" ry="12.0" fill="#050505" opacity=".88"/>
<ellipse cx="311.5" cy="206.1" rx="21.7" ry="15.3" fill="#050505" opacity=".88"/>
<ellipse cx="167.2" cy="104.9" rx="15.7" ry="12.8" fill="#050505" opacity=".88"/>
<ellipse cx="122.0" cy="32.3" rx="13.4" ry="6.2" fill="#050505" opacity=".88"/>
<ellipse cx="93.4" cy="67.5" rx="17.3" ry="10.8" fill="#050505" opacity=".88"/>
<ellipse cx="329.0" cy="136.8" rx="21.2" ry="17.3" fill="#050505" opacity=".88"/>
<ellipse cx="233.0" cy="211.5" rx="19.1" ry="12.8" fill="#050505" opacity=".88"/>
<ellipse cx="322.9" cy="220.2" rx="24.5" ry="17.7" fill="#050505" opacity=".88"/>
<ellipse cx="255.8" cy="63.4" rx="14.8" ry="12.2" fill="#050505" opacity=".88"/>
<ellipse cx="110.8" cy="147.9" rx="22.6" ry="19.3" fill="#050505" opacity=".88"/>
<ellipse cx="29.3" cy="222.4" rx="17.3" ry="8.9" fill="#050505" opacity=".88"/>
<ellipse cx="243.7" cy="36.1" rx="24.4" ry="16.1" fill="#050505" opacity=".88"/>
<ellipse cx="64.4" cy="203.0" rx="14.5" ry="9.0" fill="#050505" opacity=".88"/>
<ellipse cx="181.9" cy="231.9" rx="13.8" ry="15.4" fill="#050505" opacity=".88"/><rect x="314" y="247" width="70" height="6" rx="2" fill="#1d2327" opacity=".78"/><text x="323" y="242" font-family="Arial" font-size="18" fill="#202020">100µm</text></svg>
