<svg xmlns="http://www.w3.org/2000/svg" viewBox="0 0 420 280" role="img">
  <defs>
    <filter id="grain"><feTurbulence type="fractalNoise" baseFrequency="0.85" numOctaves="2" stitchTiles="stitch"/><feColorMatrix type="saturate" values="0.12"/><feComponentTransfer><feFuncA type="table" tableValues="0 0.08"/></feComponentTransfer></filter>
    <radialGradient id="bg" cx="48%" cy="45%" r="75%"><stop offset="0" stop-color="#fbf2f1"/><stop offset="0.7" stop-color="#eadbd7"/><stop offset="1" stop-color="#ddcbc6"/></radialGradient>
    <linearGradient id="pearlite" x1="0" y1="0" x2="1" y2="1"><stop offset="0" stop-color="#7b6b63"/><stop offset="1" stop-color="#b6aaa3"/></linearGradient>
    
  </defs>
  <rect width="420" height="280" fill="url(#bg)"/>
  <rect width="420" height="280" filter="url(#grain)" opacity=".55"/>
<circle cx="233.2" cy="230.1" r="15.4" fill="#fff7ed" opacity=".75" stroke="#d7c3b9" stroke-width="1.2"/>
<ellipse cx="233.2" cy="230.1" rx="8.4" ry="8.3" fill="#151515" opacity="0.91" transform="rotate(33.2 233.2 230.1)"/>
<circle cx="322.6" cy="39.3" r="18.2" fill="#fff7ed" opacity=".75" stroke="#d7c3b9" stroke-width="1.2"/>
<ellipse cx="322.6" cy="39.3" rx="9.4" ry="8.6" fill="#151515" opacity="0.95" transform="rotate(124.8 322.6 39.3)"/>
<ellipse cx="320.8" cy="37.2" rx="3.9" ry="2.0" fill="#3f3f3f" opacity=".35"/>
<circle cx="385.8" cy="166.2" r="23.8" fill="#fff7ed" opacity=".75" stroke="#d7c3b9" stroke-width="1.2"/>
<ellipse cx="385.8" cy="166.2" rx="13.5" ry="11.4" fill="#151515" opacity="0.82" transform="rotate(95.1 385.8 166.2)"/>
<ellipse cx="383.5" cy="163.4" rx="5.7" ry="2.6" fill="#3f3f3f" opacity=".35"/>
<circle cx="108.9" cy="21.2" r="11.3" fill="#fff7ed" opacity=".75" stroke="#d7c3b9" stroke-width="1.2"/>
<ellipse cx="108.9" cy="21.2" rx="6.1" ry="6.0" fill="#151515" opacity="0.95" transform="rotate(93.4 108.9 21.2)"/>
<circle cx="272.8" cy="122.2" r="16.2" fill="#fff7ed" opacity=".75" stroke="#d7c3b9" stroke-width="1.2"/>
<ellipse cx="272.8" cy="122.2" rx="8.2" ry="10.1" fill="#151515" opacity="0.98" transform="rotate(151.2 272.8 122.2)"/>
<circle cx="104.7" cy="82.7" r="13.3" fill="#fff7ed" opacity=".75" stroke="#d7c3b9" stroke-width="1.2"/>
<ellipse cx="104.7" cy="82.7" rx="6.3" ry="7.7" fill="#151515" opacity="0.88" transform="rotate(152.4 104.7 82.7)"/>
<circle cx="341.5" cy="20.8" r="23.4" fill="#fff7ed" opacity=".75" stroke="#d7c3b9" stroke-width="1.2"/>
<ellipse cx="341.5" cy="20.8" rx="11.6" ry="14.2" fill="#151515" opacity="0.90" transform="rotate(176.5 341.5 20.8)"/>
<circle cx="261.0" cy="198.2" r="9.5" fill="#fff7ed" opacity=".75" stroke="#d7c3b9" stroke-width="1.2"/>
<ellipse cx="261.0" cy="198.2" rx="4.8" ry="4.4" fill="#151515" opacity="0.87" transform="rotate(173.5 261.0 198.2)"/>
<circle cx="110.3" cy="37.5" r="10.2" fill="#fff7ed" opacity=".75" stroke="#d7c3b9" stroke-width="1.2"/>
<ellipse cx="110.3" cy="37.5" rx="4.8" ry="6.0" fill="#151515" opacity="0.85" transform="rotate(100.7 110.3 37.5)"/>
<circle cx="300.8" cy="45.0" r="11.3" fill="#fff7ed" opacity=".75" stroke="#d7c3b9" stroke-width="1.2"/>
<ellipse cx="300.8" cy="45.0" rx="6.5" ry="5.4" fill="#151515" opacity="0.89" transform="rotate(38.3 300.8 45.0)"/>
<circle cx="324.8" cy="88.4" r="23.6" fill="#fff7ed" opacity=".75" stroke="#d7c3b9" stroke-width="1.2"/>
<ellipse cx="324.8" cy="88.4" rx="14.6" ry="11.5" fill="#151515" opacity="0.88" transform="rotate(153.8 324.8 88.4)"/>
<circle cx="402.4" cy="64.0" r="9.9" fill="#fff7ed" opacity=".75" stroke="#d7c3b9" stroke-width="1.2"/>
<ellipse cx="402.4" cy="64.0" rx="5.0" ry="5.8" fill="#151515" opacity="0.87" transform="rotate(53.3 402.4 64.0)"/>
<ellipse cx="401.5" cy="62.8" rx="2.1" ry="1.3" fill="#3f3f3f" opacity=".35"/>
<circle cx="242.6" cy="71.0" r="9.7" fill="#fff7ed" opacity=".75" stroke="#d7c3b9" stroke-width="1.2"/>
<ellipse cx="242.6" cy="71.0" rx="5.5" ry="5.0" fill="#151515" opacity="0.89" transform="rotate(172.6 242.6 71.0)"/>
<circle cx="351.2" cy="59.3" r="17.4" fill="#fff7ed" opacity=".75" stroke="#d7c3b9" stroke-width="1.2"/>
<ellipse cx="351.2" cy="59.3" rx="8.5" ry="10.5" fill="#151515" opacity="0.95" transform="rotate(44.9 351.2 59.3)"/>
<ellipse cx="349.5" cy="57.2" rx="3.6" ry="2.4" fill="#3f3f3f" opacity=".35"/>
<circle cx="378.4" cy="63.3" r="20.0" fill="#fff7ed" opacity=".75" stroke="#d7c3b9" stroke-width="1.2"/>
<ellipse cx="378.4" cy="63.3" rx="12.5" ry="12.0" fill="#151515" opacity="0.92" transform="rotate(75.9 378.4 63.3)"/>
<ellipse cx="376.5" cy="60.9" rx="5.3" ry="2.8" fill="#3f3f3f" opacity=".35"/>
<circle cx="392.5" cy="69.7" r="8.9" fill="#fff7ed" opacity=".75" stroke="#d7c3b9" stroke-width="1.2"/>
<ellipse cx="392.5" cy="69.7" rx="5.2" ry="4.4" fill="#151515" opacity="0.95" transform="rotate(107.4 392.5 69.7)"/>
<circle cx="296.4" cy="30.2" r="11.1" fill="#fff7ed" opacity=".75" stroke="#d7c3b9" stroke-width="1.2"/>
<ellipse cx="296.4" cy="30.2" rx="5.5" ry="6.1" fill="#151515" opacity="0.96" transform="rotate(110.6 296.4 30.2)"/>
<circle cx="97.7" cy="24.0" r="22.8" fill="#fff7ed" opacity=".75" stroke="#d7c3b9" stroke-width="1.2"/>
<ellipse cx="97.7" cy="24.0" rx="11.5" ry="12.0" fill="#151515" opacity="0.83" transform="rotate(31.7 97.7 24.0)"/>
<circle cx="68.1" cy="100.4" r="17.3" fill="#fff7ed" opacity=".75" stroke="#d7c3b9" stroke-width="1.2"/>
<ellipse cx="68.1" cy="100.4" rx="10.7" ry="10.7" fill="#151515" opacity="0.93" transform="rotate(124.4 68.1 100.4)"/>
<circle cx="27.5" cy="17.9" r="10.5" fill="#fff7ed" opacity=".75" stroke="#d7c3b9" stroke-width="1.2"/>
<ellipse cx="27.5" cy="17.9" rx="6.5" ry="6.0" fill="#151515" opacity="0.97" transform="rotate(3.8 27.5 17.9)"/>
<circle cx="299.2" cy="90.2" r="15.9" fill="#fff7ed" opacity=".75" stroke="#d7c3b9" stroke-width="1.2"/>
<ellipse cx="299.2" cy="90.2" rx="10.1" ry="7.4" fill="#151515" opacity="0.91" transform="rotate(132.7 299.2 90.2)"/>
<circle cx="287.9" cy="198.4" r="19.9" fill="#fff7ed" opacity=".75" stroke="#d7c3b9" stroke-width="1.2"/>
<ellipse cx="287.9" cy="198.4" rx="12.4" ry="10.2" fill="#151515" opacity="0.93" transform="rotate(162.2 287.9 198.4)"/>
<circle cx="322.7" cy="216.3" r="14.9" fill="#fff7ed" opacity=".75" stroke="#d7c3b9" stroke-width="1.2"/>
<ellipse cx="322.7" cy="216.3" rx="8.4" ry="8.3" fill="#151515" opacity="0.88" transform="rotate(104.9 322.7 216.3)"/>
<circle cx="264.9" cy="249.2" r="9.6" fill="#fff7ed" opacity=".75" stroke="#d7c3b9" stroke-width="1.2"/>
<ellipse cx="264.9" cy="249.2" rx="5.9" ry="5.5" fill="#151515" opacity="0.88" transform="rotate(132.3 264.9 249.2)"/>
<circle cx="341.1" cy="35.6" r="15.3" fill="#fff7ed" opacity=".75" stroke="#d7c3b9" stroke-width="1.2"/>
<ellipse cx="341.1" cy="35.6" rx="9.0" ry="7.0" fill="#151515" opacity="0.92" transform="rotate(86.6 341.1 35.6)"/>
<ellipse cx="339.6" cy="33.8" rx="3.8" ry="1.6" fill="#3f3f3f" opacity=".35"/>
<circle cx="208.9" cy="158.0" r="19.3" fill="#fff7ed" opacity=".75" stroke="#d7c3b9" stroke-width="1.2"/>
<ellipse cx="208.9" cy="158.0" rx="12.0" ry="9.6" fill="#151515" opacity="0.82" transform="rotate(54.2 208.9 158.0)"/>
<circle cx="80.6" cy="227.6" r="11.5" fill="#fff7ed" opacity=".75" stroke="#d7c3b9" stroke-width="1.2"/>
<ellipse cx="80.6" cy="227.6" rx="6.6" ry="6.1" fill="#151515" opacity="0.96" transform="rotate(58.9 80.6 227.6)"/>
<circle cx="182.9" cy="204.1" r="11.4" fill="#fff7ed" opacity=".75" stroke="#d7c3b9" stroke-width="1.2"/>
<ellipse cx="182.9" cy="204.1" rx="7.1" ry="6.9" fill="#151515" opacity="0.88" transform="rotate(105.0 182.9 204.1)"/>
<circle cx="208.6" cy="211.8" r="10.5" fill="#fff7ed" opacity=".75" stroke="#d7c3b9" stroke-width="1.2"/>
<ellipse cx="208.6" cy="211.8" rx="6.4" ry="6.0" fill="#151515" opacity="0.97" transform="rotate(49.8 208.6 211.8)"/>
<ellipse cx="207.6" cy="210.5" rx="2.7" ry="1.4" fill="#3f3f3f" opacity=".35"/>
<circle cx="122.9" cy="65.9" r="15.4" fill="#fff7ed" opacity=".75" stroke="#d7c3b9" stroke-width="1.2"/>
<ellipse cx="122.9" cy="65.9" rx="8.2" ry="8.6" fill="#151515" opacity="0.90" transform="rotate(56.8 122.9 65.9)"/>
<circle cx="192.0" cy="37.4" r="23.8" fill="#fff7ed" opacity=".75" stroke="#d7c3b9" stroke-width="1.2"/>
<ellipse cx="192.0" cy="37.4" rx="11.1" ry="14.3" fill="#151515" opacity="0.83" transform="rotate(127.6 192.0 37.4)"/>
<circle cx="323.6" cy="19.6" r="13.2" fill="#fff7ed" opacity=".75" stroke="#d7c3b9" stroke-width="1.2"/>
<ellipse cx="323.6" cy="19.6" rx="6.4" ry="7.0" fill="#151515" opacity="0.82" transform="rotate(149.3 323.6 19.6)"/>
<ellipse cx="322.3" cy="18.0" rx="2.7" ry="1.6" fill="#3f3f3f" opacity=".35"/>
<circle cx="32.1" cy="162.6" r="10.5" fill="#fff7ed" opacity=".75" stroke="#d7c3b9" stroke-width="1.2"/>
<ellipse cx="32.1" cy="162.6" rx="5.7" ry="5.9" fill="#151515" opacity="0.92" transform="rotate(145.3 32.1 162.6)"/>
<circle cx="94.7" cy="126.3" r="19.1" fill="#fff7ed" opacity=".75" stroke="#d7c3b9" stroke-width="1.2"/>
<ellipse cx="94.7" cy="126.3" rx="9.4" ry="8.7" fill="#151515" opacity="0.90" transform="rotate(128.6 94.7 126.3)"/>
<ellipse cx="92.9" cy="124.1" rx="3.9" ry="2.0" fill="#3f3f3f" opacity=".35"/>
<circle cx="149.8" cy="178.2" r="12.6" fill="#fff7ed" opacity=".75" stroke="#d7c3b9" stroke-width="1.2"/>
<ellipse cx="149.8" cy="178.2" rx="7.0" ry="7.0" fill="#151515" opacity="0.94" transform="rotate(70.8 149.8 178.2)"/>
<circle cx="53.3" cy="228.7" r="22.6" fill="#fff7ed" opacity=".75" stroke="#d7c3b9" stroke-width="1.2"/>
<ellipse cx="53.3" cy="228.7" rx="13.3" ry="10.7" fill="#151515" opacity="0.89" transform="rotate(112.6 53.3 228.7)"/>
<circle cx="236.7" cy="220.2" r="14.3" fill="#fff7ed" opacity=".75" stroke="#d7c3b9" stroke-width="1.2"/>
<ellipse cx="236.7" cy="220.2" rx="8.6" ry="8.7" fill="#151515" opacity="0.89" transform="rotate(117.2 236.7 220.2)"/>
<ellipse cx="235.4" cy="218.5" rx="3.6" ry="2.0" fill="#3f3f3f" opacity=".35"/>
<circle cx="331.8" cy="164.1" r="19.7" fill="#fff7ed" opacity=".75" stroke="#d7c3b9" stroke-width="1.2"/>
<ellipse cx="331.8" cy="164.1" rx="11.6" ry="9.6" fill="#151515" opacity="0.96" transform="rotate(176.5 331.8 164.1)"/>
<circle cx="322.2" cy="90.7" r="16.8" fill="#fff7ed" opacity=".75" stroke="#d7c3b9" stroke-width="1.2"/>
<ellipse cx="322.2" cy="90.7" rx="10.4" ry="10.0" fill="#151515" opacity="0.88" transform="rotate(14.9 322.2 90.7)"/>
<circle cx="313.4" cy="129.1" r="17.0" fill="#fff7ed" opacity=".75" stroke="#d7c3b9" stroke-width="1.2"/>
<ellipse cx="313.4" cy="129.1" rx="7.9" ry="10.0" fill="#151515" opacity="0.83" transform="rotate(144.0 313.4 129.1)"/>
<ellipse cx="311.8" cy="127.1" rx="3.3" ry="2.3" fill="#3f3f3f" opacity=".35"/>
<circle cx="322.1" cy="48.1" r="13.6" fill="#fff7ed" opacity=".75" stroke="#d7c3b9" stroke-width="1.2"/>
<ellipse cx="322.1" cy="48.1" rx="6.6" ry="7.3" fill="#151515" opacity="0.94" transform="rotate(151.2 322.1 48.1)"/>
<circle cx="207.2" cy="232.1" r="23.2" fill="#fff7ed" opacity=".75" stroke="#d7c3b9" stroke-width="1.2"/>
<ellipse cx="207.2" cy="232.1" rx="11.0" ry="11.4" fill="#151515" opacity="0.90" transform="rotate(52.2 207.2 232.1)"/><rect x="314" y="247" width="70" height="6" rx="2" fill="#1d2327" opacity=".78"/><text x="323" y="242" font-family="Arial" font-size="18" fill="#202020">100µm</text></svg>
