<svg xmlns="http://www.w3.org/2000/svg" viewBox="0 0 420 280" role="img">
  <defs>
    <filter id="grain"><feTurbulence type="fractalNoise" baseFrequency="0.85" numOctaves="2" stitchTiles="stitch"/><feColorMatrix type="saturate" values="0.12"/><feComponentTransfer><feFuncA type="table" tableValues="0 0.08"/></feComponentTransfer></filter>
    <radialGradient id="bg" cx="48%" cy="45%" r="75%"><stop offset="0" stop-color="#fbf2f1"/><stop offset="0.7" stop-color="#eadbd7"/><stop offset="1" stop-color="#ddcbc6"/></radialGradient>
    <linearGradient id="pearlite" x1="0" y1="0" x2="1" y2="1"><stop offset="0" stop-color="#7b6b63"/><stop offset="1" stop-color="#b6aaa3"/></linearGradient>
    
  </defs>
  <rect width="420" height="280" fill="url(#bg)"/>
  <rect width="420" height="280" filter="url(#grain)" opacity=".55"/>
<path d="M208.0,139.6 Q224.7,134.4 244.4,134.6" stroke="#111" stroke-width="3.4" fill="none" stroke-linecap="round" opacity=".92"/>
<path d="M208.3,134.3 Q210.3,132.2 222.7,145.4" stroke="#111" stroke-width="3.4" fill="none" stroke-linecap="round" opacity=".92"/>
<path d="M216.4,147.2 Q226.0,160.1 224.5,174.9" stroke="#111" stroke-width="3.4" fill="none" stroke-linecap="round" opacity=".92"/>
<path d="M210.9,136.0 Q203.1,147.9 188.6,167.5" stroke="#111" stroke-width="3.4" fill="none" stroke-linecap="round" opacity=".92"/>
<path d="M209.1,142.1 Q202.0,143.9 193.7,159.0" stroke="#111" stroke-width="3.4" fill="none" stroke-linecap="round" opacity=".92"/>
<path d="M200.4,139.3 Q182.5,125.0 178.6,119.7" stroke="#111" stroke-width="3.4" fill="none" stroke-linecap="round" opacity=".92"/>
<path d="M214.8,137.8 Q207.9,130.6 188.4,133.2" stroke="#111" stroke-width="3.4" fill="none" stroke-linecap="round" opacity=".92"/>
<path d="M212.0,145.4 Q224.4,143.1 232.7,143.7" stroke="#111" stroke-width="3.4" fill="none" stroke-linecap="round" opacity=".92"/>
<path d="M358.3,118.8 Q386.3,124.0 399.2,129.2" stroke="#111" stroke-width="3.4" fill="none" stroke-linecap="round" opacity=".92"/>
<path d="M345.8,117.4 Q349.8,112.9 365.8,123.6" stroke="#111" stroke-width="3.4" fill="none" stroke-linecap="round" opacity=".92"/>
<path d="M358.4,110.9 Q362.8,120.9 370.1,131.4" stroke="#111" stroke-width="3.4" fill="none" stroke-linecap="round" opacity=".92"/>
<path d="M345.0,108.7 Q333.8,123.4 328.5,124.6" stroke="#111" stroke-width="3.4" fill="none" stroke-linecap="round" opacity=".92"/>
<path d="M353.6,102.6 Q341.3,96.0 333.2,101.2" stroke="#111" stroke-width="3.4" fill="none" stroke-linecap="round" opacity=".92"/>
<path d="M350.3,108.2 Q338.4,107.2 321.9,100.3" stroke="#111" stroke-width="3.4" fill="none" stroke-linecap="round" opacity=".92"/>
<path d="M352.2,100.9 Q332.7,81.0 327.3,72.8" stroke="#111" stroke-width="3.4" fill="none" stroke-linecap="round" opacity=".92"/>
<path d="M216.6,95.2 Q234.6,102.6 252.9,95.4" stroke="#111" stroke-width="3.4" fill="none" stroke-linecap="round" opacity=".92"/>
<path d="M215.8,113.2 Q228.0,126.3 241.2,146.1" stroke="#111" stroke-width="3.4" fill="none" stroke-linecap="round" opacity=".92"/>
<path d="M215.8,107.7 Q209.4,118.0 214.6,133.2" stroke="#111" stroke-width="3.4" fill="none" stroke-linecap="round" opacity=".92"/>
<path d="M208.6,113.3 Q190.0,119.9 174.0,138.8" stroke="#111" stroke-width="3.4" fill="none" stroke-linecap="round" opacity=".92"/>
<path d="M218.9,109.2 Q208.7,116.0 200.2,120.6" stroke="#111" stroke-width="3.4" fill="none" stroke-linecap="round" opacity=".92"/>
<path d="M215.2,100.0 Q194.5,111.8 183.2,113.2" stroke="#111" stroke-width="3.4" fill="none" stroke-linecap="round" opacity=".92"/>
<path d="M221.4,111.4 Q204.1,112.4 187.9,99.6" stroke="#111" stroke-width="3.4" fill="none" stroke-linecap="round" opacity=".92"/>
<path d="M216.2,104.8 Q199.1,91.4 180.9,85.1" stroke="#111" stroke-width="3.4" fill="none" stroke-linecap="round" opacity=".92"/>
<path d="M216.9,109.9 Q225.3,96.1 219.7,91.3" stroke="#111" stroke-width="3.4" fill="none" stroke-linecap="round" opacity=".92"/>
<path d="M199.6,97.2 Q209.7,102.2 225.1,103.7" stroke="#111" stroke-width="3.4" fill="none" stroke-linecap="round" opacity=".92"/>
<path d="M211.9,92.8 Q214.4,96.0 231.7,105.8" stroke="#111" stroke-width="3.4" fill="none" stroke-linecap="round" opacity=".92"/>
<path d="M205.3,106.6 Q216.6,122.8 218.0,148.3" stroke="#111" stroke-width="3.4" fill="none" stroke-linecap="round" opacity=".92"/>
<path d="M209.8,93.2 Q208.7,106.6 193.7,121.8" stroke="#111" stroke-width="3.4" fill="none" stroke-linecap="round" opacity=".92"/>
<path d="M211.9,97.4 Q195.0,99.8 191.7,111.6" stroke="#111" stroke-width="3.4" fill="none" stroke-linecap="round" opacity=".92"/>
<path d="M209.9,111.1 Q201.4,107.9 197.1,95.3" stroke="#111" stroke-width="3.4" fill="none" stroke-linecap="round" opacity=".92"/>
<path d="M213.6,110.8 Q199.3,110.3 182.9,108.3" stroke="#111" stroke-width="3.4" fill="none" stroke-linecap="round" opacity=".92"/>
<path d="M194.1,95.0 Q219.6,104.4 234.7,105.1" stroke="#111" stroke-width="3.4" fill="none" stroke-linecap="round" opacity=".92"/>
<path d="M210.4,92.4 Q219.4,88.6 244.2,97.5" stroke="#111" stroke-width="3.4" fill="none" stroke-linecap="round" opacity=".92"/>
<path d="M154.0,55.7 Q164.7,44.5 171.0,48.8" stroke="#111" stroke-width="3.4" fill="none" stroke-linecap="round" opacity=".92"/>
<path d="M152.7,61.5 Q165.4,62.4 173.1,75.0" stroke="#111" stroke-width="3.4" fill="none" stroke-linecap="round" opacity=".92"/>
<path d="M151.6,61.3 Q158.1,68.1 162.6,83.8" stroke="#111" stroke-width="3.4" fill="none" stroke-linecap="round" opacity=".92"/>
<path d="M158.0,53.2 Q142.0,51.0 134.8,56.7" stroke="#111" stroke-width="3.4" fill="none" stroke-linecap="round" opacity=".92"/>
<path d="M153.7,51.7 Q139.5,51.4 133.2,48.0" stroke="#111" stroke-width="3.4" fill="none" stroke-linecap="round" opacity=".92"/>
<path d="M149.1,50.2 Q139.3,49.5 130.0,45.0" stroke="#111" stroke-width="3.4" fill="none" stroke-linecap="round" opacity=".92"/>
<path d="M158.9,59.9 Q153.5,32.5 163.2,19.1" stroke="#111" stroke-width="3.4" fill="none" stroke-linecap="round" opacity=".92"/>
<path d="M222.7,84.9 Q234.4,86.4 255.1,85.6" stroke="#111" stroke-width="3.4" fill="none" stroke-linecap="round" opacity=".92"/>
<path d="M212.9,74.4 Q215.3,96.2 230.3,102.1" stroke="#111" stroke-width="3.4" fill="none" stroke-linecap="round" opacity=".92"/>
<path d="M213.6,71.4 Q203.3,82.4 206.5,95.3" stroke="#111" stroke-width="3.4" fill="none" stroke-linecap="round" opacity=".92"/>
<path d="M219.5,84.4 Q213.8,92.7 217.1,113.0" stroke="#111" stroke-width="3.4" fill="none" stroke-linecap="round" opacity=".92"/>
<path d="M215.0,78.5 Q197.5,95.7 180.2,99.4" stroke="#111" stroke-width="3.4" fill="none" stroke-linecap="round" opacity=".92"/>
<path d="M227.3,87.4 Q217.8,84.4 203.9,94.6" stroke="#111" stroke-width="3.4" fill="none" stroke-linecap="round" opacity=".92"/>
<path d="M218.2,76.1 Q227.0,60.1 233.4,42.4" stroke="#111" stroke-width="3.4" fill="none" stroke-linecap="round" opacity=".92"/>
<path d="M207.7,79.5 Q228.7,80.4 235.1,90.5" stroke="#111" stroke-width="3.4" fill="none" stroke-linecap="round" opacity=".92"/>
<path d="M348.8,215.3 Q368.1,212.4 378.5,218.0" stroke="#111" stroke-width="3.4" fill="none" stroke-linecap="round" opacity=".92"/>
<path d="M335.3,225.0 Q344.4,236.7 361.6,247.9" stroke="#111" stroke-width="3.4" fill="none" stroke-linecap="round" opacity=".92"/>
<path d="M346.9,223.6 Q343.4,245.0 348.4,256.6" stroke="#111" stroke-width="3.4" fill="none" stroke-linecap="round" opacity=".92"/>
<path d="M334.9,223.9 Q326.6,232.2 314.3,253.1" stroke="#111" stroke-width="3.4" fill="none" stroke-linecap="round" opacity=".92"/>
<path d="M332.7,222.2 Q315.4,230.0 303.2,222.8" stroke="#111" stroke-width="3.4" fill="none" stroke-linecap="round" opacity=".92"/>
<path d="M339.0,227.8 Q327.7,226.7 302.5,233.7" stroke="#111" stroke-width="3.4" fill="none" stroke-linecap="round" opacity=".92"/>
<path d="M337.1,210.5 Q338.8,200.9 345.6,183.1" stroke="#111" stroke-width="3.4" fill="none" stroke-linecap="round" opacity=".92"/>
<path d="M195.6,61.6 Q212.3,54.0 230.7,54.3" stroke="#111" stroke-width="3.4" fill="none" stroke-linecap="round" opacity=".92"/>
<path d="M177.6,52.3 Q200.6,61.8 217.4,71.7" stroke="#111" stroke-width="3.4" fill="none" stroke-linecap="round" opacity=".92"/>
<path d="M188.6,63.9 Q193.7,77.0 196.8,97.6" stroke="#111" stroke-width="3.4" fill="none" stroke-linecap="round" opacity=".92"/>
<path d="M177.4,68.1 Q180.0,82.3 175.0,102.7" stroke="#111" stroke-width="3.4" fill="none" stroke-linecap="round" opacity=".92"/>
<path d="M190.5,52.8 Q193.2,62.7 181.8,71.9" stroke="#111" stroke-width="3.4" fill="none" stroke-linecap="round" opacity=".92"/>
<path d="M186.7,64.5 Q183.6,56.4 186.3,39.0" stroke="#111" stroke-width="3.4" fill="none" stroke-linecap="round" opacity=".92"/>
<path d="M187.4,58.5 Q170.8,40.7 150.9,35.8" stroke="#111" stroke-width="3.4" fill="none" stroke-linecap="round" opacity=".92"/>
<path d="M354.2,105.0 Q368.8,110.7 382.7,103.0" stroke="#111" stroke-width="3.4" fill="none" stroke-linecap="round" opacity=".92"/>
<path d="M364.1,93.6 Q386.5,101.4 397.5,101.9" stroke="#111" stroke-width="3.4" fill="none" stroke-linecap="round" opacity=".92"/>
<path d="M355.1,94.6 Q355.6,111.5 364.3,115.8" stroke="#111" stroke-width="3.4" fill="none" stroke-linecap="round" opacity=".92"/>
<path d="M354.4,104.0 Q346.6,104.6 328.4,120.2" stroke="#111" stroke-width="3.4" fill="none" stroke-linecap="round" opacity=".92"/>
<path d="M352.4,98.4 Q339.4,90.6 319.2,76.6" stroke="#111" stroke-width="3.4" fill="none" stroke-linecap="round" opacity=".92"/>
<path d="M363.6,96.1 Q349.8,90.8 344.8,87.5" stroke="#111" stroke-width="3.4" fill="none" stroke-linecap="round" opacity=".92"/>
<path d="M354.6,92.7 Q361.7,79.0 363.0,70.6" stroke="#111" stroke-width="3.4" fill="none" stroke-linecap="round" opacity=".92"/><rect x="314" y="247" width="70" height="6" rx="2" fill="#1d2327" opacity=".78"/><text x="323" y="242" font-family="Arial" font-size="18" fill="#202020">100µm</text></svg>
