<svg xmlns="http://www.w3.org/2000/svg" viewBox="0 0 420 280" role="img">
  <defs>
    <filter id="grain"><feTurbulence type="fractalNoise" baseFrequency="0.85" numOctaves="2" stitchTiles="stitch"/><feColorMatrix type="saturate" values="0.12"/><feComponentTransfer><feFuncA type="table" tableValues="0 0.08"/></feComponentTransfer></filter>
    <radialGradient id="bg" cx="48%" cy="45%" r="75%"><stop offset="0" stop-color="#fbf2f1"/><stop offset="0.7" stop-color="#eadbd7"/><stop offset="1" stop-color="#ddcbc6"/></radialGradient>
    <linearGradient id="pearlite" x1="0" y1="0" x2="1" y2="1"><stop offset="0" stop-color="#7b6b63"/><stop offset="1" stop-color="#b6aaa3"/></linearGradient>
    
  </defs>
  <rect width="420" height="280" fill="url(#bg)"/>
  <rect width="420" height="280" filter="url(#grain)" opacity=".55"/>
<path d="M227.3,54.5 L298.6,95.2" stroke="#777" stroke-width="1.2" opacity="0.15"/>
<path d="M265.2,60.1 L304.3,49.7" stroke="#777" stroke-width="1.5" opacity="0.15"/>
<path d="M57.7,271.9 L87.4,260.2" stroke="#777" stroke-width="0.8" opacity="0.15"/>
<path d="M314.2,102.6 L367.3,91.1" stroke="#777" stroke-width="1.4" opacity="0.15"/>
<path d="M145.8,58.3 L196.4,46.0" stroke="#777" stroke-width="0.8" opacity="0.15"/>
<path d="M338.8,190.4 L397.0,219.8" stroke="#777" stroke-width="1.1" opacity="0.15"/>
<path d="M134.5,118.4 L184.0,128.8" stroke="#777" stroke-width="0.7" opacity="0.15"/>
<path d="M173.5,149.8 L213.0,123.7" stroke="#777" stroke-width="1.5" opacity="0.15"/>
<path d="M-35.7,158.0 L-4.8,138.3" stroke="#777" stroke-width="0.9" opacity="0.15"/>
<path d="M-9.8,42.2 L54.0,60.5" stroke="#777" stroke-width="1.1" opacity="0.15"/>
<path d="M260.1,133.0 L310.2,157.8" stroke="#777" stroke-width="1.0" opacity="0.15"/>
<path d="M360.2,193.5 L414.8,155.9" stroke="#777" stroke-width="0.8" opacity="0.15"/>
<path d="M-25.3,96.8 L47.3,132.7" stroke="#777" stroke-width="1.6" opacity="0.15"/>
<path d="M14.7,197.6 L81.0,223.9" stroke="#777" stroke-width="1.6" opacity="0.15"/>
<path d="M24.5,50.1 L93.9,70.8" stroke="#777" stroke-width="1.7" opacity="0.15"/>
<path d="M165.4,249.1 L195.7,268.1" stroke="#777" stroke-width="1.7" opacity="0.15"/>
<path d="M115.3,18.9 L172.4,32.4" stroke="#777" stroke-width="1.1" opacity="0.15"/>
<path d="M-13.6,78.0 L51.5,42.5" stroke="#777" stroke-width="1.7" opacity="0.15"/>
<path d="M75.0,57.2 L103.5,76.3" stroke="#777" stroke-width="1.7" opacity="0.15"/>
<path d="M106.8,26.8 L164.3,56.2" stroke="#777" stroke-width="0.7" opacity="0.15"/>
<path d="M251.2,239.9 L304.7,244.4" stroke="#777" stroke-width="1.6" opacity="0.15"/>
<path d="M69.7,76.5 L134.6,80.7" stroke="#777" stroke-width="1.3" opacity="0.15"/>
<path d="M113.8,262.4 L156.9,271.9" stroke="#777" stroke-width="1.7" opacity="0.15"/>
<path d="M144.4,15.2 L179.2,-5.2" stroke="#777" stroke-width="0.9" opacity="0.15"/>
<path d="M15.4,95.9 L64.0,92.8" stroke="#777" stroke-width="1.4" opacity="0.15"/>
<path d="M271.3,192.4 L318.7,202.0" stroke="#777" stroke-width="1.3" opacity="0.15"/>
<path d="M18.7,152.8 L63.4,162.6" stroke="#777" stroke-width="1.5" opacity="0.15"/>
<path d="M70.7,121.8 L122.6,108.7" stroke="#777" stroke-width="0.7" opacity="0.15"/>
<path d="M-17.2,278.0 L52.1,272.8" stroke="#777" stroke-width="1.4" opacity="0.15"/>
<path d="M83.7,198.9 L160.5,225.5" stroke="#777" stroke-width="1.2" opacity="0.15"/>
<path d="M412.4,258.2 L443.5,254.8" stroke="#777" stroke-width="1.2" opacity="0.15"/>
<path d="M86.1,172.6 L120.5,183.3" stroke="#777" stroke-width="1.6" opacity="0.15"/>
<path d="M-11.7,193.8 L30.6,201.0" stroke="#777" stroke-width="1.5" opacity="0.15"/>
<path d="M409.3,223.5 L454.4,236.5" stroke="#777" stroke-width="0.9" opacity="0.15"/>
<path d="M288.3,116.8 L329.0,103.3" stroke="#777" stroke-width="0.9" opacity="0.15"/>
<path d="M326.3,26.9 L364.5,11.9" stroke="#777" stroke-width="0.9" opacity="0.15"/>
<path d="M295.8,164.5 L353.4,195.1" stroke="#777" stroke-width="1.2" opacity="0.15"/>
<path d="M-22.6,53.0 L32.4,67.8" stroke="#777" stroke-width="1.7" opacity="0.15"/>
<path d="M195.2,63.5 L247.9,94.5" stroke="#777" stroke-width="1.1" opacity="0.15"/>
<path d="M388.3,253.1 L448.6,251.7" stroke="#777" stroke-width="0.8" opacity="0.15"/>
<path d="M10.8,11.5 L71.0,27.5" stroke="#777" stroke-width="1.8" opacity="0.15"/>
<path d="M237.1,278.3 L282.7,256.4" stroke="#777" stroke-width="0.8" opacity="0.15"/>
<path d="M92.6,148.6 L173.3,128.2" stroke="#777" stroke-width="1.0" opacity="0.15"/>
<path d="M292.7,108.8 L346.7,84.3" stroke="#777" stroke-width="1.6" opacity="0.15"/>
<path d="M382.9,211.4 L461.6,195.1" stroke="#777" stroke-width="0.7" opacity="0.15"/>
<path d="M100.3,251.4 L150.9,232.0" stroke="#777" stroke-width="0.9" opacity="0.15"/>
<path d="M35.6,122.9 L106.8,159.0" stroke="#777" stroke-width="1.5" opacity="0.15"/>
<path d="M307.8,53.4 L375.3,29.8" stroke="#777" stroke-width="1.3" opacity="0.15"/>
<path d="M-24.6,249.9 L10.4,253.8" stroke="#777" stroke-width="1.4" opacity="0.15"/>
<path d="M256.2,191.0 L301.8,208.1" stroke="#777" stroke-width="1.7" opacity="0.15"/>
<path d="M243.9,274.3 L308.6,235.2" stroke="#777" stroke-width="1.4" opacity="0.15"/>
<path d="M2.1,185.2 L46.4,205.6" stroke="#777" stroke-width="0.7" opacity="0.15"/>
<path d="M395.4,12.2 L421.0,-5.6" stroke="#777" stroke-width="0.8" opacity="0.15"/>
<path d="M413.6,233.9 L487.2,204.2" stroke="#777" stroke-width="1.5" opacity="0.15"/>
<path d="M325.8,203.5 L362.0,227.0" stroke="#777" stroke-width="1.5" opacity="0.15"/>
<path d="M274.8,79.7 L322.6,95.2" stroke="#777" stroke-width="1.3" opacity="0.15"/>
<path d="M184.4,257.5 L231.1,279.4" stroke="#777" stroke-width="0.8" opacity="0.15"/>
<path d="M204.0,199.6 L231.8,206.4" stroke="#777" stroke-width="1.0" opacity="0.15"/>
<path d="M247.8,174.5 L278.3,192.9" stroke="#777" stroke-width="1.0" opacity="0.15"/>
<path d="M22.8,124.0 L50.7,109.2" stroke="#777" stroke-width="1.5" opacity="0.15"/>
<path d="M4.9,151.6 L82.3,147.2" stroke="#777" stroke-width="1.6" opacity="0.15"/>
<path d="M341.9,46.1 L372.3,57.1" stroke="#777" stroke-width="1.7" opacity="0.15"/>
<path d="M352.4,200.0 L400.3,230.0" stroke="#777" stroke-width="1.5" opacity="0.15"/>
<path d="M310.9,255.3 L340.7,264.3" stroke="#777" stroke-width="1.3" opacity="0.15"/>
<path d="M-34.2,71.5 L33.9,73.9" stroke="#777" stroke-width="1.3" opacity="0.15"/>
<path d="M92.2,158.7 L156.5,201.5" stroke="#777" stroke-width="1.3" opacity="0.15"/>
<path d="M296.4,24.4 L332.2,27.0" stroke="#777" stroke-width="1.6" opacity="0.15"/>
<path d="M14.9,41.3 L69.3,28.1" stroke="#777" stroke-width="0.9" opacity="0.15"/>
<path d="M32.9,118.9 L99.6,90.6" stroke="#777" stroke-width="1.6" opacity="0.15"/>
<path d="M-5.7,70.2 L48.3,33.2" stroke="#777" stroke-width="1.1" opacity="0.15"/>
<path d="M71.8,65.7 L134.3,51.5" stroke="#222" stroke-width="3.3" stroke-linecap="round" opacity=".75"/>
<path d="M374.1,69.5 L436.6,63.4" stroke="#222" stroke-width="3.4" stroke-linecap="round" opacity=".75"/>
<path d="M242.4,94.8 L305.2,107.4" stroke="#222" stroke-width="2.3" stroke-linecap="round" opacity=".75"/>
<path d="M239.3,81.3 L269.8,93.7" stroke="#222" stroke-width="3.9" stroke-linecap="round" opacity=".75"/>
<path d="M73.2,231.8 L125.1,213.4" stroke="#222" stroke-width="1.8" stroke-linecap="round" opacity=".75"/>
<path d="M184.3,224.8 L247.0,215.1" stroke="#222" stroke-width="2.6" stroke-linecap="round" opacity=".75"/>
<path d="M380.1,60.7 L403.5,60.2" stroke="#222" stroke-width="3.2" stroke-linecap="round" opacity=".75"/>
<path d="M359.1,222.2 L377.3,218.3" stroke="#222" stroke-width="1.8" stroke-linecap="round" opacity=".75"/>
<path d="M248.3,108.2 L313.7,117.0" stroke="#222" stroke-width="3.0" stroke-linecap="round" opacity=".75"/>
<path d="M284.8,59.6 L345.9,80.3" stroke="#222" stroke-width="3.6" stroke-linecap="round" opacity=".75"/>
<path d="M323.0,51.7 L343.7,50.4" stroke="#222" stroke-width="3.3" stroke-linecap="round" opacity=".75"/>
<path d="M90.3,220.3 L151.7,232.6" stroke="#222" stroke-width="2.7" stroke-linecap="round" opacity=".75"/>
<path d="M70.2,205.9 L97.1,207.0" stroke="#222" stroke-width="3.4" stroke-linecap="round" opacity=".75"/>
<path d="M264.2,67.1 L327.6,60.9" stroke="#222" stroke-width="2.6" stroke-linecap="round" opacity=".75"/>
<path d="M185.4,179.7 L205.2,182.8" stroke="#222" stroke-width="2.7" stroke-linecap="round" opacity=".75"/>
<path d="M330.3,98.5 L374.1,117.6" stroke="#222" stroke-width="1.6" stroke-linecap="round" opacity=".75"/>
<path d="M326.8,123.3 L360.1,118.9" stroke="#222" stroke-width="2.0" stroke-linecap="round" opacity=".75"/>
<path d="M347.3,59.0 L415.2,62.9" stroke="#222" stroke-width="2.2" stroke-linecap="round" opacity=".75"/>
<path d="M323.3,150.7 L385.5,135.7" stroke="#222" stroke-width="3.2" stroke-linecap="round" opacity=".75"/>
<path d="M21.1,54.4 L60.5,50.4" stroke="#222" stroke-width="2.2" stroke-linecap="round" opacity=".75"/>
<path d="M237.7,190.7 L277.3,192.7" stroke="#222" stroke-width="3.5" stroke-linecap="round" opacity=".75"/>
<path d="M100.5,251.5 L119.6,250.4" stroke="#222" stroke-width="3.6" stroke-linecap="round" opacity=".75"/>
<path d="M104.1,90.0 L128.7,100.9" stroke="#222" stroke-width="3.7" stroke-linecap="round" opacity=".75"/>
<path d="M42.5,140.4 L67.0,131.8" stroke="#222" stroke-width="2.1" stroke-linecap="round" opacity=".75"/>
<path d="M291.1,137.9 L323.8,141.4" stroke="#222" stroke-width="1.7" stroke-linecap="round" opacity=".75"/>
<path d="M147.0,33.7 L207.7,30.8" stroke="#222" stroke-width="3.3" stroke-linecap="round" opacity=".75"/>
<path d="M144.2,110.5 L191.6,103.6" stroke="#222" stroke-width="2.9" stroke-linecap="round" opacity=".75"/>
<path d="M318.9,27.9 L345.7,18.6" stroke="#222" stroke-width="2.7" stroke-linecap="round" opacity=".75"/>
<path d="M54.1,136.0 L80.4,137.7" stroke="#222" stroke-width="2.2" stroke-linecap="round" opacity=".75"/>
<path d="M309.7,207.3 L377.5,208.3" stroke="#222" stroke-width="3.7" stroke-linecap="round" opacity=".75"/>
<path d="M354.7,91.3 L418.2,118.4" stroke="#222" stroke-width="1.9" stroke-linecap="round" opacity=".75"/>
<path d="M310.7,176.4 L359.6,186.8" stroke="#222" stroke-width="2.2" stroke-linecap="round" opacity=".75"/>
<path d="M343.7,184.7 L368.9,195.7" stroke="#222" stroke-width="3.3" stroke-linecap="round" opacity=".75"/>
<path d="M32.3,17.8 L58.7,22.4" stroke="#222" stroke-width="3.3" stroke-linecap="round" opacity=".75"/>
<circle cx="382.5" cy="223.8" r="2.2" fill="#111" opacity=".8"/>
<circle cx="87.7" cy="30.5" r="2.6" fill="#111" opacity=".8"/>
<circle cx="179.4" cy="102.0" r="3.6" fill="#111" opacity=".8"/>
<circle cx="255.2" cy="204.5" r="3.7" fill="#111" opacity=".8"/>
<circle cx="316.1" cy="134.3" r="2.6" fill="#111" opacity=".8"/>
<circle cx="224.4" cy="121.3" r="3.2" fill="#111" opacity=".8"/>
<circle cx="350.9" cy="173.6" r="2.3" fill="#111" opacity=".8"/>
<circle cx="235.7" cy="120.3" r="2.0" fill="#111" opacity=".8"/>
<circle cx="52.2" cy="119.1" r="3.9" fill="#111" opacity=".8"/>
<circle cx="291.2" cy="23.5" r="3.8" fill="#111" opacity=".8"/>
<circle cx="299.9" cy="156.1" r="1.7" fill="#111" opacity=".8"/>
<circle cx="134.1" cy="90.7" r="2.8" fill="#111" opacity=".8"/>
<circle cx="59.1" cy="162.4" r="3.1" fill="#111" opacity=".8"/>
<circle cx="266.2" cy="129.6" r="3.0" fill="#111" opacity=".8"/>
<circle cx="55.3" cy="210.1" r="3.7" fill="#111" opacity=".8"/>
<circle cx="350.5" cy="195.7" r="2.3" fill="#111" opacity=".8"/>
<circle cx="127.6" cy="22.3" r="3.5" fill="#111" opacity=".8"/>
<circle cx="353.9" cy="236.7" r="3.1" fill="#111" opacity=".8"/>
<circle cx="329.6" cy="214.6" r="2.0" fill="#111" opacity=".8"/>
<circle cx="37.3" cy="222.1" r="3.9" fill="#111" opacity=".8"/><rect x="314" y="247" width="70" height="6" rx="2" fill="#1d2327" opacity=".78"/><text x="323" y="242" font-family="Arial" font-size="18" fill="#202020">100µm</text></svg>
